G75*
%MOIN*%
%OFA0B0*%
%FSLAX25Y25*%
%IPPOS*%
%LPD*%
%AMOC8*
5,1,8,0,0,1.08239X$1,22.5*
%
%ADD10C,0.07400*%
%ADD11R,0.02500X0.05000*%
%ADD12C,0.00800*%
%ADD13C,0.01000*%
%ADD14C,0.03100*%
%ADD15C,0.00700*%
D10*
X0010060Y0009060D03*
X0010060Y0019060D03*
X0010060Y0029060D03*
X0010060Y0039060D03*
X0010060Y0049060D03*
X0010060Y0059060D03*
X0010060Y0091060D03*
X0010060Y0101060D03*
X0010060Y0111060D03*
X0010060Y0121060D03*
X0010060Y0131060D03*
X0010060Y0141060D03*
X0010060Y0173060D03*
X0010060Y0183060D03*
X0010060Y0193060D03*
X0010060Y0203060D03*
X0010060Y0213060D03*
X0010060Y0223060D03*
X0080060Y0223060D03*
X0080060Y0213060D03*
X0080060Y0203060D03*
X0080060Y0193060D03*
X0080060Y0183060D03*
X0080060Y0173060D03*
X0092060Y0173060D03*
X0092060Y0183060D03*
X0092060Y0193060D03*
X0092060Y0203060D03*
X0092060Y0213060D03*
X0092060Y0223060D03*
X0162060Y0223060D03*
X0162060Y0213060D03*
X0162060Y0203060D03*
X0162060Y0193060D03*
X0162060Y0183060D03*
X0162060Y0173060D03*
X0174060Y0173060D03*
X0174060Y0183060D03*
X0174060Y0193060D03*
X0174060Y0203060D03*
X0174060Y0213060D03*
X0174060Y0223060D03*
X0244060Y0223060D03*
X0244060Y0213060D03*
X0244060Y0203060D03*
X0244060Y0193060D03*
X0244060Y0183060D03*
X0244060Y0173060D03*
X0244060Y0141060D03*
X0244060Y0131060D03*
X0244060Y0121060D03*
X0244060Y0111060D03*
X0244060Y0101060D03*
X0244060Y0091060D03*
X0244060Y0059060D03*
X0244060Y0049060D03*
X0244060Y0039060D03*
X0244060Y0029060D03*
X0244060Y0019060D03*
X0244060Y0009060D03*
X0174060Y0009060D03*
X0174060Y0019060D03*
X0174060Y0029060D03*
X0174060Y0039060D03*
X0174060Y0049060D03*
X0174060Y0059060D03*
X0162060Y0059060D03*
X0162060Y0049060D03*
X0162060Y0039060D03*
X0162060Y0029060D03*
X0162060Y0019060D03*
X0162060Y0009060D03*
X0092060Y0009060D03*
X0092060Y0019060D03*
X0092060Y0029060D03*
X0092060Y0039060D03*
X0092060Y0049060D03*
X0092060Y0059060D03*
X0080060Y0059060D03*
X0080060Y0049060D03*
X0080060Y0039060D03*
X0080060Y0029060D03*
X0080060Y0019060D03*
X0080060Y0009060D03*
X0080060Y0091060D03*
X0080060Y0101060D03*
X0080060Y0111060D03*
X0080060Y0121060D03*
X0080060Y0131060D03*
X0080060Y0141060D03*
X0092060Y0141060D03*
X0092060Y0131060D03*
X0092060Y0121060D03*
X0092060Y0111060D03*
X0092060Y0101060D03*
X0092060Y0091060D03*
X0162060Y0091060D03*
X0162060Y0101060D03*
X0162060Y0111060D03*
X0162060Y0121060D03*
X0162060Y0131060D03*
X0162060Y0141060D03*
X0174060Y0141060D03*
X0174060Y0131060D03*
X0174060Y0121060D03*
X0174060Y0111060D03*
X0174060Y0101060D03*
X0174060Y0091060D03*
D11*
X0197560Y0091060D03*
X0201560Y0091060D03*
X0205560Y0091060D03*
X0212560Y0091060D03*
X0216560Y0091060D03*
X0220560Y0091060D03*
X0211060Y0074060D03*
X0207060Y0074060D03*
X0205860Y0064060D03*
X0209060Y0064060D03*
X0212260Y0064060D03*
X0212560Y0009060D03*
X0216560Y0009060D03*
X0220560Y0009060D03*
X0205560Y0009060D03*
X0201560Y0009060D03*
X0197560Y0009060D03*
X0138560Y0009060D03*
X0134560Y0009060D03*
X0130560Y0009060D03*
X0123560Y0009060D03*
X0119560Y0009060D03*
X0115560Y0009060D03*
X0123860Y0064060D03*
X0127060Y0064060D03*
X0130260Y0064060D03*
X0129060Y0074060D03*
X0125060Y0074060D03*
X0123560Y0091060D03*
X0119560Y0091060D03*
X0115560Y0091060D03*
X0130560Y0091060D03*
X0134560Y0091060D03*
X0138560Y0091060D03*
X0130260Y0146060D03*
X0127060Y0146060D03*
X0123860Y0146060D03*
X0125060Y0156060D03*
X0129060Y0156060D03*
X0130560Y0173060D03*
X0134560Y0173060D03*
X0138560Y0173060D03*
X0123560Y0173060D03*
X0119560Y0173060D03*
X0115560Y0173060D03*
X0123860Y0228060D03*
X0127060Y0228060D03*
X0130260Y0228060D03*
X0129060Y0238060D03*
X0125060Y0238060D03*
X0056560Y0173060D03*
X0052560Y0173060D03*
X0048560Y0173060D03*
X0041560Y0173060D03*
X0037560Y0173060D03*
X0033560Y0173060D03*
X0043060Y0156060D03*
X0047060Y0156060D03*
X0048260Y0146060D03*
X0045060Y0146060D03*
X0041860Y0146060D03*
X0041560Y0091060D03*
X0037560Y0091060D03*
X0033560Y0091060D03*
X0048560Y0091060D03*
X0052560Y0091060D03*
X0056560Y0091060D03*
X0047060Y0074060D03*
X0043060Y0074060D03*
X0041860Y0064060D03*
X0045060Y0064060D03*
X0048260Y0064060D03*
X0048560Y0009060D03*
X0052560Y0009060D03*
X0056560Y0009060D03*
X0041560Y0009060D03*
X0037560Y0009060D03*
X0033560Y0009060D03*
X0205860Y0146060D03*
X0209060Y0146060D03*
X0212260Y0146060D03*
X0211060Y0156060D03*
X0207060Y0156060D03*
X0205560Y0173060D03*
X0201560Y0173060D03*
X0197560Y0173060D03*
X0212560Y0173060D03*
X0216560Y0173060D03*
X0220560Y0173060D03*
X0212260Y0228060D03*
X0209060Y0228060D03*
X0205860Y0228060D03*
X0207060Y0238060D03*
X0211060Y0238060D03*
X0048260Y0228060D03*
X0045060Y0228060D03*
X0041860Y0228060D03*
X0043060Y0238060D03*
X0047060Y0238060D03*
D12*
X0046060Y0228060D02*
X0049060Y0228060D01*
X0044060Y0228060D02*
X0041060Y0228060D01*
X0045868Y0201110D02*
X0052085Y0201110D01*
X0051910Y0200687D01*
X0051910Y0199668D01*
X0050610Y0198368D01*
X0050610Y0187768D01*
X0049868Y0188510D01*
X0034252Y0188510D01*
X0031610Y0185868D01*
X0031610Y0185827D01*
X0030687Y0186210D01*
X0029433Y0186210D01*
X0028276Y0185730D01*
X0027390Y0184844D01*
X0026910Y0183687D01*
X0026910Y0182433D01*
X0027390Y0181276D01*
X0028276Y0180390D01*
X0029433Y0179910D01*
X0030687Y0179910D01*
X0031610Y0180292D01*
X0031610Y0177123D01*
X0030710Y0176223D01*
X0030710Y0172860D01*
X0010460Y0172860D01*
X0010460Y0173460D01*
X0015160Y0173460D01*
X0015160Y0173461D01*
X0015034Y0174254D01*
X0014786Y0175018D01*
X0014422Y0175733D01*
X0013950Y0176382D01*
X0013382Y0176950D01*
X0012733Y0177422D01*
X0012018Y0177786D01*
X0011547Y0177939D01*
X0013062Y0178567D01*
X0014553Y0180058D01*
X0015360Y0182006D01*
X0015360Y0184114D01*
X0014553Y0186062D01*
X0013062Y0187553D01*
X0011838Y0188060D01*
X0013062Y0188567D01*
X0014553Y0190058D01*
X0014989Y0191110D01*
X0035868Y0191110D01*
X0045868Y0201110D01*
X0045251Y0200494D02*
X0051910Y0200494D01*
X0051910Y0199695D02*
X0044453Y0199695D01*
X0043654Y0198897D02*
X0051139Y0198897D01*
X0050610Y0198098D02*
X0042856Y0198098D01*
X0042057Y0197300D02*
X0050610Y0197300D01*
X0050610Y0196501D02*
X0041259Y0196501D01*
X0040460Y0195703D02*
X0050610Y0195703D01*
X0050610Y0194904D02*
X0039662Y0194904D01*
X0038863Y0194106D02*
X0050610Y0194106D01*
X0050610Y0193307D02*
X0038065Y0193307D01*
X0037266Y0192509D02*
X0050610Y0192509D01*
X0050610Y0191710D02*
X0036468Y0191710D01*
X0033460Y0187718D02*
X0012665Y0187718D01*
X0012940Y0188516D02*
X0050610Y0188516D01*
X0050610Y0189315D02*
X0013810Y0189315D01*
X0014576Y0190113D02*
X0050610Y0190113D01*
X0050610Y0190912D02*
X0014907Y0190912D01*
X0013696Y0186919D02*
X0032661Y0186919D01*
X0031863Y0186121D02*
X0030902Y0186121D01*
X0029218Y0186121D02*
X0014495Y0186121D01*
X0014860Y0185322D02*
X0027867Y0185322D01*
X0027257Y0184524D02*
X0015190Y0184524D01*
X0015360Y0183725D02*
X0026926Y0183725D01*
X0026910Y0182927D02*
X0015360Y0182927D01*
X0015360Y0182128D02*
X0027036Y0182128D01*
X0027367Y0181330D02*
X0015080Y0181330D01*
X0014749Y0180531D02*
X0028134Y0180531D01*
X0031610Y0179732D02*
X0014228Y0179732D01*
X0013429Y0178934D02*
X0031610Y0178934D01*
X0031610Y0178135D02*
X0012021Y0178135D01*
X0012850Y0177337D02*
X0031610Y0177337D01*
X0031026Y0176538D02*
X0013794Y0176538D01*
X0014417Y0175740D02*
X0030710Y0175740D01*
X0030710Y0174941D02*
X0014811Y0174941D01*
X0015052Y0174143D02*
X0030710Y0174143D01*
X0030710Y0173344D02*
X0010460Y0173344D01*
X0039510Y0177123D02*
X0039510Y0179752D01*
X0040868Y0181110D01*
X0042555Y0181110D01*
X0043276Y0180390D01*
X0044433Y0179910D01*
X0045687Y0179910D01*
X0046844Y0180390D01*
X0047560Y0181105D01*
X0048110Y0180555D01*
X0048110Y0180368D01*
X0046610Y0178868D01*
X0046610Y0177123D01*
X0045710Y0176223D01*
X0045710Y0172860D01*
X0043660Y0172860D01*
X0043660Y0173285D01*
X0044210Y0173285D01*
X0044210Y0175744D01*
X0044115Y0176100D01*
X0043930Y0176420D01*
X0043670Y0176680D01*
X0043350Y0176865D01*
X0042994Y0176960D01*
X0041785Y0176960D01*
X0041785Y0175160D01*
X0041335Y0175160D01*
X0041335Y0176960D01*
X0040126Y0176960D01*
X0039770Y0176865D01*
X0039769Y0176864D01*
X0039510Y0177123D01*
X0039510Y0177337D02*
X0046610Y0177337D01*
X0046610Y0178135D02*
X0039510Y0178135D01*
X0039510Y0178934D02*
X0046676Y0178934D01*
X0047475Y0179732D02*
X0039510Y0179732D01*
X0040289Y0180531D02*
X0043134Y0180531D01*
X0046986Y0180531D02*
X0048110Y0180531D01*
X0046026Y0176538D02*
X0043811Y0176538D01*
X0044210Y0175740D02*
X0045710Y0175740D01*
X0045710Y0174941D02*
X0044210Y0174941D01*
X0044210Y0174143D02*
X0045710Y0174143D01*
X0045710Y0173344D02*
X0044210Y0173344D01*
X0041785Y0175740D02*
X0041335Y0175740D01*
X0041335Y0176538D02*
X0041785Y0176538D01*
X0054510Y0177123D02*
X0054510Y0196752D01*
X0054668Y0196910D01*
X0055687Y0196910D01*
X0056844Y0197390D01*
X0057730Y0198276D01*
X0058210Y0199433D01*
X0058210Y0200687D01*
X0058035Y0201110D01*
X0075131Y0201110D01*
X0075567Y0200058D01*
X0077058Y0198567D01*
X0078282Y0198060D01*
X0077058Y0197553D01*
X0075567Y0196062D01*
X0074760Y0194114D01*
X0074760Y0192006D01*
X0075567Y0190058D01*
X0077058Y0188567D01*
X0078282Y0188060D01*
X0077058Y0187553D01*
X0075567Y0186062D01*
X0074760Y0184114D01*
X0074760Y0182006D01*
X0075567Y0180058D01*
X0077058Y0178567D01*
X0078573Y0177939D01*
X0078102Y0177786D01*
X0077387Y0177422D01*
X0076738Y0176950D01*
X0076170Y0176382D01*
X0075698Y0175733D01*
X0075334Y0175018D01*
X0075086Y0174254D01*
X0074960Y0173461D01*
X0074960Y0173460D01*
X0079660Y0173460D01*
X0079660Y0172860D01*
X0058660Y0172860D01*
X0058660Y0173285D01*
X0059210Y0173285D01*
X0059210Y0175744D01*
X0059115Y0176100D01*
X0058930Y0176420D01*
X0058670Y0176680D01*
X0058350Y0176865D01*
X0057994Y0176960D01*
X0056785Y0176960D01*
X0056785Y0175160D01*
X0056335Y0175160D01*
X0056335Y0176960D01*
X0055126Y0176960D01*
X0054770Y0176865D01*
X0054769Y0176864D01*
X0054510Y0177123D01*
X0054510Y0177337D02*
X0077270Y0177337D01*
X0078099Y0178135D02*
X0054510Y0178135D01*
X0054510Y0178934D02*
X0076691Y0178934D01*
X0075892Y0179732D02*
X0054510Y0179732D01*
X0054510Y0180531D02*
X0075371Y0180531D01*
X0075040Y0181330D02*
X0054510Y0181330D01*
X0054510Y0182128D02*
X0074760Y0182128D01*
X0074760Y0182927D02*
X0054510Y0182927D01*
X0054510Y0183725D02*
X0074760Y0183725D01*
X0074930Y0184524D02*
X0054510Y0184524D01*
X0054510Y0185322D02*
X0075260Y0185322D01*
X0075625Y0186121D02*
X0054510Y0186121D01*
X0054510Y0186919D02*
X0076424Y0186919D01*
X0077455Y0187718D02*
X0054510Y0187718D01*
X0054510Y0188516D02*
X0077180Y0188516D01*
X0076310Y0189315D02*
X0054510Y0189315D01*
X0054510Y0190113D02*
X0075544Y0190113D01*
X0075213Y0190912D02*
X0054510Y0190912D01*
X0054510Y0191710D02*
X0074882Y0191710D01*
X0074760Y0192509D02*
X0054510Y0192509D01*
X0054510Y0193307D02*
X0074760Y0193307D01*
X0074760Y0194106D02*
X0054510Y0194106D01*
X0054510Y0194904D02*
X0075087Y0194904D01*
X0075418Y0195703D02*
X0054510Y0195703D01*
X0054510Y0196501D02*
X0076006Y0196501D01*
X0076804Y0197300D02*
X0056627Y0197300D01*
X0057553Y0198098D02*
X0078189Y0198098D01*
X0076728Y0198897D02*
X0057988Y0198897D01*
X0058210Y0199695D02*
X0075929Y0199695D01*
X0075386Y0200494D02*
X0058210Y0200494D01*
X0058811Y0176538D02*
X0076326Y0176538D01*
X0075703Y0175740D02*
X0059210Y0175740D01*
X0059210Y0174941D02*
X0075309Y0174941D01*
X0075068Y0174143D02*
X0059210Y0174143D01*
X0059210Y0173344D02*
X0079660Y0173344D01*
X0092460Y0173344D02*
X0112710Y0173344D01*
X0112710Y0172860D02*
X0092460Y0172860D01*
X0092460Y0173460D01*
X0097160Y0173460D01*
X0097160Y0173461D01*
X0097034Y0174254D01*
X0096786Y0175018D01*
X0096422Y0175733D01*
X0095950Y0176382D01*
X0095382Y0176950D01*
X0094733Y0177422D01*
X0094018Y0177786D01*
X0093547Y0177939D01*
X0095062Y0178567D01*
X0096553Y0180058D01*
X0097360Y0182006D01*
X0097360Y0184114D01*
X0096553Y0186062D01*
X0095062Y0187553D01*
X0093838Y0188060D01*
X0095062Y0188567D01*
X0096553Y0190058D01*
X0096989Y0191110D01*
X0117868Y0191110D01*
X0127868Y0201110D01*
X0134085Y0201110D01*
X0133910Y0200687D01*
X0133910Y0199668D01*
X0132610Y0198368D01*
X0132610Y0187768D01*
X0131868Y0188510D01*
X0116252Y0188510D01*
X0113610Y0185868D01*
X0113610Y0185827D01*
X0112687Y0186210D01*
X0111433Y0186210D01*
X0110276Y0185730D01*
X0109390Y0184844D01*
X0108910Y0183687D01*
X0108910Y0182433D01*
X0109390Y0181276D01*
X0110276Y0180390D01*
X0111433Y0179910D01*
X0112687Y0179910D01*
X0113610Y0180292D01*
X0113610Y0177123D01*
X0112710Y0176223D01*
X0112710Y0172860D01*
X0112710Y0174143D02*
X0097052Y0174143D01*
X0096811Y0174941D02*
X0112710Y0174941D01*
X0112710Y0175740D02*
X0096417Y0175740D01*
X0095794Y0176538D02*
X0113026Y0176538D01*
X0113610Y0177337D02*
X0094850Y0177337D01*
X0094021Y0178135D02*
X0113610Y0178135D01*
X0113610Y0178934D02*
X0095429Y0178934D01*
X0096228Y0179732D02*
X0113610Y0179732D01*
X0110134Y0180531D02*
X0096749Y0180531D01*
X0097080Y0181330D02*
X0109367Y0181330D01*
X0109036Y0182128D02*
X0097360Y0182128D01*
X0097360Y0182927D02*
X0108910Y0182927D01*
X0108926Y0183725D02*
X0097360Y0183725D01*
X0097190Y0184524D02*
X0109257Y0184524D01*
X0109867Y0185322D02*
X0096860Y0185322D01*
X0096495Y0186121D02*
X0111218Y0186121D01*
X0112902Y0186121D02*
X0113863Y0186121D01*
X0114661Y0186919D02*
X0095696Y0186919D01*
X0094665Y0187718D02*
X0115460Y0187718D01*
X0118468Y0191710D02*
X0132610Y0191710D01*
X0132610Y0190912D02*
X0096907Y0190912D01*
X0096576Y0190113D02*
X0132610Y0190113D01*
X0132610Y0189315D02*
X0095810Y0189315D01*
X0094940Y0188516D02*
X0132610Y0188516D01*
X0132610Y0192509D02*
X0119266Y0192509D01*
X0120065Y0193307D02*
X0132610Y0193307D01*
X0132610Y0194106D02*
X0120863Y0194106D01*
X0121662Y0194904D02*
X0132610Y0194904D01*
X0132610Y0195703D02*
X0122460Y0195703D01*
X0123259Y0196501D02*
X0132610Y0196501D01*
X0132610Y0197300D02*
X0124057Y0197300D01*
X0124856Y0198098D02*
X0132610Y0198098D01*
X0133139Y0198897D02*
X0125654Y0198897D01*
X0126453Y0199695D02*
X0133910Y0199695D01*
X0133910Y0200494D02*
X0127251Y0200494D01*
X0136510Y0196752D02*
X0136668Y0196910D01*
X0137687Y0196910D01*
X0138844Y0197390D01*
X0139730Y0198276D01*
X0140210Y0199433D01*
X0140210Y0200687D01*
X0140035Y0201110D01*
X0157131Y0201110D01*
X0157567Y0200058D01*
X0159058Y0198567D01*
X0160282Y0198060D01*
X0159058Y0197553D01*
X0157567Y0196062D01*
X0156760Y0194114D01*
X0156760Y0192006D01*
X0157567Y0190058D01*
X0159058Y0188567D01*
X0160282Y0188060D01*
X0159058Y0187553D01*
X0157567Y0186062D01*
X0156760Y0184114D01*
X0156760Y0182006D01*
X0157567Y0180058D01*
X0159058Y0178567D01*
X0160573Y0177939D01*
X0160102Y0177786D01*
X0159387Y0177422D01*
X0158738Y0176950D01*
X0158170Y0176382D01*
X0157698Y0175733D01*
X0157334Y0175018D01*
X0157086Y0174254D01*
X0156960Y0173461D01*
X0156960Y0173460D01*
X0161660Y0173460D01*
X0161660Y0172860D01*
X0140660Y0172860D01*
X0140660Y0173285D01*
X0141210Y0173285D01*
X0141210Y0175744D01*
X0141115Y0176100D01*
X0140930Y0176420D01*
X0140670Y0176680D01*
X0140350Y0176865D01*
X0139994Y0176960D01*
X0138785Y0176960D01*
X0138785Y0175160D01*
X0138335Y0175160D01*
X0138335Y0176960D01*
X0137126Y0176960D01*
X0136770Y0176865D01*
X0136769Y0176864D01*
X0136510Y0177123D01*
X0136510Y0196752D01*
X0136510Y0196501D02*
X0158006Y0196501D01*
X0157418Y0195703D02*
X0136510Y0195703D01*
X0136510Y0194904D02*
X0157087Y0194904D01*
X0156760Y0194106D02*
X0136510Y0194106D01*
X0136510Y0193307D02*
X0156760Y0193307D01*
X0156760Y0192509D02*
X0136510Y0192509D01*
X0136510Y0191710D02*
X0156882Y0191710D01*
X0157213Y0190912D02*
X0136510Y0190912D01*
X0136510Y0190113D02*
X0157544Y0190113D01*
X0158310Y0189315D02*
X0136510Y0189315D01*
X0136510Y0188516D02*
X0159180Y0188516D01*
X0159455Y0187718D02*
X0136510Y0187718D01*
X0136510Y0186919D02*
X0158424Y0186919D01*
X0157625Y0186121D02*
X0136510Y0186121D01*
X0136510Y0185322D02*
X0157260Y0185322D01*
X0156930Y0184524D02*
X0136510Y0184524D01*
X0136510Y0183725D02*
X0156760Y0183725D01*
X0156760Y0182927D02*
X0136510Y0182927D01*
X0136510Y0182128D02*
X0156760Y0182128D01*
X0157040Y0181330D02*
X0136510Y0181330D01*
X0136510Y0180531D02*
X0157371Y0180531D01*
X0157892Y0179732D02*
X0136510Y0179732D01*
X0136510Y0178934D02*
X0158691Y0178934D01*
X0160099Y0178135D02*
X0136510Y0178135D01*
X0136510Y0177337D02*
X0159270Y0177337D01*
X0158326Y0176538D02*
X0140811Y0176538D01*
X0141210Y0175740D02*
X0157703Y0175740D01*
X0157309Y0174941D02*
X0141210Y0174941D01*
X0141210Y0174143D02*
X0157068Y0174143D01*
X0161660Y0173344D02*
X0141210Y0173344D01*
X0138785Y0175740D02*
X0138335Y0175740D01*
X0138335Y0176538D02*
X0138785Y0176538D01*
X0130110Y0180368D02*
X0128610Y0178868D01*
X0128610Y0177123D01*
X0127710Y0176223D01*
X0127710Y0172860D01*
X0125660Y0172860D01*
X0125660Y0173285D01*
X0126210Y0173285D01*
X0126210Y0175744D01*
X0126115Y0176100D01*
X0125930Y0176420D01*
X0125670Y0176680D01*
X0125350Y0176865D01*
X0124994Y0176960D01*
X0123785Y0176960D01*
X0123785Y0175160D01*
X0123335Y0175160D01*
X0123335Y0176960D01*
X0122126Y0176960D01*
X0121770Y0176865D01*
X0121769Y0176864D01*
X0121510Y0177123D01*
X0121510Y0179752D01*
X0122868Y0181110D01*
X0124555Y0181110D01*
X0125276Y0180390D01*
X0126433Y0179910D01*
X0127687Y0179910D01*
X0128844Y0180390D01*
X0129560Y0181105D01*
X0130110Y0180555D01*
X0130110Y0180368D01*
X0130110Y0180531D02*
X0128986Y0180531D01*
X0129475Y0179732D02*
X0121510Y0179732D01*
X0121510Y0178934D02*
X0128676Y0178934D01*
X0128610Y0178135D02*
X0121510Y0178135D01*
X0121510Y0177337D02*
X0128610Y0177337D01*
X0128026Y0176538D02*
X0125811Y0176538D01*
X0126210Y0175740D02*
X0127710Y0175740D01*
X0127710Y0174941D02*
X0126210Y0174941D01*
X0126210Y0174143D02*
X0127710Y0174143D01*
X0127710Y0173344D02*
X0126210Y0173344D01*
X0123785Y0175740D02*
X0123335Y0175740D01*
X0123335Y0176538D02*
X0123785Y0176538D01*
X0125134Y0180531D02*
X0122289Y0180531D01*
X0138627Y0197300D02*
X0158804Y0197300D01*
X0158728Y0198897D02*
X0139988Y0198897D01*
X0140210Y0199695D02*
X0157929Y0199695D01*
X0157386Y0200494D02*
X0140210Y0200494D01*
X0139553Y0198098D02*
X0160189Y0198098D01*
X0175838Y0188060D02*
X0177062Y0187553D01*
X0178553Y0186062D01*
X0179360Y0184114D01*
X0179360Y0182006D01*
X0178553Y0180058D01*
X0177062Y0178567D01*
X0175547Y0177939D01*
X0176018Y0177786D01*
X0176733Y0177422D01*
X0177382Y0176950D01*
X0177950Y0176382D01*
X0178422Y0175733D01*
X0178786Y0175018D01*
X0179034Y0174254D01*
X0179160Y0173461D01*
X0179160Y0173460D01*
X0174460Y0173460D01*
X0174460Y0172860D01*
X0194710Y0172860D01*
X0194710Y0176223D01*
X0195610Y0177123D01*
X0195610Y0180292D01*
X0194687Y0179910D01*
X0193433Y0179910D01*
X0192276Y0180390D01*
X0191390Y0181276D01*
X0190910Y0182433D01*
X0190910Y0183687D01*
X0191390Y0184844D01*
X0192276Y0185730D01*
X0193433Y0186210D01*
X0194687Y0186210D01*
X0195610Y0185827D01*
X0195610Y0185868D01*
X0198252Y0188510D01*
X0213868Y0188510D01*
X0214610Y0187768D01*
X0214610Y0198368D01*
X0215910Y0199668D01*
X0215910Y0200687D01*
X0216085Y0201110D01*
X0209868Y0201110D01*
X0199868Y0191110D01*
X0178989Y0191110D01*
X0178553Y0190058D01*
X0177062Y0188567D01*
X0175838Y0188060D01*
X0176665Y0187718D02*
X0197460Y0187718D01*
X0196661Y0186919D02*
X0177696Y0186919D01*
X0178495Y0186121D02*
X0193218Y0186121D01*
X0191867Y0185322D02*
X0178860Y0185322D01*
X0179190Y0184524D02*
X0191257Y0184524D01*
X0190926Y0183725D02*
X0179360Y0183725D01*
X0179360Y0182927D02*
X0190910Y0182927D01*
X0191036Y0182128D02*
X0179360Y0182128D01*
X0179080Y0181330D02*
X0191367Y0181330D01*
X0192134Y0180531D02*
X0178749Y0180531D01*
X0178228Y0179732D02*
X0195610Y0179732D01*
X0195610Y0178934D02*
X0177429Y0178934D01*
X0176021Y0178135D02*
X0195610Y0178135D01*
X0195610Y0177337D02*
X0176850Y0177337D01*
X0177794Y0176538D02*
X0195026Y0176538D01*
X0194710Y0175740D02*
X0178417Y0175740D01*
X0178811Y0174941D02*
X0194710Y0174941D01*
X0194710Y0174143D02*
X0179052Y0174143D01*
X0174460Y0173344D02*
X0194710Y0173344D01*
X0203510Y0177123D02*
X0203510Y0179752D01*
X0204868Y0181110D01*
X0206555Y0181110D01*
X0207276Y0180390D01*
X0208433Y0179910D01*
X0209687Y0179910D01*
X0210844Y0180390D01*
X0211560Y0181105D01*
X0212110Y0180555D01*
X0212110Y0180368D01*
X0210610Y0178868D01*
X0210610Y0177123D01*
X0209710Y0176223D01*
X0209710Y0172860D01*
X0207660Y0172860D01*
X0207660Y0173285D01*
X0208210Y0173285D01*
X0208210Y0175744D01*
X0208115Y0176100D01*
X0207930Y0176420D01*
X0207670Y0176680D01*
X0207350Y0176865D01*
X0206994Y0176960D01*
X0205785Y0176960D01*
X0205785Y0175160D01*
X0205335Y0175160D01*
X0205335Y0176960D01*
X0204126Y0176960D01*
X0203770Y0176865D01*
X0203769Y0176864D01*
X0203510Y0177123D01*
X0203510Y0177337D02*
X0210610Y0177337D01*
X0210610Y0178135D02*
X0203510Y0178135D01*
X0203510Y0178934D02*
X0210676Y0178934D01*
X0211475Y0179732D02*
X0203510Y0179732D01*
X0204289Y0180531D02*
X0207134Y0180531D01*
X0210986Y0180531D02*
X0212110Y0180531D01*
X0210026Y0176538D02*
X0207811Y0176538D01*
X0208210Y0175740D02*
X0209710Y0175740D01*
X0209710Y0174941D02*
X0208210Y0174941D01*
X0208210Y0174143D02*
X0209710Y0174143D01*
X0209710Y0173344D02*
X0208210Y0173344D01*
X0205785Y0175740D02*
X0205335Y0175740D01*
X0205335Y0176538D02*
X0205785Y0176538D01*
X0195863Y0186121D02*
X0194902Y0186121D01*
X0200468Y0191710D02*
X0214610Y0191710D01*
X0214610Y0190912D02*
X0178907Y0190912D01*
X0178576Y0190113D02*
X0214610Y0190113D01*
X0214610Y0189315D02*
X0177810Y0189315D01*
X0176940Y0188516D02*
X0214610Y0188516D01*
X0218510Y0188516D02*
X0241180Y0188516D01*
X0241058Y0188567D02*
X0242282Y0188060D01*
X0241058Y0187553D01*
X0239567Y0186062D01*
X0238760Y0184114D01*
X0238760Y0182006D01*
X0239567Y0180058D01*
X0241058Y0178567D01*
X0242573Y0177939D01*
X0242102Y0177786D01*
X0241387Y0177422D01*
X0240738Y0176950D01*
X0240170Y0176382D01*
X0239698Y0175733D01*
X0239334Y0175018D01*
X0239086Y0174254D01*
X0238960Y0173461D01*
X0238960Y0173460D01*
X0243660Y0173460D01*
X0243660Y0172860D01*
X0222660Y0172860D01*
X0222660Y0173285D01*
X0223210Y0173285D01*
X0223210Y0175744D01*
X0223115Y0176100D01*
X0222930Y0176420D01*
X0222670Y0176680D01*
X0222350Y0176865D01*
X0221994Y0176960D01*
X0220785Y0176960D01*
X0220785Y0175160D01*
X0220335Y0175160D01*
X0220335Y0176960D01*
X0219126Y0176960D01*
X0218770Y0176865D01*
X0218769Y0176864D01*
X0218510Y0177123D01*
X0218510Y0196752D01*
X0218668Y0196910D01*
X0219687Y0196910D01*
X0220844Y0197390D01*
X0221730Y0198276D01*
X0222210Y0199433D01*
X0222210Y0200687D01*
X0222035Y0201110D01*
X0239131Y0201110D01*
X0239567Y0200058D01*
X0241058Y0198567D01*
X0242282Y0198060D01*
X0241058Y0197553D01*
X0239567Y0196062D01*
X0238760Y0194114D01*
X0238760Y0192006D01*
X0239567Y0190058D01*
X0241058Y0188567D01*
X0241455Y0187718D02*
X0218510Y0187718D01*
X0218510Y0186919D02*
X0240424Y0186919D01*
X0239625Y0186121D02*
X0218510Y0186121D01*
X0218510Y0185322D02*
X0239260Y0185322D01*
X0238930Y0184524D02*
X0218510Y0184524D01*
X0218510Y0183725D02*
X0238760Y0183725D01*
X0238760Y0182927D02*
X0218510Y0182927D01*
X0218510Y0182128D02*
X0238760Y0182128D01*
X0239040Y0181330D02*
X0218510Y0181330D01*
X0218510Y0180531D02*
X0239371Y0180531D01*
X0239892Y0179732D02*
X0218510Y0179732D01*
X0218510Y0178934D02*
X0240691Y0178934D01*
X0242099Y0178135D02*
X0218510Y0178135D01*
X0218510Y0177337D02*
X0241270Y0177337D01*
X0240326Y0176538D02*
X0222811Y0176538D01*
X0223210Y0175740D02*
X0239703Y0175740D01*
X0239309Y0174941D02*
X0223210Y0174941D01*
X0223210Y0174143D02*
X0239068Y0174143D01*
X0243660Y0173344D02*
X0223210Y0173344D01*
X0220785Y0175740D02*
X0220335Y0175740D01*
X0220335Y0176538D02*
X0220785Y0176538D01*
X0218510Y0189315D02*
X0240310Y0189315D01*
X0239544Y0190113D02*
X0218510Y0190113D01*
X0218510Y0190912D02*
X0239213Y0190912D01*
X0238882Y0191710D02*
X0218510Y0191710D01*
X0218510Y0192509D02*
X0238760Y0192509D01*
X0238760Y0193307D02*
X0218510Y0193307D01*
X0218510Y0194106D02*
X0238760Y0194106D01*
X0239087Y0194904D02*
X0218510Y0194904D01*
X0218510Y0195703D02*
X0239418Y0195703D01*
X0240006Y0196501D02*
X0218510Y0196501D01*
X0220627Y0197300D02*
X0240804Y0197300D01*
X0240728Y0198897D02*
X0221988Y0198897D01*
X0222210Y0199695D02*
X0239929Y0199695D01*
X0239386Y0200494D02*
X0222210Y0200494D01*
X0221553Y0198098D02*
X0242189Y0198098D01*
X0215910Y0199695D02*
X0208453Y0199695D01*
X0207654Y0198897D02*
X0215139Y0198897D01*
X0214610Y0198098D02*
X0206856Y0198098D01*
X0206057Y0197300D02*
X0214610Y0197300D01*
X0214610Y0196501D02*
X0205259Y0196501D01*
X0204460Y0195703D02*
X0214610Y0195703D01*
X0214610Y0194904D02*
X0203662Y0194904D01*
X0202863Y0194106D02*
X0214610Y0194106D01*
X0214610Y0193307D02*
X0202065Y0193307D01*
X0201266Y0192509D02*
X0214610Y0192509D01*
X0215910Y0200494D02*
X0209251Y0200494D01*
X0210060Y0228060D02*
X0213060Y0228060D01*
X0208060Y0228060D02*
X0205060Y0228060D01*
X0131060Y0228060D02*
X0128060Y0228060D01*
X0126060Y0228060D02*
X0123060Y0228060D01*
X0056785Y0176538D02*
X0056335Y0176538D01*
X0056335Y0175740D02*
X0056785Y0175740D01*
X0049060Y0146060D02*
X0046060Y0146060D01*
X0044060Y0146060D02*
X0041060Y0146060D01*
X0045868Y0119110D02*
X0052085Y0119110D01*
X0051910Y0118687D01*
X0051910Y0117668D01*
X0050610Y0116368D01*
X0050610Y0105768D01*
X0049868Y0106510D01*
X0034252Y0106510D01*
X0031610Y0103868D01*
X0031610Y0103827D01*
X0030687Y0104210D01*
X0029433Y0104210D01*
X0028276Y0103730D01*
X0027390Y0102844D01*
X0026910Y0101687D01*
X0026910Y0100433D01*
X0027390Y0099276D01*
X0028276Y0098390D01*
X0029433Y0097910D01*
X0030687Y0097910D01*
X0031610Y0098292D01*
X0031610Y0095123D01*
X0030710Y0094223D01*
X0030710Y0090860D01*
X0010460Y0090860D01*
X0010460Y0091460D01*
X0015160Y0091460D01*
X0015160Y0091461D01*
X0015034Y0092254D01*
X0014786Y0093018D01*
X0014422Y0093733D01*
X0013950Y0094382D01*
X0013382Y0094950D01*
X0012733Y0095422D01*
X0012018Y0095786D01*
X0011547Y0095939D01*
X0013062Y0096567D01*
X0014553Y0098058D01*
X0015360Y0100006D01*
X0015360Y0102114D01*
X0014553Y0104062D01*
X0013062Y0105553D01*
X0011838Y0106060D01*
X0013062Y0106567D01*
X0014553Y0108058D01*
X0014989Y0109110D01*
X0035868Y0109110D01*
X0045868Y0119110D01*
X0045803Y0119046D02*
X0052059Y0119046D01*
X0051910Y0118247D02*
X0045005Y0118247D01*
X0044206Y0117449D02*
X0051691Y0117449D01*
X0050892Y0116650D02*
X0043408Y0116650D01*
X0042609Y0115852D02*
X0050610Y0115852D01*
X0050610Y0115053D02*
X0041811Y0115053D01*
X0041012Y0114255D02*
X0050610Y0114255D01*
X0050610Y0113456D02*
X0040214Y0113456D01*
X0039415Y0112658D02*
X0050610Y0112658D01*
X0050610Y0111859D02*
X0038617Y0111859D01*
X0037818Y0111061D02*
X0050610Y0111061D01*
X0050610Y0110262D02*
X0037020Y0110262D01*
X0036221Y0109463D02*
X0050610Y0109463D01*
X0050610Y0108665D02*
X0014805Y0108665D01*
X0014362Y0107866D02*
X0050610Y0107866D01*
X0050610Y0107068D02*
X0013563Y0107068D01*
X0012344Y0106269D02*
X0034012Y0106269D01*
X0033213Y0105471D02*
X0013144Y0105471D01*
X0013943Y0104672D02*
X0032415Y0104672D01*
X0031616Y0103874D02*
X0031498Y0103874D01*
X0028622Y0103874D02*
X0014631Y0103874D01*
X0014962Y0103075D02*
X0027621Y0103075D01*
X0027155Y0102277D02*
X0015293Y0102277D01*
X0015360Y0101478D02*
X0026910Y0101478D01*
X0026910Y0100680D02*
X0015360Y0100680D01*
X0015308Y0099881D02*
X0027139Y0099881D01*
X0027582Y0099083D02*
X0014978Y0099083D01*
X0014647Y0098284D02*
X0028530Y0098284D01*
X0031590Y0098284D02*
X0031610Y0098284D01*
X0031610Y0097486D02*
X0013981Y0097486D01*
X0013183Y0096687D02*
X0031610Y0096687D01*
X0031610Y0095889D02*
X0011702Y0095889D01*
X0013189Y0095090D02*
X0031578Y0095090D01*
X0030779Y0094292D02*
X0014016Y0094292D01*
X0014544Y0093493D02*
X0030710Y0093493D01*
X0030710Y0092695D02*
X0014891Y0092695D01*
X0015091Y0091896D02*
X0030710Y0091896D01*
X0030710Y0091098D02*
X0010460Y0091098D01*
X0039510Y0095123D02*
X0039769Y0094864D01*
X0039770Y0094865D01*
X0040126Y0094960D01*
X0041335Y0094960D01*
X0041335Y0093160D01*
X0041785Y0093160D01*
X0041785Y0094960D01*
X0042994Y0094960D01*
X0043350Y0094865D01*
X0043670Y0094680D01*
X0043930Y0094420D01*
X0044115Y0094100D01*
X0044210Y0093744D01*
X0044210Y0091285D01*
X0043660Y0091285D01*
X0043660Y0090860D01*
X0045710Y0090860D01*
X0045710Y0094223D01*
X0046610Y0095123D01*
X0046610Y0096868D01*
X0048110Y0098368D01*
X0048110Y0098555D01*
X0047560Y0099105D01*
X0046844Y0098390D01*
X0045687Y0097910D01*
X0044433Y0097910D01*
X0043276Y0098390D01*
X0042555Y0099110D01*
X0040868Y0099110D01*
X0039510Y0097752D01*
X0039510Y0095123D01*
X0039542Y0095090D02*
X0046578Y0095090D01*
X0046610Y0095889D02*
X0039510Y0095889D01*
X0039510Y0096687D02*
X0046610Y0096687D01*
X0047228Y0097486D02*
X0039510Y0097486D01*
X0040042Y0098284D02*
X0043530Y0098284D01*
X0042582Y0099083D02*
X0040841Y0099083D01*
X0041335Y0094292D02*
X0041785Y0094292D01*
X0041785Y0093493D02*
X0041335Y0093493D01*
X0044004Y0094292D02*
X0045779Y0094292D01*
X0045710Y0093493D02*
X0044210Y0093493D01*
X0044210Y0092695D02*
X0045710Y0092695D01*
X0045710Y0091896D02*
X0044210Y0091896D01*
X0043660Y0091098D02*
X0045710Y0091098D01*
X0046590Y0098284D02*
X0048027Y0098284D01*
X0047582Y0099083D02*
X0047538Y0099083D01*
X0054510Y0099083D02*
X0075142Y0099083D01*
X0074812Y0099881D02*
X0054510Y0099881D01*
X0054510Y0100680D02*
X0074760Y0100680D01*
X0074760Y0100006D02*
X0074760Y0102114D01*
X0075567Y0104062D01*
X0077058Y0105553D01*
X0078282Y0106060D01*
X0077058Y0106567D01*
X0075567Y0108058D01*
X0074760Y0110006D01*
X0074760Y0112114D01*
X0075567Y0114062D01*
X0077058Y0115553D01*
X0078282Y0116060D01*
X0077058Y0116567D01*
X0075567Y0118058D01*
X0075131Y0119110D01*
X0058035Y0119110D01*
X0058210Y0118687D01*
X0058210Y0117433D01*
X0057730Y0116276D01*
X0056844Y0115390D01*
X0055687Y0114910D01*
X0054668Y0114910D01*
X0054510Y0114752D01*
X0054510Y0095123D01*
X0054769Y0094864D01*
X0054770Y0094865D01*
X0055126Y0094960D01*
X0056335Y0094960D01*
X0056335Y0093160D01*
X0056785Y0093160D01*
X0056785Y0094960D01*
X0057994Y0094960D01*
X0058350Y0094865D01*
X0058670Y0094680D01*
X0058930Y0094420D01*
X0059115Y0094100D01*
X0059210Y0093744D01*
X0059210Y0091285D01*
X0058660Y0091285D01*
X0058660Y0090860D01*
X0079660Y0090860D01*
X0079660Y0091460D01*
X0074960Y0091460D01*
X0074960Y0091461D01*
X0075086Y0092254D01*
X0075334Y0093018D01*
X0075698Y0093733D01*
X0076170Y0094382D01*
X0076738Y0094950D01*
X0077387Y0095422D01*
X0078102Y0095786D01*
X0078573Y0095939D01*
X0077058Y0096567D01*
X0075567Y0098058D01*
X0074760Y0100006D01*
X0074760Y0101478D02*
X0054510Y0101478D01*
X0054510Y0102277D02*
X0074827Y0102277D01*
X0075158Y0103075D02*
X0054510Y0103075D01*
X0054510Y0103874D02*
X0075489Y0103874D01*
X0076177Y0104672D02*
X0054510Y0104672D01*
X0054510Y0105471D02*
X0076976Y0105471D01*
X0077776Y0106269D02*
X0054510Y0106269D01*
X0054510Y0107068D02*
X0076557Y0107068D01*
X0075758Y0107866D02*
X0054510Y0107866D01*
X0054510Y0108665D02*
X0075315Y0108665D01*
X0074985Y0109463D02*
X0054510Y0109463D01*
X0054510Y0110262D02*
X0074760Y0110262D01*
X0074760Y0111061D02*
X0054510Y0111061D01*
X0054510Y0111859D02*
X0074760Y0111859D01*
X0074985Y0112658D02*
X0054510Y0112658D01*
X0054510Y0113456D02*
X0075316Y0113456D01*
X0075759Y0114255D02*
X0054510Y0114255D01*
X0056032Y0115053D02*
X0076558Y0115053D01*
X0077778Y0115852D02*
X0057306Y0115852D01*
X0057886Y0116650D02*
X0076975Y0116650D01*
X0076176Y0117449D02*
X0058210Y0117449D01*
X0058210Y0118247D02*
X0075488Y0118247D01*
X0075158Y0119046D02*
X0058061Y0119046D01*
X0050610Y0106269D02*
X0050108Y0106269D01*
X0054510Y0098284D02*
X0075473Y0098284D01*
X0076139Y0097486D02*
X0054510Y0097486D01*
X0054510Y0096687D02*
X0076937Y0096687D01*
X0076931Y0095090D02*
X0054542Y0095090D01*
X0054510Y0095889D02*
X0078418Y0095889D01*
X0076104Y0094292D02*
X0059004Y0094292D01*
X0059210Y0093493D02*
X0075576Y0093493D01*
X0075229Y0092695D02*
X0059210Y0092695D01*
X0059210Y0091896D02*
X0075029Y0091896D01*
X0079660Y0091098D02*
X0058660Y0091098D01*
X0056785Y0093493D02*
X0056335Y0093493D01*
X0056335Y0094292D02*
X0056785Y0094292D01*
X0049060Y0064060D02*
X0046060Y0064060D01*
X0044060Y0064060D02*
X0041060Y0064060D01*
X0045868Y0037110D02*
X0052085Y0037110D01*
X0051910Y0036687D01*
X0051910Y0035668D01*
X0050610Y0034368D01*
X0050610Y0023768D01*
X0049868Y0024510D01*
X0034252Y0024510D01*
X0032752Y0023010D01*
X0031610Y0021868D01*
X0031610Y0021827D01*
X0030687Y0022210D01*
X0029433Y0022210D01*
X0028276Y0021730D01*
X0027390Y0020844D01*
X0026910Y0019687D01*
X0026910Y0018433D01*
X0015360Y0018433D01*
X0015360Y0018006D02*
X0015360Y0020114D01*
X0014553Y0022062D01*
X0013062Y0023553D01*
X0011838Y0024060D01*
X0013062Y0024567D01*
X0014553Y0026058D01*
X0014989Y0027110D01*
X0035868Y0027110D01*
X0045868Y0037110D01*
X0045557Y0036799D02*
X0051957Y0036799D01*
X0051910Y0036000D02*
X0044758Y0036000D01*
X0043960Y0035202D02*
X0051444Y0035202D01*
X0050646Y0034403D02*
X0043161Y0034403D01*
X0042363Y0033605D02*
X0050610Y0033605D01*
X0050610Y0032806D02*
X0041564Y0032806D01*
X0040766Y0032008D02*
X0050610Y0032008D01*
X0050610Y0031209D02*
X0039967Y0031209D01*
X0039169Y0030411D02*
X0050610Y0030411D01*
X0050610Y0029612D02*
X0038370Y0029612D01*
X0037572Y0028814D02*
X0050610Y0028814D01*
X0050610Y0028015D02*
X0036773Y0028015D01*
X0035975Y0027217D02*
X0050610Y0027217D01*
X0050610Y0026418D02*
X0014702Y0026418D01*
X0014115Y0025620D02*
X0050610Y0025620D01*
X0050610Y0024821D02*
X0013317Y0024821D01*
X0013391Y0023224D02*
X0032967Y0023224D01*
X0032752Y0023010D02*
X0032752Y0023010D01*
X0032168Y0022426D02*
X0014190Y0022426D01*
X0014733Y0021627D02*
X0028172Y0021627D01*
X0027383Y0020829D02*
X0015064Y0020829D01*
X0015360Y0020030D02*
X0027052Y0020030D01*
X0026910Y0019232D02*
X0015360Y0019232D01*
X0015360Y0018006D02*
X0014553Y0016058D01*
X0013062Y0014567D01*
X0011547Y0013939D01*
X0012018Y0013786D01*
X0012733Y0013422D01*
X0013382Y0012950D01*
X0013950Y0012382D01*
X0014422Y0011733D01*
X0014786Y0011018D01*
X0015034Y0010254D01*
X0015160Y0009461D01*
X0015160Y0009460D01*
X0010460Y0009460D01*
X0010460Y0008860D01*
X0030710Y0008860D01*
X0030710Y0012223D01*
X0031610Y0013123D01*
X0031610Y0016292D01*
X0030687Y0015910D01*
X0029433Y0015910D01*
X0028276Y0016390D01*
X0027390Y0017276D01*
X0026910Y0018433D01*
X0027241Y0017635D02*
X0015206Y0017635D01*
X0014876Y0016836D02*
X0027829Y0016836D01*
X0029125Y0016038D02*
X0014533Y0016038D01*
X0013734Y0015239D02*
X0031610Y0015239D01*
X0031610Y0014441D02*
X0012757Y0014441D01*
X0012301Y0013642D02*
X0031610Y0013642D01*
X0031331Y0012844D02*
X0013489Y0012844D01*
X0014195Y0012045D02*
X0030710Y0012045D01*
X0030710Y0011247D02*
X0014670Y0011247D01*
X0014971Y0010448D02*
X0030710Y0010448D01*
X0030710Y0009650D02*
X0015130Y0009650D01*
X0011928Y0024023D02*
X0033765Y0024023D01*
X0031610Y0016038D02*
X0030995Y0016038D01*
X0039510Y0015752D02*
X0039510Y0013123D01*
X0039769Y0012864D01*
X0039770Y0012865D01*
X0040126Y0012960D01*
X0041335Y0012960D01*
X0041335Y0011160D01*
X0041785Y0011160D01*
X0041785Y0012960D01*
X0042994Y0012960D01*
X0043350Y0012865D01*
X0043670Y0012680D01*
X0043930Y0012420D01*
X0044115Y0012100D01*
X0044210Y0011744D01*
X0044210Y0009285D01*
X0043660Y0009285D01*
X0043660Y0008860D01*
X0045710Y0008860D01*
X0045710Y0012223D01*
X0046610Y0013123D01*
X0046610Y0014868D01*
X0048110Y0016368D01*
X0048110Y0016555D01*
X0047560Y0017105D01*
X0046844Y0016390D01*
X0045687Y0015910D01*
X0044433Y0015910D01*
X0043276Y0016390D01*
X0042555Y0017110D01*
X0040868Y0017110D01*
X0039510Y0015752D01*
X0039795Y0016038D02*
X0044125Y0016038D01*
X0042829Y0016836D02*
X0040594Y0016836D01*
X0039510Y0015239D02*
X0046981Y0015239D01*
X0046610Y0014441D02*
X0039510Y0014441D01*
X0039510Y0013642D02*
X0046610Y0013642D01*
X0046331Y0012844D02*
X0043387Y0012844D01*
X0044129Y0012045D02*
X0045710Y0012045D01*
X0045710Y0011247D02*
X0044210Y0011247D01*
X0044210Y0010448D02*
X0045710Y0010448D01*
X0045710Y0009650D02*
X0044210Y0009650D01*
X0041785Y0011247D02*
X0041335Y0011247D01*
X0041335Y0012045D02*
X0041785Y0012045D01*
X0041785Y0012844D02*
X0041335Y0012844D01*
X0045995Y0016038D02*
X0047780Y0016038D01*
X0047829Y0016836D02*
X0047291Y0016836D01*
X0054510Y0016836D02*
X0075244Y0016836D01*
X0075567Y0016058D02*
X0077058Y0014567D01*
X0078573Y0013939D01*
X0078102Y0013786D01*
X0077387Y0013422D01*
X0076738Y0012950D01*
X0076170Y0012382D01*
X0075698Y0011733D01*
X0075334Y0011018D01*
X0075086Y0010254D01*
X0074960Y0009461D01*
X0074960Y0009460D01*
X0079660Y0009460D01*
X0079660Y0008860D01*
X0058660Y0008860D01*
X0058660Y0009285D01*
X0059210Y0009285D01*
X0059210Y0011744D01*
X0059115Y0012100D01*
X0058930Y0012420D01*
X0058670Y0012680D01*
X0058350Y0012865D01*
X0057994Y0012960D01*
X0056785Y0012960D01*
X0056785Y0011160D01*
X0056335Y0011160D01*
X0056335Y0012960D01*
X0055126Y0012960D01*
X0054770Y0012865D01*
X0054769Y0012864D01*
X0054510Y0013123D01*
X0054510Y0032752D01*
X0054668Y0032910D01*
X0055687Y0032910D01*
X0056844Y0033390D01*
X0057730Y0034276D01*
X0058210Y0035433D01*
X0058210Y0036687D01*
X0058035Y0037110D01*
X0075131Y0037110D01*
X0075567Y0036058D01*
X0077058Y0034567D01*
X0078282Y0034060D01*
X0077058Y0033553D01*
X0075567Y0032062D01*
X0074760Y0030114D01*
X0074760Y0028006D01*
X0075567Y0026058D01*
X0077058Y0024567D01*
X0078282Y0024060D01*
X0077058Y0023553D01*
X0075567Y0022062D01*
X0074760Y0020114D01*
X0074760Y0018006D01*
X0075567Y0016058D01*
X0075587Y0016038D02*
X0054510Y0016038D01*
X0054510Y0015239D02*
X0076385Y0015239D01*
X0077363Y0014441D02*
X0054510Y0014441D01*
X0054510Y0013642D02*
X0077819Y0013642D01*
X0076631Y0012844D02*
X0058387Y0012844D01*
X0059129Y0012045D02*
X0075925Y0012045D01*
X0075450Y0011247D02*
X0059210Y0011247D01*
X0059210Y0010448D02*
X0075149Y0010448D01*
X0074990Y0009650D02*
X0059210Y0009650D01*
X0056785Y0011247D02*
X0056335Y0011247D01*
X0056335Y0012045D02*
X0056785Y0012045D01*
X0056785Y0012844D02*
X0056335Y0012844D01*
X0054510Y0017635D02*
X0074914Y0017635D01*
X0074760Y0018433D02*
X0054510Y0018433D01*
X0054510Y0019232D02*
X0074760Y0019232D01*
X0074760Y0020030D02*
X0054510Y0020030D01*
X0054510Y0020829D02*
X0075056Y0020829D01*
X0075387Y0021627D02*
X0054510Y0021627D01*
X0054510Y0022426D02*
X0075930Y0022426D01*
X0076729Y0023224D02*
X0054510Y0023224D01*
X0054510Y0024023D02*
X0078192Y0024023D01*
X0076803Y0024821D02*
X0054510Y0024821D01*
X0054510Y0025620D02*
X0076005Y0025620D01*
X0075418Y0026418D02*
X0054510Y0026418D01*
X0054510Y0027217D02*
X0075087Y0027217D01*
X0074760Y0028015D02*
X0054510Y0028015D01*
X0054510Y0028814D02*
X0074760Y0028814D01*
X0074760Y0029612D02*
X0054510Y0029612D01*
X0054510Y0030411D02*
X0074883Y0030411D01*
X0075214Y0031209D02*
X0054510Y0031209D01*
X0054510Y0032008D02*
X0075544Y0032008D01*
X0076311Y0032806D02*
X0054564Y0032806D01*
X0057060Y0033605D02*
X0077183Y0033605D01*
X0077452Y0034403D02*
X0057783Y0034403D01*
X0058114Y0035202D02*
X0076423Y0035202D01*
X0075624Y0036000D02*
X0058210Y0036000D01*
X0058163Y0036799D02*
X0075260Y0036799D01*
X0093838Y0024060D02*
X0095062Y0024567D01*
X0096553Y0026058D01*
X0096989Y0027110D01*
X0117868Y0027110D01*
X0127868Y0037110D01*
X0134085Y0037110D01*
X0133910Y0036687D01*
X0133910Y0035668D01*
X0132610Y0034368D01*
X0132610Y0023768D01*
X0131868Y0024510D01*
X0116252Y0024510D01*
X0113610Y0021868D01*
X0113610Y0021827D01*
X0112687Y0022210D01*
X0111433Y0022210D01*
X0110276Y0021730D01*
X0109390Y0020844D01*
X0108910Y0019687D01*
X0108910Y0018433D01*
X0097360Y0018433D01*
X0097360Y0018006D02*
X0097360Y0020114D01*
X0096553Y0022062D01*
X0095062Y0023553D01*
X0093838Y0024060D01*
X0093928Y0024023D02*
X0115765Y0024023D01*
X0114967Y0023224D02*
X0095391Y0023224D01*
X0096190Y0022426D02*
X0114168Y0022426D01*
X0110172Y0021627D02*
X0096733Y0021627D01*
X0097064Y0020829D02*
X0109383Y0020829D01*
X0109052Y0020030D02*
X0097360Y0020030D01*
X0097360Y0019232D02*
X0108910Y0019232D01*
X0108910Y0018433D02*
X0109390Y0017276D01*
X0110276Y0016390D01*
X0111433Y0015910D01*
X0112687Y0015910D01*
X0113610Y0016292D01*
X0113610Y0013123D01*
X0112710Y0012223D01*
X0112710Y0008860D01*
X0092460Y0008860D01*
X0092460Y0009460D01*
X0097160Y0009460D01*
X0097160Y0009461D01*
X0097034Y0010254D01*
X0096786Y0011018D01*
X0096422Y0011733D01*
X0095950Y0012382D01*
X0095382Y0012950D01*
X0094733Y0013422D01*
X0094018Y0013786D01*
X0093547Y0013939D01*
X0095062Y0014567D01*
X0096553Y0016058D01*
X0097360Y0018006D01*
X0097206Y0017635D02*
X0109241Y0017635D01*
X0109829Y0016836D02*
X0096876Y0016836D01*
X0096533Y0016038D02*
X0111125Y0016038D01*
X0112995Y0016038D02*
X0113610Y0016038D01*
X0113610Y0015239D02*
X0095734Y0015239D01*
X0094757Y0014441D02*
X0113610Y0014441D01*
X0113610Y0013642D02*
X0094301Y0013642D01*
X0095489Y0012844D02*
X0113331Y0012844D01*
X0112710Y0012045D02*
X0096195Y0012045D01*
X0096670Y0011247D02*
X0112710Y0011247D01*
X0112710Y0010448D02*
X0096971Y0010448D01*
X0097130Y0009650D02*
X0112710Y0009650D01*
X0121510Y0013123D02*
X0121510Y0015752D01*
X0122868Y0017110D01*
X0124555Y0017110D01*
X0125276Y0016390D01*
X0126433Y0015910D01*
X0127687Y0015910D01*
X0128844Y0016390D01*
X0129560Y0017105D01*
X0130110Y0016555D01*
X0130110Y0016368D01*
X0128610Y0014868D01*
X0128610Y0013123D01*
X0127710Y0012223D01*
X0127710Y0008860D01*
X0125660Y0008860D01*
X0125660Y0009285D01*
X0126210Y0009285D01*
X0126210Y0011744D01*
X0126115Y0012100D01*
X0125930Y0012420D01*
X0125670Y0012680D01*
X0125350Y0012865D01*
X0124994Y0012960D01*
X0123785Y0012960D01*
X0123785Y0011160D01*
X0123335Y0011160D01*
X0123335Y0012960D01*
X0122126Y0012960D01*
X0121770Y0012865D01*
X0121769Y0012864D01*
X0121510Y0013123D01*
X0121510Y0013642D02*
X0128610Y0013642D01*
X0128610Y0014441D02*
X0121510Y0014441D01*
X0121510Y0015239D02*
X0128981Y0015239D01*
X0129780Y0016038D02*
X0127995Y0016038D01*
X0129291Y0016836D02*
X0129829Y0016836D01*
X0126125Y0016038D02*
X0121795Y0016038D01*
X0122594Y0016836D02*
X0124829Y0016836D01*
X0125387Y0012844D02*
X0128331Y0012844D01*
X0127710Y0012045D02*
X0126129Y0012045D01*
X0126210Y0011247D02*
X0127710Y0011247D01*
X0127710Y0010448D02*
X0126210Y0010448D01*
X0126210Y0009650D02*
X0127710Y0009650D01*
X0123785Y0011247D02*
X0123335Y0011247D01*
X0123335Y0012045D02*
X0123785Y0012045D01*
X0123785Y0012844D02*
X0123335Y0012844D01*
X0132355Y0024023D02*
X0132610Y0024023D01*
X0132610Y0024821D02*
X0095317Y0024821D01*
X0096115Y0025620D02*
X0132610Y0025620D01*
X0132610Y0026418D02*
X0096702Y0026418D01*
X0117975Y0027217D02*
X0132610Y0027217D01*
X0132610Y0028015D02*
X0118773Y0028015D01*
X0119572Y0028814D02*
X0132610Y0028814D01*
X0132610Y0029612D02*
X0120370Y0029612D01*
X0121169Y0030411D02*
X0132610Y0030411D01*
X0132610Y0031209D02*
X0121967Y0031209D01*
X0122766Y0032008D02*
X0132610Y0032008D01*
X0132610Y0032806D02*
X0123564Y0032806D01*
X0124363Y0033605D02*
X0132610Y0033605D01*
X0132646Y0034403D02*
X0125161Y0034403D01*
X0125960Y0035202D02*
X0133444Y0035202D01*
X0133910Y0036000D02*
X0126758Y0036000D01*
X0127557Y0036799D02*
X0133957Y0036799D01*
X0136668Y0032910D02*
X0137687Y0032910D01*
X0138844Y0033390D01*
X0139730Y0034276D01*
X0140210Y0035433D01*
X0140210Y0036687D01*
X0140035Y0037110D01*
X0157131Y0037110D01*
X0157567Y0036058D01*
X0159058Y0034567D01*
X0160282Y0034060D01*
X0159058Y0033553D01*
X0157567Y0032062D01*
X0156760Y0030114D01*
X0156760Y0028006D01*
X0157567Y0026058D01*
X0159058Y0024567D01*
X0160282Y0024060D01*
X0159058Y0023553D01*
X0157567Y0022062D01*
X0156760Y0020114D01*
X0156760Y0018006D01*
X0157567Y0016058D01*
X0159058Y0014567D01*
X0160573Y0013939D01*
X0160102Y0013786D01*
X0159387Y0013422D01*
X0158738Y0012950D01*
X0158170Y0012382D01*
X0157698Y0011733D01*
X0157334Y0011018D01*
X0157086Y0010254D01*
X0156960Y0009461D01*
X0156960Y0009460D01*
X0161660Y0009460D01*
X0161660Y0008860D01*
X0140660Y0008860D01*
X0140660Y0009285D01*
X0141210Y0009285D01*
X0141210Y0011744D01*
X0141115Y0012100D01*
X0140930Y0012420D01*
X0140670Y0012680D01*
X0140350Y0012865D01*
X0139994Y0012960D01*
X0138785Y0012960D01*
X0138785Y0011160D01*
X0138335Y0011160D01*
X0138335Y0012960D01*
X0137126Y0012960D01*
X0136770Y0012865D01*
X0136769Y0012864D01*
X0136510Y0013123D01*
X0136510Y0032752D01*
X0136668Y0032910D01*
X0136564Y0032806D02*
X0158311Y0032806D01*
X0157544Y0032008D02*
X0136510Y0032008D01*
X0136510Y0031209D02*
X0157214Y0031209D01*
X0156883Y0030411D02*
X0136510Y0030411D01*
X0136510Y0029612D02*
X0156760Y0029612D01*
X0156760Y0028814D02*
X0136510Y0028814D01*
X0136510Y0028015D02*
X0156760Y0028015D01*
X0157087Y0027217D02*
X0136510Y0027217D01*
X0136510Y0026418D02*
X0157418Y0026418D01*
X0158005Y0025620D02*
X0136510Y0025620D01*
X0136510Y0024821D02*
X0158803Y0024821D01*
X0158729Y0023224D02*
X0136510Y0023224D01*
X0136510Y0022426D02*
X0157930Y0022426D01*
X0157387Y0021627D02*
X0136510Y0021627D01*
X0136510Y0020829D02*
X0157056Y0020829D01*
X0156760Y0020030D02*
X0136510Y0020030D01*
X0136510Y0019232D02*
X0156760Y0019232D01*
X0156760Y0018433D02*
X0136510Y0018433D01*
X0136510Y0017635D02*
X0156914Y0017635D01*
X0157244Y0016836D02*
X0136510Y0016836D01*
X0136510Y0016038D02*
X0157587Y0016038D01*
X0158385Y0015239D02*
X0136510Y0015239D01*
X0136510Y0014441D02*
X0159363Y0014441D01*
X0159819Y0013642D02*
X0136510Y0013642D01*
X0138335Y0012844D02*
X0138785Y0012844D01*
X0138785Y0012045D02*
X0138335Y0012045D01*
X0138335Y0011247D02*
X0138785Y0011247D01*
X0140387Y0012844D02*
X0158631Y0012844D01*
X0157925Y0012045D02*
X0141129Y0012045D01*
X0141210Y0011247D02*
X0157450Y0011247D01*
X0157149Y0010448D02*
X0141210Y0010448D01*
X0141210Y0009650D02*
X0156990Y0009650D01*
X0160192Y0024023D02*
X0136510Y0024023D01*
X0139060Y0033605D02*
X0159183Y0033605D01*
X0159452Y0034403D02*
X0139783Y0034403D01*
X0140114Y0035202D02*
X0158423Y0035202D01*
X0157624Y0036000D02*
X0140210Y0036000D01*
X0140163Y0036799D02*
X0157260Y0036799D01*
X0175838Y0024060D02*
X0177062Y0024567D01*
X0178553Y0026058D01*
X0178989Y0027110D01*
X0199868Y0027110D01*
X0209868Y0037110D01*
X0216085Y0037110D01*
X0215910Y0036687D01*
X0215910Y0035668D01*
X0214610Y0034368D01*
X0214610Y0023768D01*
X0213868Y0024510D01*
X0198252Y0024510D01*
X0195610Y0021868D01*
X0195610Y0021827D01*
X0194687Y0022210D01*
X0193433Y0022210D01*
X0192276Y0021730D01*
X0191390Y0020844D01*
X0190910Y0019687D01*
X0190910Y0018433D01*
X0179360Y0018433D01*
X0179360Y0018006D02*
X0179360Y0020114D01*
X0178553Y0022062D01*
X0177062Y0023553D01*
X0175838Y0024060D01*
X0175928Y0024023D02*
X0197765Y0024023D01*
X0196967Y0023224D02*
X0177391Y0023224D01*
X0178190Y0022426D02*
X0196168Y0022426D01*
X0192172Y0021627D02*
X0178733Y0021627D01*
X0179064Y0020829D02*
X0191383Y0020829D01*
X0191052Y0020030D02*
X0179360Y0020030D01*
X0179360Y0019232D02*
X0190910Y0019232D01*
X0190910Y0018433D02*
X0191390Y0017276D01*
X0192276Y0016390D01*
X0193433Y0015910D01*
X0194687Y0015910D01*
X0195610Y0016292D01*
X0195610Y0013123D01*
X0194710Y0012223D01*
X0194710Y0008860D01*
X0174460Y0008860D01*
X0174460Y0009460D01*
X0179160Y0009460D01*
X0179160Y0009461D01*
X0179034Y0010254D01*
X0178786Y0011018D01*
X0178422Y0011733D01*
X0177950Y0012382D01*
X0177382Y0012950D01*
X0176733Y0013422D01*
X0176018Y0013786D01*
X0175547Y0013939D01*
X0177062Y0014567D01*
X0178553Y0016058D01*
X0179360Y0018006D01*
X0179206Y0017635D02*
X0191241Y0017635D01*
X0191829Y0016836D02*
X0178876Y0016836D01*
X0178533Y0016038D02*
X0193125Y0016038D01*
X0194995Y0016038D02*
X0195610Y0016038D01*
X0195610Y0015239D02*
X0177734Y0015239D01*
X0176757Y0014441D02*
X0195610Y0014441D01*
X0195610Y0013642D02*
X0176301Y0013642D01*
X0177489Y0012844D02*
X0195331Y0012844D01*
X0194710Y0012045D02*
X0178195Y0012045D01*
X0178670Y0011247D02*
X0194710Y0011247D01*
X0194710Y0010448D02*
X0178971Y0010448D01*
X0179130Y0009650D02*
X0194710Y0009650D01*
X0203510Y0013123D02*
X0203510Y0015752D01*
X0204868Y0017110D01*
X0206555Y0017110D01*
X0207276Y0016390D01*
X0208433Y0015910D01*
X0209687Y0015910D01*
X0210844Y0016390D01*
X0211560Y0017105D01*
X0212110Y0016555D01*
X0212110Y0016368D01*
X0210610Y0014868D01*
X0210610Y0013123D01*
X0209710Y0012223D01*
X0209710Y0008860D01*
X0207660Y0008860D01*
X0207660Y0009285D01*
X0208210Y0009285D01*
X0208210Y0011744D01*
X0208115Y0012100D01*
X0207930Y0012420D01*
X0207670Y0012680D01*
X0207350Y0012865D01*
X0206994Y0012960D01*
X0205785Y0012960D01*
X0205785Y0011160D01*
X0205335Y0011160D01*
X0205335Y0012960D01*
X0204126Y0012960D01*
X0203770Y0012865D01*
X0203769Y0012864D01*
X0203510Y0013123D01*
X0203510Y0013642D02*
X0210610Y0013642D01*
X0210610Y0014441D02*
X0203510Y0014441D01*
X0203510Y0015239D02*
X0210981Y0015239D01*
X0211780Y0016038D02*
X0209995Y0016038D01*
X0211291Y0016836D02*
X0211829Y0016836D01*
X0210331Y0012844D02*
X0207387Y0012844D01*
X0208129Y0012045D02*
X0209710Y0012045D01*
X0209710Y0011247D02*
X0208210Y0011247D01*
X0208210Y0010448D02*
X0209710Y0010448D01*
X0209710Y0009650D02*
X0208210Y0009650D01*
X0205785Y0011247D02*
X0205335Y0011247D01*
X0205335Y0012045D02*
X0205785Y0012045D01*
X0205785Y0012844D02*
X0205335Y0012844D01*
X0203795Y0016038D02*
X0208125Y0016038D01*
X0206829Y0016836D02*
X0204594Y0016836D01*
X0199975Y0027217D02*
X0214610Y0027217D01*
X0214610Y0028015D02*
X0200773Y0028015D01*
X0201572Y0028814D02*
X0214610Y0028814D01*
X0214610Y0029612D02*
X0202370Y0029612D01*
X0203169Y0030411D02*
X0214610Y0030411D01*
X0214610Y0031209D02*
X0203967Y0031209D01*
X0204766Y0032008D02*
X0214610Y0032008D01*
X0214610Y0032806D02*
X0205564Y0032806D01*
X0206363Y0033605D02*
X0214610Y0033605D01*
X0214646Y0034403D02*
X0207161Y0034403D01*
X0207960Y0035202D02*
X0215444Y0035202D01*
X0215910Y0036000D02*
X0208758Y0036000D01*
X0209557Y0036799D02*
X0215957Y0036799D01*
X0218668Y0032910D02*
X0219687Y0032910D01*
X0220844Y0033390D01*
X0221730Y0034276D01*
X0222210Y0035433D01*
X0222210Y0036687D01*
X0222035Y0037110D01*
X0239131Y0037110D01*
X0239567Y0036058D01*
X0241058Y0034567D01*
X0242282Y0034060D01*
X0241058Y0033553D01*
X0239567Y0032062D01*
X0238760Y0030114D01*
X0238760Y0028006D01*
X0239567Y0026058D01*
X0241058Y0024567D01*
X0242282Y0024060D01*
X0241058Y0023553D01*
X0239567Y0022062D01*
X0238760Y0020114D01*
X0238760Y0018006D01*
X0239567Y0016058D01*
X0241058Y0014567D01*
X0242573Y0013939D01*
X0242102Y0013786D01*
X0241387Y0013422D01*
X0240738Y0012950D01*
X0240170Y0012382D01*
X0239698Y0011733D01*
X0239334Y0011018D01*
X0239086Y0010254D01*
X0238960Y0009461D01*
X0238960Y0009460D01*
X0243660Y0009460D01*
X0243660Y0008860D01*
X0222660Y0008860D01*
X0222660Y0009285D01*
X0223210Y0009285D01*
X0223210Y0011744D01*
X0223115Y0012100D01*
X0222930Y0012420D01*
X0222670Y0012680D01*
X0222350Y0012865D01*
X0221994Y0012960D01*
X0220785Y0012960D01*
X0220785Y0011160D01*
X0220335Y0011160D01*
X0220335Y0012960D01*
X0219126Y0012960D01*
X0218770Y0012865D01*
X0218769Y0012864D01*
X0218510Y0013123D01*
X0218510Y0032752D01*
X0218668Y0032910D01*
X0218564Y0032806D02*
X0240311Y0032806D01*
X0239544Y0032008D02*
X0218510Y0032008D01*
X0218510Y0031209D02*
X0239214Y0031209D01*
X0238883Y0030411D02*
X0218510Y0030411D01*
X0218510Y0029612D02*
X0238760Y0029612D01*
X0238760Y0028814D02*
X0218510Y0028814D01*
X0218510Y0028015D02*
X0238760Y0028015D01*
X0239087Y0027217D02*
X0218510Y0027217D01*
X0218510Y0026418D02*
X0239418Y0026418D01*
X0240005Y0025620D02*
X0218510Y0025620D01*
X0218510Y0024821D02*
X0240803Y0024821D01*
X0240729Y0023224D02*
X0218510Y0023224D01*
X0218510Y0022426D02*
X0239930Y0022426D01*
X0239387Y0021627D02*
X0218510Y0021627D01*
X0218510Y0020829D02*
X0239056Y0020829D01*
X0238760Y0020030D02*
X0218510Y0020030D01*
X0218510Y0019232D02*
X0238760Y0019232D01*
X0238760Y0018433D02*
X0218510Y0018433D01*
X0218510Y0017635D02*
X0238914Y0017635D01*
X0239244Y0016836D02*
X0218510Y0016836D01*
X0218510Y0016038D02*
X0239587Y0016038D01*
X0240385Y0015239D02*
X0218510Y0015239D01*
X0218510Y0014441D02*
X0241363Y0014441D01*
X0241819Y0013642D02*
X0218510Y0013642D01*
X0220335Y0012844D02*
X0220785Y0012844D01*
X0220785Y0012045D02*
X0220335Y0012045D01*
X0220335Y0011247D02*
X0220785Y0011247D01*
X0222387Y0012844D02*
X0240631Y0012844D01*
X0239925Y0012045D02*
X0223129Y0012045D01*
X0223210Y0011247D02*
X0239450Y0011247D01*
X0239149Y0010448D02*
X0223210Y0010448D01*
X0223210Y0009650D02*
X0238990Y0009650D01*
X0242192Y0024023D02*
X0218510Y0024023D01*
X0214610Y0024023D02*
X0214355Y0024023D01*
X0214610Y0024821D02*
X0177317Y0024821D01*
X0178115Y0025620D02*
X0214610Y0025620D01*
X0214610Y0026418D02*
X0178702Y0026418D01*
X0205060Y0064060D02*
X0208060Y0064060D01*
X0210060Y0064060D02*
X0213060Y0064060D01*
X0209710Y0090860D02*
X0207660Y0090860D01*
X0207660Y0091285D01*
X0208210Y0091285D01*
X0208210Y0093744D01*
X0208115Y0094100D01*
X0207930Y0094420D01*
X0207670Y0094680D01*
X0207350Y0094865D01*
X0206994Y0094960D01*
X0205785Y0094960D01*
X0205785Y0093160D01*
X0205335Y0093160D01*
X0205335Y0094960D01*
X0204126Y0094960D01*
X0203770Y0094865D01*
X0203769Y0094864D01*
X0203510Y0095123D01*
X0203510Y0097752D01*
X0204868Y0099110D01*
X0206555Y0099110D01*
X0207276Y0098390D01*
X0208433Y0097910D01*
X0209687Y0097910D01*
X0210844Y0098390D01*
X0211560Y0099105D01*
X0212110Y0098555D01*
X0212110Y0098368D01*
X0210610Y0096868D01*
X0210610Y0095123D01*
X0209710Y0094223D01*
X0209710Y0090860D01*
X0209710Y0091098D02*
X0207660Y0091098D01*
X0208210Y0091896D02*
X0209710Y0091896D01*
X0209710Y0092695D02*
X0208210Y0092695D01*
X0208210Y0093493D02*
X0209710Y0093493D01*
X0209779Y0094292D02*
X0208004Y0094292D01*
X0205785Y0094292D02*
X0205335Y0094292D01*
X0205335Y0093493D02*
X0205785Y0093493D01*
X0203542Y0095090D02*
X0210578Y0095090D01*
X0210610Y0095889D02*
X0203510Y0095889D01*
X0203510Y0096687D02*
X0210610Y0096687D01*
X0211228Y0097486D02*
X0203510Y0097486D01*
X0204042Y0098284D02*
X0207530Y0098284D01*
X0206582Y0099083D02*
X0204841Y0099083D01*
X0210590Y0098284D02*
X0212027Y0098284D01*
X0211582Y0099083D02*
X0211538Y0099083D01*
X0218510Y0099083D02*
X0239142Y0099083D01*
X0238812Y0099881D02*
X0218510Y0099881D01*
X0218510Y0100680D02*
X0238760Y0100680D01*
X0238760Y0100006D02*
X0238760Y0102114D01*
X0239567Y0104062D01*
X0241058Y0105553D01*
X0242282Y0106060D01*
X0241058Y0106567D01*
X0239567Y0108058D01*
X0238760Y0110006D01*
X0238760Y0112114D01*
X0239567Y0114062D01*
X0241058Y0115553D01*
X0242282Y0116060D01*
X0241058Y0116567D01*
X0239567Y0118058D01*
X0239131Y0119110D01*
X0222035Y0119110D01*
X0222210Y0118687D01*
X0222210Y0117433D01*
X0221730Y0116276D01*
X0220844Y0115390D01*
X0219687Y0114910D01*
X0218668Y0114910D01*
X0218510Y0114752D01*
X0218510Y0095123D01*
X0218769Y0094864D01*
X0218770Y0094865D01*
X0219126Y0094960D01*
X0220335Y0094960D01*
X0220335Y0093160D01*
X0220785Y0093160D01*
X0220785Y0094960D01*
X0221994Y0094960D01*
X0222350Y0094865D01*
X0222670Y0094680D01*
X0222930Y0094420D01*
X0223115Y0094100D01*
X0223210Y0093744D01*
X0223210Y0091285D01*
X0222660Y0091285D01*
X0222660Y0090860D01*
X0243660Y0090860D01*
X0243660Y0091460D01*
X0238960Y0091460D01*
X0238960Y0091461D01*
X0239086Y0092254D01*
X0239334Y0093018D01*
X0239698Y0093733D01*
X0240170Y0094382D01*
X0240738Y0094950D01*
X0241387Y0095422D01*
X0242102Y0095786D01*
X0242573Y0095939D01*
X0241058Y0096567D01*
X0239567Y0098058D01*
X0238760Y0100006D01*
X0238760Y0101478D02*
X0218510Y0101478D01*
X0218510Y0102277D02*
X0238827Y0102277D01*
X0239158Y0103075D02*
X0218510Y0103075D01*
X0218510Y0103874D02*
X0239489Y0103874D01*
X0240177Y0104672D02*
X0218510Y0104672D01*
X0218510Y0105471D02*
X0240976Y0105471D01*
X0241776Y0106269D02*
X0218510Y0106269D01*
X0218510Y0107068D02*
X0240557Y0107068D01*
X0239758Y0107866D02*
X0218510Y0107866D01*
X0218510Y0108665D02*
X0239315Y0108665D01*
X0238985Y0109463D02*
X0218510Y0109463D01*
X0218510Y0110262D02*
X0238760Y0110262D01*
X0238760Y0111061D02*
X0218510Y0111061D01*
X0218510Y0111859D02*
X0238760Y0111859D01*
X0238985Y0112658D02*
X0218510Y0112658D01*
X0218510Y0113456D02*
X0239316Y0113456D01*
X0239759Y0114255D02*
X0218510Y0114255D01*
X0220032Y0115053D02*
X0240558Y0115053D01*
X0241778Y0115852D02*
X0221306Y0115852D01*
X0221886Y0116650D02*
X0240975Y0116650D01*
X0240176Y0117449D02*
X0222210Y0117449D01*
X0222210Y0118247D02*
X0239488Y0118247D01*
X0239158Y0119046D02*
X0222061Y0119046D01*
X0216085Y0119110D02*
X0215910Y0118687D01*
X0215910Y0117668D01*
X0214610Y0116368D01*
X0214610Y0105768D01*
X0213868Y0106510D01*
X0198252Y0106510D01*
X0195610Y0103868D01*
X0195610Y0103827D01*
X0194687Y0104210D01*
X0193433Y0104210D01*
X0192276Y0103730D01*
X0191390Y0102844D01*
X0190910Y0101687D01*
X0190910Y0100433D01*
X0191390Y0099276D01*
X0192276Y0098390D01*
X0193433Y0097910D01*
X0194687Y0097910D01*
X0195610Y0098292D01*
X0195610Y0095123D01*
X0194710Y0094223D01*
X0194710Y0090860D01*
X0174460Y0090860D01*
X0174460Y0091460D01*
X0179160Y0091460D01*
X0179160Y0091461D01*
X0179034Y0092254D01*
X0178786Y0093018D01*
X0178422Y0093733D01*
X0177950Y0094382D01*
X0177382Y0094950D01*
X0176733Y0095422D01*
X0176018Y0095786D01*
X0175547Y0095939D01*
X0177062Y0096567D01*
X0178553Y0098058D01*
X0179360Y0100006D01*
X0179360Y0102114D01*
X0178553Y0104062D01*
X0177062Y0105553D01*
X0175838Y0106060D01*
X0177062Y0106567D01*
X0178553Y0108058D01*
X0178989Y0109110D01*
X0199868Y0109110D01*
X0209868Y0119110D01*
X0216085Y0119110D01*
X0216059Y0119046D02*
X0209803Y0119046D01*
X0209005Y0118247D02*
X0215910Y0118247D01*
X0215691Y0117449D02*
X0208206Y0117449D01*
X0207408Y0116650D02*
X0214892Y0116650D01*
X0214610Y0115852D02*
X0206609Y0115852D01*
X0205811Y0115053D02*
X0214610Y0115053D01*
X0214610Y0114255D02*
X0205012Y0114255D01*
X0204214Y0113456D02*
X0214610Y0113456D01*
X0214610Y0112658D02*
X0203415Y0112658D01*
X0202617Y0111859D02*
X0214610Y0111859D01*
X0214610Y0111061D02*
X0201818Y0111061D01*
X0201020Y0110262D02*
X0214610Y0110262D01*
X0214610Y0109463D02*
X0200221Y0109463D01*
X0198012Y0106269D02*
X0176344Y0106269D01*
X0177144Y0105471D02*
X0197213Y0105471D01*
X0196415Y0104672D02*
X0177943Y0104672D01*
X0178631Y0103874D02*
X0192622Y0103874D01*
X0191621Y0103075D02*
X0178962Y0103075D01*
X0179293Y0102277D02*
X0191155Y0102277D01*
X0190910Y0101478D02*
X0179360Y0101478D01*
X0179360Y0100680D02*
X0190910Y0100680D01*
X0191139Y0099881D02*
X0179308Y0099881D01*
X0178978Y0099083D02*
X0191582Y0099083D01*
X0192530Y0098284D02*
X0178647Y0098284D01*
X0177981Y0097486D02*
X0195610Y0097486D01*
X0195590Y0098284D02*
X0195610Y0098284D01*
X0195610Y0096687D02*
X0177183Y0096687D01*
X0177189Y0095090D02*
X0195578Y0095090D01*
X0195610Y0095889D02*
X0175702Y0095889D01*
X0178016Y0094292D02*
X0194779Y0094292D01*
X0194710Y0093493D02*
X0178544Y0093493D01*
X0178891Y0092695D02*
X0194710Y0092695D01*
X0194710Y0091896D02*
X0179091Y0091896D01*
X0174460Y0091098D02*
X0194710Y0091098D01*
X0195498Y0103874D02*
X0195616Y0103874D01*
X0178805Y0108665D02*
X0214610Y0108665D01*
X0214610Y0107866D02*
X0178362Y0107866D01*
X0177563Y0107068D02*
X0214610Y0107068D01*
X0214610Y0106269D02*
X0214108Y0106269D01*
X0218510Y0098284D02*
X0239473Y0098284D01*
X0240139Y0097486D02*
X0218510Y0097486D01*
X0218510Y0096687D02*
X0240937Y0096687D01*
X0240931Y0095090D02*
X0218542Y0095090D01*
X0218510Y0095889D02*
X0242418Y0095889D01*
X0240104Y0094292D02*
X0223004Y0094292D01*
X0223210Y0093493D02*
X0239576Y0093493D01*
X0239229Y0092695D02*
X0223210Y0092695D01*
X0223210Y0091896D02*
X0239029Y0091896D01*
X0243660Y0091098D02*
X0222660Y0091098D01*
X0220785Y0093493D02*
X0220335Y0093493D01*
X0220335Y0094292D02*
X0220785Y0094292D01*
X0213060Y0146060D02*
X0210060Y0146060D01*
X0208060Y0146060D02*
X0205060Y0146060D01*
X0160282Y0116060D02*
X0159058Y0115553D01*
X0157567Y0114062D01*
X0156760Y0112114D01*
X0156760Y0110006D01*
X0157567Y0108058D01*
X0159058Y0106567D01*
X0160282Y0106060D01*
X0159058Y0105553D01*
X0157567Y0104062D01*
X0156760Y0102114D01*
X0156760Y0100006D01*
X0157567Y0098058D01*
X0159058Y0096567D01*
X0160573Y0095939D01*
X0160102Y0095786D01*
X0159387Y0095422D01*
X0158738Y0094950D01*
X0158170Y0094382D01*
X0157698Y0093733D01*
X0157334Y0093018D01*
X0157086Y0092254D01*
X0156960Y0091461D01*
X0156960Y0091460D01*
X0161660Y0091460D01*
X0161660Y0090860D01*
X0140660Y0090860D01*
X0140660Y0091285D01*
X0141210Y0091285D01*
X0141210Y0093744D01*
X0141115Y0094100D01*
X0140930Y0094420D01*
X0140670Y0094680D01*
X0140350Y0094865D01*
X0139994Y0094960D01*
X0138785Y0094960D01*
X0138785Y0093160D01*
X0138335Y0093160D01*
X0138335Y0094960D01*
X0137126Y0094960D01*
X0136770Y0094865D01*
X0136769Y0094864D01*
X0136510Y0095123D01*
X0136510Y0114752D01*
X0136668Y0114910D01*
X0137687Y0114910D01*
X0138844Y0115390D01*
X0139730Y0116276D01*
X0140210Y0117433D01*
X0140210Y0118687D01*
X0140035Y0119110D01*
X0157131Y0119110D01*
X0157567Y0118058D01*
X0159058Y0116567D01*
X0160282Y0116060D01*
X0159778Y0115852D02*
X0139306Y0115852D01*
X0139886Y0116650D02*
X0158975Y0116650D01*
X0158176Y0117449D02*
X0140210Y0117449D01*
X0140210Y0118247D02*
X0157488Y0118247D01*
X0157158Y0119046D02*
X0140061Y0119046D01*
X0138032Y0115053D02*
X0158558Y0115053D01*
X0157759Y0114255D02*
X0136510Y0114255D01*
X0136510Y0113456D02*
X0157316Y0113456D01*
X0156985Y0112658D02*
X0136510Y0112658D01*
X0136510Y0111859D02*
X0156760Y0111859D01*
X0156760Y0111061D02*
X0136510Y0111061D01*
X0136510Y0110262D02*
X0156760Y0110262D01*
X0156985Y0109463D02*
X0136510Y0109463D01*
X0136510Y0108665D02*
X0157315Y0108665D01*
X0157758Y0107866D02*
X0136510Y0107866D01*
X0136510Y0107068D02*
X0158557Y0107068D01*
X0159776Y0106269D02*
X0136510Y0106269D01*
X0136510Y0105471D02*
X0158976Y0105471D01*
X0158177Y0104672D02*
X0136510Y0104672D01*
X0136510Y0103874D02*
X0157489Y0103874D01*
X0157158Y0103075D02*
X0136510Y0103075D01*
X0136510Y0102277D02*
X0156827Y0102277D01*
X0156760Y0101478D02*
X0136510Y0101478D01*
X0136510Y0100680D02*
X0156760Y0100680D01*
X0156812Y0099881D02*
X0136510Y0099881D01*
X0136510Y0099083D02*
X0157142Y0099083D01*
X0157473Y0098284D02*
X0136510Y0098284D01*
X0136510Y0097486D02*
X0158139Y0097486D01*
X0158937Y0096687D02*
X0136510Y0096687D01*
X0136510Y0095889D02*
X0160418Y0095889D01*
X0158931Y0095090D02*
X0136542Y0095090D01*
X0138335Y0094292D02*
X0138785Y0094292D01*
X0138785Y0093493D02*
X0138335Y0093493D01*
X0141004Y0094292D02*
X0158104Y0094292D01*
X0157576Y0093493D02*
X0141210Y0093493D01*
X0141210Y0092695D02*
X0157229Y0092695D01*
X0157029Y0091896D02*
X0141210Y0091896D01*
X0140660Y0091098D02*
X0161660Y0091098D01*
X0132610Y0105768D02*
X0131868Y0106510D01*
X0116252Y0106510D01*
X0113610Y0103868D01*
X0113610Y0103827D01*
X0112687Y0104210D01*
X0111433Y0104210D01*
X0110276Y0103730D01*
X0109390Y0102844D01*
X0108910Y0101687D01*
X0108910Y0100433D01*
X0109390Y0099276D01*
X0110276Y0098390D01*
X0111433Y0097910D01*
X0112687Y0097910D01*
X0113610Y0098292D01*
X0113610Y0095123D01*
X0112710Y0094223D01*
X0112710Y0090860D01*
X0092460Y0090860D01*
X0092460Y0091460D01*
X0097160Y0091460D01*
X0097160Y0091461D01*
X0097034Y0092254D01*
X0096786Y0093018D01*
X0096422Y0093733D01*
X0095950Y0094382D01*
X0095382Y0094950D01*
X0094733Y0095422D01*
X0094018Y0095786D01*
X0093547Y0095939D01*
X0095062Y0096567D01*
X0096553Y0098058D01*
X0097360Y0100006D01*
X0097360Y0102114D01*
X0096553Y0104062D01*
X0095062Y0105553D01*
X0093838Y0106060D01*
X0095062Y0106567D01*
X0096553Y0108058D01*
X0096989Y0109110D01*
X0117868Y0109110D01*
X0127868Y0119110D01*
X0134085Y0119110D01*
X0133910Y0118687D01*
X0133910Y0117668D01*
X0133752Y0117510D01*
X0132610Y0116368D01*
X0132610Y0105768D01*
X0132610Y0106269D02*
X0132108Y0106269D01*
X0132610Y0107068D02*
X0095563Y0107068D01*
X0096362Y0107866D02*
X0132610Y0107866D01*
X0132610Y0108665D02*
X0096805Y0108665D01*
X0094344Y0106269D02*
X0116012Y0106269D01*
X0115213Y0105471D02*
X0095144Y0105471D01*
X0095943Y0104672D02*
X0114415Y0104672D01*
X0113616Y0103874D02*
X0113498Y0103874D01*
X0110622Y0103874D02*
X0096631Y0103874D01*
X0096962Y0103075D02*
X0109621Y0103075D01*
X0109155Y0102277D02*
X0097293Y0102277D01*
X0097360Y0101478D02*
X0108910Y0101478D01*
X0108910Y0100680D02*
X0097360Y0100680D01*
X0097308Y0099881D02*
X0109139Y0099881D01*
X0109582Y0099083D02*
X0096978Y0099083D01*
X0096647Y0098284D02*
X0110530Y0098284D01*
X0113590Y0098284D02*
X0113610Y0098284D01*
X0113610Y0097486D02*
X0095981Y0097486D01*
X0095183Y0096687D02*
X0113610Y0096687D01*
X0113610Y0095889D02*
X0093702Y0095889D01*
X0095189Y0095090D02*
X0113578Y0095090D01*
X0112779Y0094292D02*
X0096016Y0094292D01*
X0096544Y0093493D02*
X0112710Y0093493D01*
X0112710Y0092695D02*
X0096891Y0092695D01*
X0097091Y0091896D02*
X0112710Y0091896D01*
X0112710Y0091098D02*
X0092460Y0091098D01*
X0118221Y0109463D02*
X0132610Y0109463D01*
X0132610Y0110262D02*
X0119020Y0110262D01*
X0119818Y0111061D02*
X0132610Y0111061D01*
X0132610Y0111859D02*
X0120617Y0111859D01*
X0121415Y0112658D02*
X0132610Y0112658D01*
X0132610Y0113456D02*
X0122214Y0113456D01*
X0123012Y0114255D02*
X0132610Y0114255D01*
X0132610Y0115053D02*
X0123811Y0115053D01*
X0124609Y0115852D02*
X0132610Y0115852D01*
X0132892Y0116650D02*
X0125408Y0116650D01*
X0126206Y0117449D02*
X0133691Y0117449D01*
X0133752Y0117510D02*
X0133752Y0117510D01*
X0133910Y0118247D02*
X0127005Y0118247D01*
X0127803Y0119046D02*
X0134059Y0119046D01*
X0129560Y0099105D02*
X0130110Y0098555D01*
X0130110Y0098368D01*
X0128610Y0096868D01*
X0128610Y0095123D01*
X0127710Y0094223D01*
X0127710Y0090860D01*
X0125660Y0090860D01*
X0125660Y0091285D01*
X0126210Y0091285D01*
X0126210Y0093744D01*
X0126115Y0094100D01*
X0125930Y0094420D01*
X0125670Y0094680D01*
X0125350Y0094865D01*
X0124994Y0094960D01*
X0123785Y0094960D01*
X0123785Y0093160D01*
X0123335Y0093160D01*
X0123335Y0094960D01*
X0122126Y0094960D01*
X0121770Y0094865D01*
X0121769Y0094864D01*
X0121510Y0095123D01*
X0121510Y0097752D01*
X0122868Y0099110D01*
X0124555Y0099110D01*
X0125276Y0098390D01*
X0126433Y0097910D01*
X0127687Y0097910D01*
X0128844Y0098390D01*
X0129560Y0099105D01*
X0129538Y0099083D02*
X0129582Y0099083D01*
X0130027Y0098284D02*
X0128590Y0098284D01*
X0129228Y0097486D02*
X0121510Y0097486D01*
X0121510Y0096687D02*
X0128610Y0096687D01*
X0128610Y0095889D02*
X0121510Y0095889D01*
X0121542Y0095090D02*
X0128578Y0095090D01*
X0127779Y0094292D02*
X0126004Y0094292D01*
X0126210Y0093493D02*
X0127710Y0093493D01*
X0127710Y0092695D02*
X0126210Y0092695D01*
X0126210Y0091896D02*
X0127710Y0091896D01*
X0127710Y0091098D02*
X0125660Y0091098D01*
X0123785Y0093493D02*
X0123335Y0093493D01*
X0123335Y0094292D02*
X0123785Y0094292D01*
X0122042Y0098284D02*
X0125530Y0098284D01*
X0124582Y0099083D02*
X0122841Y0099083D01*
X0123060Y0064060D02*
X0126060Y0064060D01*
X0128060Y0064060D02*
X0131060Y0064060D01*
X0050610Y0024023D02*
X0050355Y0024023D01*
X0123060Y0146060D02*
X0126060Y0146060D01*
X0128060Y0146060D02*
X0131060Y0146060D01*
X0222163Y0036799D02*
X0239260Y0036799D01*
X0239624Y0036000D02*
X0222210Y0036000D01*
X0222114Y0035202D02*
X0240423Y0035202D01*
X0241452Y0034403D02*
X0221783Y0034403D01*
X0221060Y0033605D02*
X0241183Y0033605D01*
D13*
X0220560Y0009060D02*
X0216560Y0009060D01*
X0205560Y0009060D02*
X0201560Y0009060D01*
X0138560Y0009060D02*
X0134560Y0009060D01*
X0123560Y0009060D02*
X0119560Y0009060D01*
X0056560Y0009060D02*
X0052560Y0009060D01*
X0041560Y0009060D02*
X0037560Y0009060D01*
X0043060Y0074060D02*
X0047060Y0074060D01*
X0052560Y0091060D02*
X0056560Y0091060D01*
X0041560Y0091060D02*
X0037560Y0091060D01*
X0043060Y0156060D02*
X0047060Y0156060D01*
X0052560Y0173060D02*
X0056560Y0173060D01*
X0041560Y0173060D02*
X0037560Y0173060D01*
X0043060Y0238060D02*
X0047060Y0238060D01*
X0119560Y0173060D02*
X0123560Y0173060D01*
X0134560Y0173060D02*
X0138560Y0173060D01*
X0129060Y0156060D02*
X0125060Y0156060D01*
X0123560Y0091060D02*
X0119560Y0091060D01*
X0134560Y0091060D02*
X0138560Y0091060D01*
X0129060Y0074060D02*
X0125060Y0074060D01*
X0201560Y0091060D02*
X0205560Y0091060D01*
X0216560Y0091060D02*
X0220560Y0091060D01*
X0211060Y0074060D02*
X0207060Y0074060D01*
X0207060Y0156060D02*
X0211060Y0156060D01*
X0216560Y0173060D02*
X0220560Y0173060D01*
X0205560Y0173060D02*
X0201560Y0173060D01*
X0207060Y0238060D02*
X0211060Y0238060D01*
X0129060Y0238060D02*
X0125060Y0238060D01*
D14*
X0117060Y0228060D03*
X0127060Y0219060D03*
X0127060Y0208060D03*
X0137060Y0200060D03*
X0142060Y0208060D03*
X0142060Y0228060D03*
X0137060Y0228060D03*
X0114560Y0213060D03*
X0112060Y0205560D03*
X0107060Y0218060D03*
X0112060Y0183060D03*
X0107060Y0178060D03*
X0127060Y0178060D03*
X0127060Y0183060D03*
X0132060Y0183060D03*
X0152060Y0188060D03*
X0189060Y0178060D03*
X0194060Y0183060D03*
X0209060Y0183060D03*
X0214060Y0183060D03*
X0209060Y0178060D03*
X0219060Y0200060D03*
X0224060Y0208060D03*
X0209060Y0208060D03*
X0209060Y0219060D03*
X0219060Y0228060D03*
X0224060Y0228060D03*
X0199060Y0228060D03*
X0189060Y0218060D03*
X0196560Y0213060D03*
X0194060Y0205560D03*
X0234060Y0188060D03*
X0224060Y0146060D03*
X0219060Y0146060D03*
X0209060Y0137060D03*
X0209060Y0126060D03*
X0219060Y0118060D03*
X0224060Y0126060D03*
X0234060Y0106060D03*
X0214060Y0101060D03*
X0209060Y0101060D03*
X0209060Y0096060D03*
X0194060Y0101060D03*
X0189060Y0096060D03*
X0194060Y0123560D03*
X0196560Y0131060D03*
X0189060Y0136060D03*
X0199060Y0146060D03*
X0152060Y0106060D03*
X0137060Y0118060D03*
X0142060Y0126060D03*
X0127060Y0126060D03*
X0127060Y0137060D03*
X0137060Y0146060D03*
X0142060Y0146060D03*
X0117060Y0146060D03*
X0107060Y0136060D03*
X0114560Y0131060D03*
X0112060Y0123560D03*
X0112060Y0101060D03*
X0107060Y0096060D03*
X0127060Y0096060D03*
X0127060Y0101060D03*
X0132060Y0101060D03*
X0137060Y0064060D03*
X0142060Y0064060D03*
X0127060Y0055060D03*
X0127060Y0044060D03*
X0137060Y0036060D03*
X0142060Y0044060D03*
X0152060Y0024060D03*
X0132060Y0019060D03*
X0127060Y0019060D03*
X0127060Y0014060D03*
X0112060Y0019060D03*
X0107060Y0014060D03*
X0112060Y0041560D03*
X0114560Y0049060D03*
X0107060Y0054060D03*
X0117060Y0064060D03*
X0070060Y0024060D03*
X0055060Y0036060D03*
X0060060Y0044060D03*
X0045060Y0044060D03*
X0045060Y0055060D03*
X0055060Y0064060D03*
X0060060Y0064060D03*
X0035060Y0064060D03*
X0025060Y0054060D03*
X0032560Y0049060D03*
X0030060Y0041560D03*
X0030060Y0019060D03*
X0025060Y0014060D03*
X0045060Y0014060D03*
X0045060Y0019060D03*
X0050060Y0019060D03*
X0045060Y0096060D03*
X0045060Y0101060D03*
X0050060Y0101060D03*
X0055060Y0118060D03*
X0060060Y0126060D03*
X0045060Y0126060D03*
X0045060Y0137060D03*
X0055060Y0146060D03*
X0060060Y0146060D03*
X0035060Y0146060D03*
X0025060Y0136060D03*
X0032560Y0131060D03*
X0030060Y0123560D03*
X0030060Y0101060D03*
X0025060Y0096060D03*
X0070060Y0106060D03*
X0045060Y0178060D03*
X0045060Y0183060D03*
X0050060Y0183060D03*
X0055060Y0200060D03*
X0060060Y0208060D03*
X0045060Y0208060D03*
X0045060Y0219060D03*
X0055060Y0228060D03*
X0060060Y0228060D03*
X0035060Y0228060D03*
X0025060Y0218060D03*
X0032560Y0213060D03*
X0030060Y0205560D03*
X0030060Y0183060D03*
X0025060Y0178060D03*
X0070060Y0188060D03*
X0199060Y0064060D03*
X0209060Y0055060D03*
X0209060Y0044060D03*
X0219060Y0036060D03*
X0224060Y0044060D03*
X0224060Y0064060D03*
X0219060Y0064060D03*
X0196560Y0049060D03*
X0194060Y0041560D03*
X0189060Y0054060D03*
X0194060Y0019060D03*
X0189060Y0014060D03*
X0209060Y0014060D03*
X0209060Y0019060D03*
X0214060Y0019060D03*
X0234060Y0024060D03*
D15*
X0219060Y0036060D02*
X0216560Y0033560D01*
X0216560Y0009060D01*
X0212560Y0009060D02*
X0212560Y0014060D01*
X0214060Y0015560D01*
X0214060Y0019060D01*
X0214060Y0021560D01*
X0213060Y0022560D01*
X0199060Y0022560D01*
X0197560Y0021060D01*
X0197560Y0019060D01*
X0194060Y0019060D01*
X0197560Y0019060D02*
X0197560Y0009060D01*
X0201560Y0009060D02*
X0201560Y0016560D01*
X0204060Y0019060D01*
X0209060Y0019060D01*
X0199060Y0029060D02*
X0209060Y0039060D01*
X0229060Y0039060D01*
X0229060Y0059060D01*
X0224060Y0064060D01*
X0219060Y0064060D02*
X0212260Y0064060D01*
X0209060Y0064060D02*
X0209060Y0067560D01*
X0211060Y0069560D01*
X0211060Y0074060D01*
X0207060Y0074060D02*
X0199060Y0074060D01*
X0194060Y0069060D01*
X0194060Y0058560D01*
X0193560Y0059060D01*
X0174060Y0059060D01*
X0189060Y0054060D02*
X0189060Y0046560D01*
X0194060Y0041560D01*
X0196560Y0049060D02*
X0199060Y0049060D01*
X0206560Y0041560D01*
X0221560Y0041560D01*
X0224060Y0044060D01*
X0229060Y0039060D02*
X0244060Y0039060D01*
X0212060Y0047060D02*
X0209060Y0044060D01*
X0212060Y0047060D02*
X0212060Y0056560D01*
X0209060Y0059560D01*
X0209060Y0064060D01*
X0205860Y0064060D02*
X0199060Y0064060D01*
X0194060Y0058560D02*
X0197560Y0055060D01*
X0209060Y0055060D01*
X0199060Y0029060D02*
X0174060Y0029060D01*
X0162060Y0039060D02*
X0147060Y0039060D01*
X0147060Y0059060D01*
X0142060Y0064060D01*
X0137060Y0064060D02*
X0130260Y0064060D01*
X0127060Y0064060D02*
X0127060Y0067560D01*
X0129060Y0069560D01*
X0129060Y0074060D01*
X0125060Y0074060D02*
X0117060Y0074060D01*
X0112060Y0069060D01*
X0112060Y0058560D01*
X0111560Y0059060D01*
X0092060Y0059060D01*
X0107060Y0054060D02*
X0107060Y0046560D01*
X0112060Y0041560D01*
X0114560Y0049060D02*
X0117060Y0049060D01*
X0124560Y0041560D01*
X0139560Y0041560D01*
X0142060Y0044060D01*
X0147060Y0039060D02*
X0127060Y0039060D01*
X0117060Y0029060D01*
X0092060Y0029060D01*
X0080060Y0039060D02*
X0065060Y0039060D01*
X0065060Y0059060D01*
X0060060Y0064060D01*
X0055060Y0064060D02*
X0048260Y0064060D01*
X0045060Y0064060D02*
X0045060Y0067560D01*
X0047060Y0069560D01*
X0047060Y0074060D01*
X0043060Y0074060D02*
X0035060Y0074060D01*
X0030060Y0069060D01*
X0030060Y0058560D01*
X0029560Y0059060D01*
X0010060Y0059060D01*
X0025060Y0054060D02*
X0025060Y0046560D01*
X0030060Y0041560D01*
X0032560Y0049060D02*
X0035060Y0049060D01*
X0042560Y0041560D01*
X0057560Y0041560D01*
X0060060Y0044060D01*
X0065060Y0039060D02*
X0045060Y0039060D01*
X0035060Y0029060D01*
X0010060Y0029060D01*
X0030060Y0019060D02*
X0033560Y0019060D01*
X0033560Y0021060D01*
X0035060Y0022560D01*
X0049060Y0022560D01*
X0050060Y0021560D01*
X0050060Y0019060D01*
X0050060Y0015560D01*
X0048560Y0014060D01*
X0048560Y0009060D01*
X0052560Y0009060D02*
X0052560Y0033560D01*
X0055060Y0036060D01*
X0045060Y0044060D02*
X0048060Y0047060D01*
X0048060Y0056560D01*
X0045060Y0059560D01*
X0045060Y0064060D01*
X0041860Y0064060D02*
X0035060Y0064060D01*
X0030060Y0058560D02*
X0033560Y0055060D01*
X0045060Y0055060D01*
X0045060Y0019060D02*
X0040060Y0019060D01*
X0037560Y0016560D01*
X0037560Y0009060D01*
X0033560Y0009060D02*
X0033560Y0019060D01*
X0033560Y0091060D02*
X0033560Y0101060D01*
X0030060Y0101060D01*
X0033560Y0101060D02*
X0033560Y0103060D01*
X0035060Y0104560D01*
X0049060Y0104560D01*
X0050060Y0103560D01*
X0050060Y0101060D01*
X0050060Y0097560D01*
X0048560Y0096060D01*
X0048560Y0091060D01*
X0052560Y0091060D02*
X0052560Y0115560D01*
X0055060Y0118060D01*
X0057560Y0123560D02*
X0060060Y0126060D01*
X0057560Y0123560D02*
X0042560Y0123560D01*
X0035060Y0131060D01*
X0032560Y0131060D01*
X0033560Y0137060D02*
X0030060Y0140560D01*
X0029560Y0141060D01*
X0010060Y0141060D01*
X0025060Y0136060D02*
X0025060Y0128560D01*
X0030060Y0123560D01*
X0035060Y0111060D02*
X0045060Y0121060D01*
X0065060Y0121060D01*
X0065060Y0141060D01*
X0060060Y0146060D01*
X0055060Y0146060D02*
X0048260Y0146060D01*
X0045060Y0146060D02*
X0045060Y0149560D01*
X0047060Y0151560D01*
X0047060Y0156060D01*
X0043060Y0156060D02*
X0035060Y0156060D01*
X0030060Y0151060D01*
X0030060Y0140560D01*
X0033560Y0137060D02*
X0045060Y0137060D01*
X0048060Y0138560D02*
X0048060Y0129060D01*
X0045060Y0126060D01*
X0048060Y0138560D02*
X0045060Y0141560D01*
X0045060Y0146060D01*
X0041860Y0146060D02*
X0035060Y0146060D01*
X0033560Y0173060D02*
X0033560Y0183060D01*
X0030060Y0183060D01*
X0033560Y0183060D02*
X0033560Y0185060D01*
X0035060Y0186560D01*
X0049060Y0186560D01*
X0050060Y0185560D01*
X0050060Y0183060D01*
X0050060Y0179560D01*
X0048560Y0178060D01*
X0048560Y0173060D01*
X0052560Y0173060D02*
X0052560Y0197560D01*
X0055060Y0200060D01*
X0057560Y0205560D02*
X0060060Y0208060D01*
X0057560Y0205560D02*
X0042560Y0205560D01*
X0035060Y0213060D01*
X0032560Y0213060D01*
X0033560Y0219060D02*
X0030060Y0222560D01*
X0029560Y0223060D01*
X0010060Y0223060D01*
X0025060Y0218060D02*
X0025060Y0210560D01*
X0030060Y0205560D01*
X0035060Y0193060D02*
X0045060Y0203060D01*
X0065060Y0203060D01*
X0065060Y0223060D01*
X0060060Y0228060D01*
X0055060Y0228060D02*
X0048260Y0228060D01*
X0045060Y0228060D02*
X0045060Y0231560D01*
X0047060Y0233560D01*
X0047060Y0238060D01*
X0043060Y0238060D02*
X0035060Y0238060D01*
X0030060Y0233060D01*
X0030060Y0222560D01*
X0033560Y0219060D02*
X0045060Y0219060D01*
X0048060Y0220560D02*
X0048060Y0211060D01*
X0045060Y0208060D01*
X0048060Y0220560D02*
X0045060Y0223560D01*
X0045060Y0228060D01*
X0041860Y0228060D02*
X0035060Y0228060D01*
X0065060Y0203060D02*
X0080060Y0203060D01*
X0092060Y0193060D02*
X0117060Y0193060D01*
X0127060Y0203060D01*
X0147060Y0203060D01*
X0147060Y0223060D01*
X0142060Y0228060D01*
X0137060Y0228060D02*
X0130260Y0228060D01*
X0127060Y0228060D02*
X0127060Y0231560D01*
X0129060Y0233560D01*
X0129060Y0238060D01*
X0125060Y0238060D02*
X0117060Y0238060D01*
X0112060Y0233060D01*
X0112060Y0222560D01*
X0111560Y0223060D01*
X0092060Y0223060D01*
X0107060Y0218060D02*
X0107060Y0210560D01*
X0112060Y0205560D01*
X0114560Y0213060D02*
X0117060Y0213060D01*
X0124560Y0205560D01*
X0139560Y0205560D01*
X0142060Y0208060D01*
X0147060Y0203060D02*
X0162060Y0203060D01*
X0174060Y0193060D02*
X0199060Y0193060D01*
X0209060Y0203060D01*
X0229060Y0203060D01*
X0229060Y0223060D01*
X0224060Y0228060D01*
X0219060Y0228060D02*
X0212260Y0228060D01*
X0209060Y0228060D02*
X0209060Y0231560D01*
X0211060Y0233560D01*
X0211060Y0238060D01*
X0207060Y0238060D02*
X0199060Y0238060D01*
X0194060Y0233060D01*
X0194060Y0222560D01*
X0193560Y0223060D01*
X0174060Y0223060D01*
X0189060Y0218060D02*
X0189060Y0210560D01*
X0194060Y0205560D01*
X0196560Y0213060D02*
X0199060Y0213060D01*
X0206560Y0205560D01*
X0221560Y0205560D01*
X0224060Y0208060D01*
X0229060Y0203060D02*
X0244060Y0203060D01*
X0219060Y0200060D02*
X0216560Y0197560D01*
X0216560Y0173060D01*
X0212560Y0173060D02*
X0212560Y0178060D01*
X0214060Y0179560D01*
X0214060Y0183060D01*
X0214060Y0185560D01*
X0213060Y0186560D01*
X0199060Y0186560D01*
X0197560Y0185060D01*
X0197560Y0183060D01*
X0194060Y0183060D01*
X0197560Y0183060D02*
X0197560Y0173060D01*
X0201560Y0173060D02*
X0201560Y0180560D01*
X0204060Y0183060D01*
X0209060Y0183060D01*
X0209060Y0208060D02*
X0212060Y0211060D01*
X0212060Y0220560D01*
X0209060Y0223560D01*
X0209060Y0228060D01*
X0205860Y0228060D02*
X0199060Y0228060D01*
X0194060Y0222560D02*
X0197560Y0219060D01*
X0209060Y0219060D01*
X0207060Y0156060D02*
X0199060Y0156060D01*
X0194060Y0151060D01*
X0194060Y0140560D01*
X0193560Y0141060D01*
X0174060Y0141060D01*
X0189060Y0136060D02*
X0189060Y0128560D01*
X0194060Y0123560D01*
X0196560Y0131060D02*
X0199060Y0131060D01*
X0206560Y0123560D01*
X0221560Y0123560D01*
X0224060Y0126060D01*
X0229060Y0121060D02*
X0229060Y0141060D01*
X0224060Y0146060D01*
X0219060Y0146060D02*
X0212260Y0146060D01*
X0209060Y0146060D02*
X0209060Y0149560D01*
X0211060Y0151560D01*
X0211060Y0156060D01*
X0209060Y0146060D02*
X0209060Y0141560D01*
X0212060Y0138560D01*
X0212060Y0129060D01*
X0209060Y0126060D01*
X0209060Y0121060D02*
X0229060Y0121060D01*
X0244060Y0121060D01*
X0219060Y0118060D02*
X0216560Y0115560D01*
X0216560Y0091060D01*
X0212560Y0091060D02*
X0212560Y0096060D01*
X0214060Y0097560D01*
X0214060Y0101060D01*
X0214060Y0103560D01*
X0213060Y0104560D01*
X0199060Y0104560D01*
X0197560Y0103060D01*
X0197560Y0101060D01*
X0194060Y0101060D01*
X0197560Y0101060D02*
X0197560Y0091060D01*
X0201560Y0091060D02*
X0201560Y0098560D01*
X0204060Y0101060D01*
X0209060Y0101060D01*
X0199060Y0111060D02*
X0209060Y0121060D01*
X0199060Y0111060D02*
X0174060Y0111060D01*
X0162060Y0121060D02*
X0147060Y0121060D01*
X0147060Y0141060D01*
X0142060Y0146060D01*
X0137060Y0146060D02*
X0130260Y0146060D01*
X0127060Y0146060D02*
X0127060Y0149560D01*
X0129060Y0151560D01*
X0129060Y0156060D01*
X0125060Y0156060D02*
X0117060Y0156060D01*
X0112060Y0151060D01*
X0112060Y0140560D01*
X0111560Y0141060D01*
X0092060Y0141060D01*
X0107060Y0136060D02*
X0107060Y0128560D01*
X0112060Y0123560D01*
X0114560Y0131060D02*
X0117060Y0131060D01*
X0124560Y0123560D01*
X0139560Y0123560D01*
X0142060Y0126060D01*
X0147060Y0121060D02*
X0127060Y0121060D01*
X0117060Y0111060D01*
X0092060Y0111060D01*
X0080060Y0121060D02*
X0065060Y0121060D01*
X0045060Y0101060D02*
X0040060Y0101060D01*
X0037560Y0098560D01*
X0037560Y0091060D01*
X0035060Y0111060D02*
X0010060Y0111060D01*
X0037560Y0173060D02*
X0037560Y0180560D01*
X0040060Y0183060D01*
X0045060Y0183060D01*
X0035060Y0193060D02*
X0010060Y0193060D01*
X0112060Y0183060D02*
X0115560Y0183060D01*
X0115560Y0185060D01*
X0117060Y0186560D01*
X0131060Y0186560D01*
X0132060Y0185560D01*
X0132060Y0183060D01*
X0132060Y0179560D01*
X0130560Y0178060D01*
X0130560Y0173060D01*
X0134560Y0173060D02*
X0134560Y0197560D01*
X0137060Y0200060D01*
X0127060Y0208060D02*
X0130060Y0211060D01*
X0130060Y0220560D01*
X0127060Y0223560D01*
X0127060Y0228060D01*
X0123860Y0228060D02*
X0117060Y0228060D01*
X0112060Y0222560D02*
X0115560Y0219060D01*
X0127060Y0219060D01*
X0127060Y0183060D02*
X0122060Y0183060D01*
X0119560Y0180560D01*
X0119560Y0173060D01*
X0115560Y0173060D02*
X0115560Y0183060D01*
X0117060Y0146060D02*
X0123860Y0146060D01*
X0127060Y0146060D02*
X0127060Y0141560D01*
X0130060Y0138560D01*
X0130060Y0129060D01*
X0127060Y0126060D01*
X0127060Y0137060D02*
X0115560Y0137060D01*
X0112060Y0140560D01*
X0134560Y0115560D02*
X0137060Y0118060D01*
X0134560Y0115560D02*
X0134560Y0091060D01*
X0130560Y0091060D02*
X0130560Y0096060D01*
X0132060Y0097560D01*
X0132060Y0101060D01*
X0132060Y0103560D01*
X0131060Y0104560D01*
X0117060Y0104560D01*
X0115560Y0103060D01*
X0115560Y0101060D01*
X0112060Y0101060D01*
X0115560Y0101060D02*
X0115560Y0091060D01*
X0119560Y0091060D02*
X0119560Y0098560D01*
X0122060Y0101060D01*
X0127060Y0101060D01*
X0127060Y0064060D02*
X0127060Y0059560D01*
X0130060Y0056560D01*
X0130060Y0047060D01*
X0127060Y0044060D01*
X0127060Y0055060D02*
X0115560Y0055060D01*
X0112060Y0058560D01*
X0117060Y0064060D02*
X0123860Y0064060D01*
X0137060Y0036060D02*
X0134560Y0033560D01*
X0134560Y0009060D01*
X0130560Y0009060D02*
X0130560Y0014060D01*
X0132060Y0015560D01*
X0132060Y0019060D01*
X0132060Y0021560D01*
X0131060Y0022560D01*
X0117060Y0022560D01*
X0115560Y0021060D01*
X0115560Y0019060D01*
X0112060Y0019060D01*
X0115560Y0019060D02*
X0115560Y0009060D01*
X0119560Y0009060D02*
X0119560Y0016560D01*
X0122060Y0019060D01*
X0127060Y0019060D01*
X0197560Y0137060D02*
X0194060Y0140560D01*
X0197560Y0137060D02*
X0209060Y0137060D01*
X0205860Y0146060D02*
X0199060Y0146060D01*
M02*
