G75*
%MOIN*%
%OFA0B0*%
%FSLAX25Y25*%
%IPPOS*%
%LPD*%
%AMOC8*
5,1,8,0,0,1.08239X$1,22.5*
%
%ADD10R,0.05131X0.04737*%
%ADD11C,0.13800*%
%ADD12C,0.08200*%
%ADD13C,0.03900*%
D10*
X0031714Y0024060D03*
X0038406Y0024060D03*
X0051714Y0024060D03*
X0058406Y0024060D03*
X0058406Y0059060D03*
X0051714Y0059060D03*
X0038406Y0059060D03*
X0031714Y0059060D03*
X0031714Y0106060D03*
X0038406Y0106060D03*
X0051714Y0106060D03*
X0058406Y0106060D03*
X0058406Y0141060D03*
X0051714Y0141060D03*
X0038406Y0141060D03*
X0031714Y0141060D03*
X0031714Y0188060D03*
X0038406Y0188060D03*
X0051714Y0188060D03*
X0058406Y0188060D03*
X0058406Y0223060D03*
X0051714Y0223060D03*
X0038406Y0223060D03*
X0031714Y0223060D03*
X0113714Y0223060D03*
X0120406Y0223060D03*
X0133714Y0223060D03*
X0140406Y0223060D03*
X0140406Y0188060D03*
X0133714Y0188060D03*
X0120406Y0188060D03*
X0113714Y0188060D03*
X0113714Y0141060D03*
X0120406Y0141060D03*
X0133714Y0141060D03*
X0140406Y0141060D03*
X0140406Y0106060D03*
X0133714Y0106060D03*
X0120406Y0106060D03*
X0113714Y0106060D03*
X0113714Y0059060D03*
X0120406Y0059060D03*
X0133714Y0059060D03*
X0140406Y0059060D03*
X0140406Y0024060D03*
X0133714Y0024060D03*
X0120406Y0024060D03*
X0113714Y0024060D03*
X0195714Y0024060D03*
X0202406Y0024060D03*
X0215714Y0024060D03*
X0222406Y0024060D03*
X0222406Y0059060D03*
X0215714Y0059060D03*
X0202406Y0059060D03*
X0195714Y0059060D03*
X0195714Y0106060D03*
X0202406Y0106060D03*
X0215714Y0106060D03*
X0222406Y0106060D03*
X0222406Y0141060D03*
X0215714Y0141060D03*
X0202406Y0141060D03*
X0195714Y0141060D03*
X0195714Y0188060D03*
X0202406Y0188060D03*
X0215714Y0188060D03*
X0222406Y0188060D03*
X0222406Y0223060D03*
X0215714Y0223060D03*
X0202406Y0223060D03*
X0195714Y0223060D03*
D11*
X0179060Y0238060D03*
X0157060Y0238060D03*
X0097060Y0238060D03*
X0075060Y0238060D03*
X0015060Y0238060D03*
X0015060Y0156060D03*
X0075060Y0156060D03*
X0097060Y0156060D03*
X0157060Y0156060D03*
X0179060Y0156060D03*
X0239060Y0156060D03*
X0239060Y0238060D03*
X0239060Y0074060D03*
X0179060Y0074060D03*
X0157060Y0074060D03*
X0097060Y0074060D03*
X0075060Y0074060D03*
X0015060Y0074060D03*
D12*
X0010060Y0009060D03*
X0010060Y0019060D03*
X0010060Y0029060D03*
X0010060Y0039060D03*
X0010060Y0049060D03*
X0010060Y0059060D03*
X0010060Y0091060D03*
X0010060Y0101060D03*
X0010060Y0111060D03*
X0010060Y0121060D03*
X0010060Y0131060D03*
X0010060Y0141060D03*
X0010060Y0173060D03*
X0010060Y0183060D03*
X0010060Y0193060D03*
X0010060Y0203060D03*
X0010060Y0213060D03*
X0010060Y0223060D03*
X0080060Y0223060D03*
X0080060Y0213060D03*
X0080060Y0203060D03*
X0080060Y0193060D03*
X0080060Y0183060D03*
X0080060Y0173060D03*
X0092060Y0173060D03*
X0092060Y0183060D03*
X0092060Y0193060D03*
X0092060Y0203060D03*
X0092060Y0213060D03*
X0092060Y0223060D03*
X0162060Y0223060D03*
X0162060Y0213060D03*
X0162060Y0203060D03*
X0162060Y0193060D03*
X0162060Y0183060D03*
X0162060Y0173060D03*
X0174060Y0173060D03*
X0174060Y0183060D03*
X0174060Y0193060D03*
X0174060Y0203060D03*
X0174060Y0213060D03*
X0174060Y0223060D03*
X0244060Y0223060D03*
X0244060Y0213060D03*
X0244060Y0203060D03*
X0244060Y0193060D03*
X0244060Y0183060D03*
X0244060Y0173060D03*
X0244060Y0141060D03*
X0244060Y0131060D03*
X0244060Y0121060D03*
X0244060Y0111060D03*
X0244060Y0101060D03*
X0244060Y0091060D03*
X0244060Y0059060D03*
X0244060Y0049060D03*
X0244060Y0039060D03*
X0244060Y0029060D03*
X0244060Y0019060D03*
X0244060Y0009060D03*
X0174060Y0009060D03*
X0174060Y0019060D03*
X0174060Y0029060D03*
X0174060Y0039060D03*
X0174060Y0049060D03*
X0174060Y0059060D03*
X0162060Y0059060D03*
X0162060Y0049060D03*
X0162060Y0039060D03*
X0162060Y0029060D03*
X0162060Y0019060D03*
X0162060Y0009060D03*
X0092060Y0009060D03*
X0092060Y0019060D03*
X0092060Y0029060D03*
X0092060Y0039060D03*
X0092060Y0049060D03*
X0092060Y0059060D03*
X0080060Y0059060D03*
X0080060Y0049060D03*
X0080060Y0039060D03*
X0080060Y0029060D03*
X0080060Y0019060D03*
X0080060Y0009060D03*
X0080060Y0091060D03*
X0080060Y0101060D03*
X0080060Y0111060D03*
X0080060Y0121060D03*
X0080060Y0131060D03*
X0080060Y0141060D03*
X0092060Y0141060D03*
X0092060Y0131060D03*
X0092060Y0121060D03*
X0092060Y0111060D03*
X0092060Y0101060D03*
X0092060Y0091060D03*
X0162060Y0091060D03*
X0162060Y0101060D03*
X0162060Y0111060D03*
X0162060Y0121060D03*
X0162060Y0131060D03*
X0162060Y0141060D03*
X0174060Y0141060D03*
X0174060Y0131060D03*
X0174060Y0121060D03*
X0174060Y0111060D03*
X0174060Y0101060D03*
X0174060Y0091060D03*
D13*
X0189060Y0096060D03*
X0194060Y0101060D03*
X0209060Y0101060D03*
X0214060Y0101060D03*
X0209060Y0096060D03*
X0219060Y0118060D03*
X0224060Y0126060D03*
X0209060Y0126060D03*
X0209060Y0137060D03*
X0219060Y0146060D03*
X0224060Y0146060D03*
X0199060Y0146060D03*
X0189060Y0136060D03*
X0196560Y0131060D03*
X0194060Y0123560D03*
X0234060Y0106060D03*
X0224060Y0064060D03*
X0219060Y0064060D03*
X0209060Y0055060D03*
X0209060Y0044060D03*
X0219060Y0036060D03*
X0224060Y0044060D03*
X0234060Y0024060D03*
X0214060Y0019060D03*
X0209060Y0019060D03*
X0209060Y0014060D03*
X0194060Y0019060D03*
X0189060Y0014060D03*
X0194060Y0041560D03*
X0196560Y0049060D03*
X0189060Y0054060D03*
X0199060Y0064060D03*
X0152060Y0024060D03*
X0137060Y0036060D03*
X0142060Y0044060D03*
X0127060Y0044060D03*
X0127060Y0055060D03*
X0137060Y0064060D03*
X0142060Y0064060D03*
X0117060Y0064060D03*
X0107060Y0054060D03*
X0114560Y0049060D03*
X0112060Y0041560D03*
X0112060Y0019060D03*
X0107060Y0014060D03*
X0127060Y0014060D03*
X0127060Y0019060D03*
X0132060Y0019060D03*
X0070060Y0024060D03*
X0055060Y0036060D03*
X0060060Y0044060D03*
X0045060Y0044060D03*
X0045060Y0055060D03*
X0055060Y0064060D03*
X0060060Y0064060D03*
X0035060Y0064060D03*
X0025060Y0054060D03*
X0032560Y0049060D03*
X0030060Y0041560D03*
X0030060Y0019060D03*
X0025060Y0014060D03*
X0045060Y0014060D03*
X0045060Y0019060D03*
X0050060Y0019060D03*
X0045060Y0096060D03*
X0045060Y0101060D03*
X0050060Y0101060D03*
X0055060Y0118060D03*
X0060060Y0126060D03*
X0045060Y0126060D03*
X0045060Y0137060D03*
X0055060Y0146060D03*
X0060060Y0146060D03*
X0035060Y0146060D03*
X0025060Y0136060D03*
X0032560Y0131060D03*
X0030060Y0123560D03*
X0030060Y0101060D03*
X0025060Y0096060D03*
X0070060Y0106060D03*
X0107060Y0096060D03*
X0112060Y0101060D03*
X0127060Y0101060D03*
X0132060Y0101060D03*
X0127060Y0096060D03*
X0137060Y0118060D03*
X0142060Y0126060D03*
X0127060Y0126060D03*
X0127060Y0137060D03*
X0137060Y0146060D03*
X0142060Y0146060D03*
X0117060Y0146060D03*
X0107060Y0136060D03*
X0114560Y0131060D03*
X0112060Y0123560D03*
X0152060Y0106060D03*
X0127060Y0178060D03*
X0127060Y0183060D03*
X0132060Y0183060D03*
X0137060Y0200060D03*
X0142060Y0208060D03*
X0127060Y0208060D03*
X0127060Y0219060D03*
X0137060Y0228060D03*
X0142060Y0228060D03*
X0117060Y0228060D03*
X0107060Y0218060D03*
X0114560Y0213060D03*
X0112060Y0205560D03*
X0112060Y0183060D03*
X0107060Y0178060D03*
X0070060Y0188060D03*
X0055060Y0200060D03*
X0060060Y0208060D03*
X0045060Y0208060D03*
X0045060Y0219060D03*
X0055060Y0228060D03*
X0060060Y0228060D03*
X0035060Y0228060D03*
X0025060Y0218060D03*
X0032560Y0213060D03*
X0030060Y0205560D03*
X0030060Y0183060D03*
X0025060Y0178060D03*
X0045060Y0178060D03*
X0045060Y0183060D03*
X0050060Y0183060D03*
X0152060Y0188060D03*
X0189060Y0178060D03*
X0194060Y0183060D03*
X0209060Y0183060D03*
X0214060Y0183060D03*
X0209060Y0178060D03*
X0219060Y0200060D03*
X0224060Y0208060D03*
X0209060Y0208060D03*
X0209060Y0219060D03*
X0219060Y0228060D03*
X0224060Y0228060D03*
X0199060Y0228060D03*
X0189060Y0218060D03*
X0196560Y0213060D03*
X0194060Y0205560D03*
X0234060Y0188060D03*
M02*
