G75*
%MOIN*%
%OFA0B0*%
%FSLAX25Y25*%
%IPPOS*%
%LPD*%
%AMOC8*
5,1,8,0,0,1.08239X$1,22.5*
%
%ADD10C,0.00800*%
%ADD11C,0.00000*%
D10*
X0005060Y0004060D02*
X0005060Y0084060D01*
X0085060Y0084060D01*
X0085060Y0004060D01*
X0005060Y0004060D01*
X0087060Y0004060D02*
X0087060Y0084060D01*
X0167060Y0084060D01*
X0167060Y0004060D01*
X0087060Y0004060D01*
X0169060Y0004060D02*
X0169060Y0084060D01*
X0249060Y0084060D01*
X0249060Y0004060D01*
X0169060Y0004060D01*
X0169060Y0086060D02*
X0169060Y0166060D01*
X0249060Y0166060D01*
X0249060Y0086060D01*
X0169060Y0086060D01*
X0167060Y0086060D02*
X0167060Y0166060D01*
X0087060Y0166060D01*
X0087060Y0086060D01*
X0167060Y0086060D01*
X0085060Y0086060D02*
X0085060Y0166060D01*
X0005060Y0166060D01*
X0005060Y0086060D01*
X0085060Y0086060D01*
X0085060Y0168060D02*
X0005060Y0168060D01*
X0005060Y0248060D01*
X0085060Y0248060D01*
X0085060Y0168060D01*
X0087060Y0168060D02*
X0087060Y0248060D01*
X0167060Y0248060D01*
X0167060Y0168060D01*
X0087060Y0168060D01*
X0169060Y0168060D02*
X0169060Y0248060D01*
X0249060Y0248060D01*
X0249060Y0168060D01*
X0169060Y0168060D01*
D11*
X0172560Y0156060D02*
X0172562Y0156221D01*
X0172568Y0156381D01*
X0172578Y0156542D01*
X0172592Y0156702D01*
X0172610Y0156862D01*
X0172631Y0157021D01*
X0172657Y0157180D01*
X0172687Y0157338D01*
X0172720Y0157495D01*
X0172758Y0157652D01*
X0172799Y0157807D01*
X0172844Y0157961D01*
X0172893Y0158114D01*
X0172946Y0158266D01*
X0173002Y0158417D01*
X0173063Y0158566D01*
X0173126Y0158714D01*
X0173194Y0158860D01*
X0173265Y0159004D01*
X0173339Y0159146D01*
X0173417Y0159287D01*
X0173499Y0159425D01*
X0173584Y0159562D01*
X0173672Y0159696D01*
X0173764Y0159828D01*
X0173859Y0159958D01*
X0173957Y0160086D01*
X0174058Y0160211D01*
X0174162Y0160333D01*
X0174269Y0160453D01*
X0174379Y0160570D01*
X0174492Y0160685D01*
X0174608Y0160796D01*
X0174727Y0160905D01*
X0174848Y0161010D01*
X0174972Y0161113D01*
X0175098Y0161213D01*
X0175226Y0161309D01*
X0175357Y0161402D01*
X0175491Y0161492D01*
X0175626Y0161579D01*
X0175764Y0161662D01*
X0175903Y0161742D01*
X0176045Y0161818D01*
X0176188Y0161891D01*
X0176333Y0161960D01*
X0176480Y0162026D01*
X0176628Y0162088D01*
X0176778Y0162146D01*
X0176929Y0162201D01*
X0177082Y0162252D01*
X0177236Y0162299D01*
X0177391Y0162342D01*
X0177547Y0162381D01*
X0177703Y0162417D01*
X0177861Y0162448D01*
X0178019Y0162476D01*
X0178178Y0162500D01*
X0178338Y0162520D01*
X0178498Y0162536D01*
X0178658Y0162548D01*
X0178819Y0162556D01*
X0178980Y0162560D01*
X0179140Y0162560D01*
X0179301Y0162556D01*
X0179462Y0162548D01*
X0179622Y0162536D01*
X0179782Y0162520D01*
X0179942Y0162500D01*
X0180101Y0162476D01*
X0180259Y0162448D01*
X0180417Y0162417D01*
X0180573Y0162381D01*
X0180729Y0162342D01*
X0180884Y0162299D01*
X0181038Y0162252D01*
X0181191Y0162201D01*
X0181342Y0162146D01*
X0181492Y0162088D01*
X0181640Y0162026D01*
X0181787Y0161960D01*
X0181932Y0161891D01*
X0182075Y0161818D01*
X0182217Y0161742D01*
X0182356Y0161662D01*
X0182494Y0161579D01*
X0182629Y0161492D01*
X0182763Y0161402D01*
X0182894Y0161309D01*
X0183022Y0161213D01*
X0183148Y0161113D01*
X0183272Y0161010D01*
X0183393Y0160905D01*
X0183512Y0160796D01*
X0183628Y0160685D01*
X0183741Y0160570D01*
X0183851Y0160453D01*
X0183958Y0160333D01*
X0184062Y0160211D01*
X0184163Y0160086D01*
X0184261Y0159958D01*
X0184356Y0159828D01*
X0184448Y0159696D01*
X0184536Y0159562D01*
X0184621Y0159425D01*
X0184703Y0159287D01*
X0184781Y0159146D01*
X0184855Y0159004D01*
X0184926Y0158860D01*
X0184994Y0158714D01*
X0185057Y0158566D01*
X0185118Y0158417D01*
X0185174Y0158266D01*
X0185227Y0158114D01*
X0185276Y0157961D01*
X0185321Y0157807D01*
X0185362Y0157652D01*
X0185400Y0157495D01*
X0185433Y0157338D01*
X0185463Y0157180D01*
X0185489Y0157021D01*
X0185510Y0156862D01*
X0185528Y0156702D01*
X0185542Y0156542D01*
X0185552Y0156381D01*
X0185558Y0156221D01*
X0185560Y0156060D01*
X0185558Y0155899D01*
X0185552Y0155739D01*
X0185542Y0155578D01*
X0185528Y0155418D01*
X0185510Y0155258D01*
X0185489Y0155099D01*
X0185463Y0154940D01*
X0185433Y0154782D01*
X0185400Y0154625D01*
X0185362Y0154468D01*
X0185321Y0154313D01*
X0185276Y0154159D01*
X0185227Y0154006D01*
X0185174Y0153854D01*
X0185118Y0153703D01*
X0185057Y0153554D01*
X0184994Y0153406D01*
X0184926Y0153260D01*
X0184855Y0153116D01*
X0184781Y0152974D01*
X0184703Y0152833D01*
X0184621Y0152695D01*
X0184536Y0152558D01*
X0184448Y0152424D01*
X0184356Y0152292D01*
X0184261Y0152162D01*
X0184163Y0152034D01*
X0184062Y0151909D01*
X0183958Y0151787D01*
X0183851Y0151667D01*
X0183741Y0151550D01*
X0183628Y0151435D01*
X0183512Y0151324D01*
X0183393Y0151215D01*
X0183272Y0151110D01*
X0183148Y0151007D01*
X0183022Y0150907D01*
X0182894Y0150811D01*
X0182763Y0150718D01*
X0182629Y0150628D01*
X0182494Y0150541D01*
X0182356Y0150458D01*
X0182217Y0150378D01*
X0182075Y0150302D01*
X0181932Y0150229D01*
X0181787Y0150160D01*
X0181640Y0150094D01*
X0181492Y0150032D01*
X0181342Y0149974D01*
X0181191Y0149919D01*
X0181038Y0149868D01*
X0180884Y0149821D01*
X0180729Y0149778D01*
X0180573Y0149739D01*
X0180417Y0149703D01*
X0180259Y0149672D01*
X0180101Y0149644D01*
X0179942Y0149620D01*
X0179782Y0149600D01*
X0179622Y0149584D01*
X0179462Y0149572D01*
X0179301Y0149564D01*
X0179140Y0149560D01*
X0178980Y0149560D01*
X0178819Y0149564D01*
X0178658Y0149572D01*
X0178498Y0149584D01*
X0178338Y0149600D01*
X0178178Y0149620D01*
X0178019Y0149644D01*
X0177861Y0149672D01*
X0177703Y0149703D01*
X0177547Y0149739D01*
X0177391Y0149778D01*
X0177236Y0149821D01*
X0177082Y0149868D01*
X0176929Y0149919D01*
X0176778Y0149974D01*
X0176628Y0150032D01*
X0176480Y0150094D01*
X0176333Y0150160D01*
X0176188Y0150229D01*
X0176045Y0150302D01*
X0175903Y0150378D01*
X0175764Y0150458D01*
X0175626Y0150541D01*
X0175491Y0150628D01*
X0175357Y0150718D01*
X0175226Y0150811D01*
X0175098Y0150907D01*
X0174972Y0151007D01*
X0174848Y0151110D01*
X0174727Y0151215D01*
X0174608Y0151324D01*
X0174492Y0151435D01*
X0174379Y0151550D01*
X0174269Y0151667D01*
X0174162Y0151787D01*
X0174058Y0151909D01*
X0173957Y0152034D01*
X0173859Y0152162D01*
X0173764Y0152292D01*
X0173672Y0152424D01*
X0173584Y0152558D01*
X0173499Y0152695D01*
X0173417Y0152833D01*
X0173339Y0152974D01*
X0173265Y0153116D01*
X0173194Y0153260D01*
X0173126Y0153406D01*
X0173063Y0153554D01*
X0173002Y0153703D01*
X0172946Y0153854D01*
X0172893Y0154006D01*
X0172844Y0154159D01*
X0172799Y0154313D01*
X0172758Y0154468D01*
X0172720Y0154625D01*
X0172687Y0154782D01*
X0172657Y0154940D01*
X0172631Y0155099D01*
X0172610Y0155258D01*
X0172592Y0155418D01*
X0172578Y0155578D01*
X0172568Y0155739D01*
X0172562Y0155899D01*
X0172560Y0156060D01*
X0150560Y0156060D02*
X0150562Y0156221D01*
X0150568Y0156381D01*
X0150578Y0156542D01*
X0150592Y0156702D01*
X0150610Y0156862D01*
X0150631Y0157021D01*
X0150657Y0157180D01*
X0150687Y0157338D01*
X0150720Y0157495D01*
X0150758Y0157652D01*
X0150799Y0157807D01*
X0150844Y0157961D01*
X0150893Y0158114D01*
X0150946Y0158266D01*
X0151002Y0158417D01*
X0151063Y0158566D01*
X0151126Y0158714D01*
X0151194Y0158860D01*
X0151265Y0159004D01*
X0151339Y0159146D01*
X0151417Y0159287D01*
X0151499Y0159425D01*
X0151584Y0159562D01*
X0151672Y0159696D01*
X0151764Y0159828D01*
X0151859Y0159958D01*
X0151957Y0160086D01*
X0152058Y0160211D01*
X0152162Y0160333D01*
X0152269Y0160453D01*
X0152379Y0160570D01*
X0152492Y0160685D01*
X0152608Y0160796D01*
X0152727Y0160905D01*
X0152848Y0161010D01*
X0152972Y0161113D01*
X0153098Y0161213D01*
X0153226Y0161309D01*
X0153357Y0161402D01*
X0153491Y0161492D01*
X0153626Y0161579D01*
X0153764Y0161662D01*
X0153903Y0161742D01*
X0154045Y0161818D01*
X0154188Y0161891D01*
X0154333Y0161960D01*
X0154480Y0162026D01*
X0154628Y0162088D01*
X0154778Y0162146D01*
X0154929Y0162201D01*
X0155082Y0162252D01*
X0155236Y0162299D01*
X0155391Y0162342D01*
X0155547Y0162381D01*
X0155703Y0162417D01*
X0155861Y0162448D01*
X0156019Y0162476D01*
X0156178Y0162500D01*
X0156338Y0162520D01*
X0156498Y0162536D01*
X0156658Y0162548D01*
X0156819Y0162556D01*
X0156980Y0162560D01*
X0157140Y0162560D01*
X0157301Y0162556D01*
X0157462Y0162548D01*
X0157622Y0162536D01*
X0157782Y0162520D01*
X0157942Y0162500D01*
X0158101Y0162476D01*
X0158259Y0162448D01*
X0158417Y0162417D01*
X0158573Y0162381D01*
X0158729Y0162342D01*
X0158884Y0162299D01*
X0159038Y0162252D01*
X0159191Y0162201D01*
X0159342Y0162146D01*
X0159492Y0162088D01*
X0159640Y0162026D01*
X0159787Y0161960D01*
X0159932Y0161891D01*
X0160075Y0161818D01*
X0160217Y0161742D01*
X0160356Y0161662D01*
X0160494Y0161579D01*
X0160629Y0161492D01*
X0160763Y0161402D01*
X0160894Y0161309D01*
X0161022Y0161213D01*
X0161148Y0161113D01*
X0161272Y0161010D01*
X0161393Y0160905D01*
X0161512Y0160796D01*
X0161628Y0160685D01*
X0161741Y0160570D01*
X0161851Y0160453D01*
X0161958Y0160333D01*
X0162062Y0160211D01*
X0162163Y0160086D01*
X0162261Y0159958D01*
X0162356Y0159828D01*
X0162448Y0159696D01*
X0162536Y0159562D01*
X0162621Y0159425D01*
X0162703Y0159287D01*
X0162781Y0159146D01*
X0162855Y0159004D01*
X0162926Y0158860D01*
X0162994Y0158714D01*
X0163057Y0158566D01*
X0163118Y0158417D01*
X0163174Y0158266D01*
X0163227Y0158114D01*
X0163276Y0157961D01*
X0163321Y0157807D01*
X0163362Y0157652D01*
X0163400Y0157495D01*
X0163433Y0157338D01*
X0163463Y0157180D01*
X0163489Y0157021D01*
X0163510Y0156862D01*
X0163528Y0156702D01*
X0163542Y0156542D01*
X0163552Y0156381D01*
X0163558Y0156221D01*
X0163560Y0156060D01*
X0163558Y0155899D01*
X0163552Y0155739D01*
X0163542Y0155578D01*
X0163528Y0155418D01*
X0163510Y0155258D01*
X0163489Y0155099D01*
X0163463Y0154940D01*
X0163433Y0154782D01*
X0163400Y0154625D01*
X0163362Y0154468D01*
X0163321Y0154313D01*
X0163276Y0154159D01*
X0163227Y0154006D01*
X0163174Y0153854D01*
X0163118Y0153703D01*
X0163057Y0153554D01*
X0162994Y0153406D01*
X0162926Y0153260D01*
X0162855Y0153116D01*
X0162781Y0152974D01*
X0162703Y0152833D01*
X0162621Y0152695D01*
X0162536Y0152558D01*
X0162448Y0152424D01*
X0162356Y0152292D01*
X0162261Y0152162D01*
X0162163Y0152034D01*
X0162062Y0151909D01*
X0161958Y0151787D01*
X0161851Y0151667D01*
X0161741Y0151550D01*
X0161628Y0151435D01*
X0161512Y0151324D01*
X0161393Y0151215D01*
X0161272Y0151110D01*
X0161148Y0151007D01*
X0161022Y0150907D01*
X0160894Y0150811D01*
X0160763Y0150718D01*
X0160629Y0150628D01*
X0160494Y0150541D01*
X0160356Y0150458D01*
X0160217Y0150378D01*
X0160075Y0150302D01*
X0159932Y0150229D01*
X0159787Y0150160D01*
X0159640Y0150094D01*
X0159492Y0150032D01*
X0159342Y0149974D01*
X0159191Y0149919D01*
X0159038Y0149868D01*
X0158884Y0149821D01*
X0158729Y0149778D01*
X0158573Y0149739D01*
X0158417Y0149703D01*
X0158259Y0149672D01*
X0158101Y0149644D01*
X0157942Y0149620D01*
X0157782Y0149600D01*
X0157622Y0149584D01*
X0157462Y0149572D01*
X0157301Y0149564D01*
X0157140Y0149560D01*
X0156980Y0149560D01*
X0156819Y0149564D01*
X0156658Y0149572D01*
X0156498Y0149584D01*
X0156338Y0149600D01*
X0156178Y0149620D01*
X0156019Y0149644D01*
X0155861Y0149672D01*
X0155703Y0149703D01*
X0155547Y0149739D01*
X0155391Y0149778D01*
X0155236Y0149821D01*
X0155082Y0149868D01*
X0154929Y0149919D01*
X0154778Y0149974D01*
X0154628Y0150032D01*
X0154480Y0150094D01*
X0154333Y0150160D01*
X0154188Y0150229D01*
X0154045Y0150302D01*
X0153903Y0150378D01*
X0153764Y0150458D01*
X0153626Y0150541D01*
X0153491Y0150628D01*
X0153357Y0150718D01*
X0153226Y0150811D01*
X0153098Y0150907D01*
X0152972Y0151007D01*
X0152848Y0151110D01*
X0152727Y0151215D01*
X0152608Y0151324D01*
X0152492Y0151435D01*
X0152379Y0151550D01*
X0152269Y0151667D01*
X0152162Y0151787D01*
X0152058Y0151909D01*
X0151957Y0152034D01*
X0151859Y0152162D01*
X0151764Y0152292D01*
X0151672Y0152424D01*
X0151584Y0152558D01*
X0151499Y0152695D01*
X0151417Y0152833D01*
X0151339Y0152974D01*
X0151265Y0153116D01*
X0151194Y0153260D01*
X0151126Y0153406D01*
X0151063Y0153554D01*
X0151002Y0153703D01*
X0150946Y0153854D01*
X0150893Y0154006D01*
X0150844Y0154159D01*
X0150799Y0154313D01*
X0150758Y0154468D01*
X0150720Y0154625D01*
X0150687Y0154782D01*
X0150657Y0154940D01*
X0150631Y0155099D01*
X0150610Y0155258D01*
X0150592Y0155418D01*
X0150578Y0155578D01*
X0150568Y0155739D01*
X0150562Y0155899D01*
X0150560Y0156060D01*
X0090560Y0156060D02*
X0090562Y0156221D01*
X0090568Y0156381D01*
X0090578Y0156542D01*
X0090592Y0156702D01*
X0090610Y0156862D01*
X0090631Y0157021D01*
X0090657Y0157180D01*
X0090687Y0157338D01*
X0090720Y0157495D01*
X0090758Y0157652D01*
X0090799Y0157807D01*
X0090844Y0157961D01*
X0090893Y0158114D01*
X0090946Y0158266D01*
X0091002Y0158417D01*
X0091063Y0158566D01*
X0091126Y0158714D01*
X0091194Y0158860D01*
X0091265Y0159004D01*
X0091339Y0159146D01*
X0091417Y0159287D01*
X0091499Y0159425D01*
X0091584Y0159562D01*
X0091672Y0159696D01*
X0091764Y0159828D01*
X0091859Y0159958D01*
X0091957Y0160086D01*
X0092058Y0160211D01*
X0092162Y0160333D01*
X0092269Y0160453D01*
X0092379Y0160570D01*
X0092492Y0160685D01*
X0092608Y0160796D01*
X0092727Y0160905D01*
X0092848Y0161010D01*
X0092972Y0161113D01*
X0093098Y0161213D01*
X0093226Y0161309D01*
X0093357Y0161402D01*
X0093491Y0161492D01*
X0093626Y0161579D01*
X0093764Y0161662D01*
X0093903Y0161742D01*
X0094045Y0161818D01*
X0094188Y0161891D01*
X0094333Y0161960D01*
X0094480Y0162026D01*
X0094628Y0162088D01*
X0094778Y0162146D01*
X0094929Y0162201D01*
X0095082Y0162252D01*
X0095236Y0162299D01*
X0095391Y0162342D01*
X0095547Y0162381D01*
X0095703Y0162417D01*
X0095861Y0162448D01*
X0096019Y0162476D01*
X0096178Y0162500D01*
X0096338Y0162520D01*
X0096498Y0162536D01*
X0096658Y0162548D01*
X0096819Y0162556D01*
X0096980Y0162560D01*
X0097140Y0162560D01*
X0097301Y0162556D01*
X0097462Y0162548D01*
X0097622Y0162536D01*
X0097782Y0162520D01*
X0097942Y0162500D01*
X0098101Y0162476D01*
X0098259Y0162448D01*
X0098417Y0162417D01*
X0098573Y0162381D01*
X0098729Y0162342D01*
X0098884Y0162299D01*
X0099038Y0162252D01*
X0099191Y0162201D01*
X0099342Y0162146D01*
X0099492Y0162088D01*
X0099640Y0162026D01*
X0099787Y0161960D01*
X0099932Y0161891D01*
X0100075Y0161818D01*
X0100217Y0161742D01*
X0100356Y0161662D01*
X0100494Y0161579D01*
X0100629Y0161492D01*
X0100763Y0161402D01*
X0100894Y0161309D01*
X0101022Y0161213D01*
X0101148Y0161113D01*
X0101272Y0161010D01*
X0101393Y0160905D01*
X0101512Y0160796D01*
X0101628Y0160685D01*
X0101741Y0160570D01*
X0101851Y0160453D01*
X0101958Y0160333D01*
X0102062Y0160211D01*
X0102163Y0160086D01*
X0102261Y0159958D01*
X0102356Y0159828D01*
X0102448Y0159696D01*
X0102536Y0159562D01*
X0102621Y0159425D01*
X0102703Y0159287D01*
X0102781Y0159146D01*
X0102855Y0159004D01*
X0102926Y0158860D01*
X0102994Y0158714D01*
X0103057Y0158566D01*
X0103118Y0158417D01*
X0103174Y0158266D01*
X0103227Y0158114D01*
X0103276Y0157961D01*
X0103321Y0157807D01*
X0103362Y0157652D01*
X0103400Y0157495D01*
X0103433Y0157338D01*
X0103463Y0157180D01*
X0103489Y0157021D01*
X0103510Y0156862D01*
X0103528Y0156702D01*
X0103542Y0156542D01*
X0103552Y0156381D01*
X0103558Y0156221D01*
X0103560Y0156060D01*
X0103558Y0155899D01*
X0103552Y0155739D01*
X0103542Y0155578D01*
X0103528Y0155418D01*
X0103510Y0155258D01*
X0103489Y0155099D01*
X0103463Y0154940D01*
X0103433Y0154782D01*
X0103400Y0154625D01*
X0103362Y0154468D01*
X0103321Y0154313D01*
X0103276Y0154159D01*
X0103227Y0154006D01*
X0103174Y0153854D01*
X0103118Y0153703D01*
X0103057Y0153554D01*
X0102994Y0153406D01*
X0102926Y0153260D01*
X0102855Y0153116D01*
X0102781Y0152974D01*
X0102703Y0152833D01*
X0102621Y0152695D01*
X0102536Y0152558D01*
X0102448Y0152424D01*
X0102356Y0152292D01*
X0102261Y0152162D01*
X0102163Y0152034D01*
X0102062Y0151909D01*
X0101958Y0151787D01*
X0101851Y0151667D01*
X0101741Y0151550D01*
X0101628Y0151435D01*
X0101512Y0151324D01*
X0101393Y0151215D01*
X0101272Y0151110D01*
X0101148Y0151007D01*
X0101022Y0150907D01*
X0100894Y0150811D01*
X0100763Y0150718D01*
X0100629Y0150628D01*
X0100494Y0150541D01*
X0100356Y0150458D01*
X0100217Y0150378D01*
X0100075Y0150302D01*
X0099932Y0150229D01*
X0099787Y0150160D01*
X0099640Y0150094D01*
X0099492Y0150032D01*
X0099342Y0149974D01*
X0099191Y0149919D01*
X0099038Y0149868D01*
X0098884Y0149821D01*
X0098729Y0149778D01*
X0098573Y0149739D01*
X0098417Y0149703D01*
X0098259Y0149672D01*
X0098101Y0149644D01*
X0097942Y0149620D01*
X0097782Y0149600D01*
X0097622Y0149584D01*
X0097462Y0149572D01*
X0097301Y0149564D01*
X0097140Y0149560D01*
X0096980Y0149560D01*
X0096819Y0149564D01*
X0096658Y0149572D01*
X0096498Y0149584D01*
X0096338Y0149600D01*
X0096178Y0149620D01*
X0096019Y0149644D01*
X0095861Y0149672D01*
X0095703Y0149703D01*
X0095547Y0149739D01*
X0095391Y0149778D01*
X0095236Y0149821D01*
X0095082Y0149868D01*
X0094929Y0149919D01*
X0094778Y0149974D01*
X0094628Y0150032D01*
X0094480Y0150094D01*
X0094333Y0150160D01*
X0094188Y0150229D01*
X0094045Y0150302D01*
X0093903Y0150378D01*
X0093764Y0150458D01*
X0093626Y0150541D01*
X0093491Y0150628D01*
X0093357Y0150718D01*
X0093226Y0150811D01*
X0093098Y0150907D01*
X0092972Y0151007D01*
X0092848Y0151110D01*
X0092727Y0151215D01*
X0092608Y0151324D01*
X0092492Y0151435D01*
X0092379Y0151550D01*
X0092269Y0151667D01*
X0092162Y0151787D01*
X0092058Y0151909D01*
X0091957Y0152034D01*
X0091859Y0152162D01*
X0091764Y0152292D01*
X0091672Y0152424D01*
X0091584Y0152558D01*
X0091499Y0152695D01*
X0091417Y0152833D01*
X0091339Y0152974D01*
X0091265Y0153116D01*
X0091194Y0153260D01*
X0091126Y0153406D01*
X0091063Y0153554D01*
X0091002Y0153703D01*
X0090946Y0153854D01*
X0090893Y0154006D01*
X0090844Y0154159D01*
X0090799Y0154313D01*
X0090758Y0154468D01*
X0090720Y0154625D01*
X0090687Y0154782D01*
X0090657Y0154940D01*
X0090631Y0155099D01*
X0090610Y0155258D01*
X0090592Y0155418D01*
X0090578Y0155578D01*
X0090568Y0155739D01*
X0090562Y0155899D01*
X0090560Y0156060D01*
X0068560Y0156060D02*
X0068562Y0156221D01*
X0068568Y0156381D01*
X0068578Y0156542D01*
X0068592Y0156702D01*
X0068610Y0156862D01*
X0068631Y0157021D01*
X0068657Y0157180D01*
X0068687Y0157338D01*
X0068720Y0157495D01*
X0068758Y0157652D01*
X0068799Y0157807D01*
X0068844Y0157961D01*
X0068893Y0158114D01*
X0068946Y0158266D01*
X0069002Y0158417D01*
X0069063Y0158566D01*
X0069126Y0158714D01*
X0069194Y0158860D01*
X0069265Y0159004D01*
X0069339Y0159146D01*
X0069417Y0159287D01*
X0069499Y0159425D01*
X0069584Y0159562D01*
X0069672Y0159696D01*
X0069764Y0159828D01*
X0069859Y0159958D01*
X0069957Y0160086D01*
X0070058Y0160211D01*
X0070162Y0160333D01*
X0070269Y0160453D01*
X0070379Y0160570D01*
X0070492Y0160685D01*
X0070608Y0160796D01*
X0070727Y0160905D01*
X0070848Y0161010D01*
X0070972Y0161113D01*
X0071098Y0161213D01*
X0071226Y0161309D01*
X0071357Y0161402D01*
X0071491Y0161492D01*
X0071626Y0161579D01*
X0071764Y0161662D01*
X0071903Y0161742D01*
X0072045Y0161818D01*
X0072188Y0161891D01*
X0072333Y0161960D01*
X0072480Y0162026D01*
X0072628Y0162088D01*
X0072778Y0162146D01*
X0072929Y0162201D01*
X0073082Y0162252D01*
X0073236Y0162299D01*
X0073391Y0162342D01*
X0073547Y0162381D01*
X0073703Y0162417D01*
X0073861Y0162448D01*
X0074019Y0162476D01*
X0074178Y0162500D01*
X0074338Y0162520D01*
X0074498Y0162536D01*
X0074658Y0162548D01*
X0074819Y0162556D01*
X0074980Y0162560D01*
X0075140Y0162560D01*
X0075301Y0162556D01*
X0075462Y0162548D01*
X0075622Y0162536D01*
X0075782Y0162520D01*
X0075942Y0162500D01*
X0076101Y0162476D01*
X0076259Y0162448D01*
X0076417Y0162417D01*
X0076573Y0162381D01*
X0076729Y0162342D01*
X0076884Y0162299D01*
X0077038Y0162252D01*
X0077191Y0162201D01*
X0077342Y0162146D01*
X0077492Y0162088D01*
X0077640Y0162026D01*
X0077787Y0161960D01*
X0077932Y0161891D01*
X0078075Y0161818D01*
X0078217Y0161742D01*
X0078356Y0161662D01*
X0078494Y0161579D01*
X0078629Y0161492D01*
X0078763Y0161402D01*
X0078894Y0161309D01*
X0079022Y0161213D01*
X0079148Y0161113D01*
X0079272Y0161010D01*
X0079393Y0160905D01*
X0079512Y0160796D01*
X0079628Y0160685D01*
X0079741Y0160570D01*
X0079851Y0160453D01*
X0079958Y0160333D01*
X0080062Y0160211D01*
X0080163Y0160086D01*
X0080261Y0159958D01*
X0080356Y0159828D01*
X0080448Y0159696D01*
X0080536Y0159562D01*
X0080621Y0159425D01*
X0080703Y0159287D01*
X0080781Y0159146D01*
X0080855Y0159004D01*
X0080926Y0158860D01*
X0080994Y0158714D01*
X0081057Y0158566D01*
X0081118Y0158417D01*
X0081174Y0158266D01*
X0081227Y0158114D01*
X0081276Y0157961D01*
X0081321Y0157807D01*
X0081362Y0157652D01*
X0081400Y0157495D01*
X0081433Y0157338D01*
X0081463Y0157180D01*
X0081489Y0157021D01*
X0081510Y0156862D01*
X0081528Y0156702D01*
X0081542Y0156542D01*
X0081552Y0156381D01*
X0081558Y0156221D01*
X0081560Y0156060D01*
X0081558Y0155899D01*
X0081552Y0155739D01*
X0081542Y0155578D01*
X0081528Y0155418D01*
X0081510Y0155258D01*
X0081489Y0155099D01*
X0081463Y0154940D01*
X0081433Y0154782D01*
X0081400Y0154625D01*
X0081362Y0154468D01*
X0081321Y0154313D01*
X0081276Y0154159D01*
X0081227Y0154006D01*
X0081174Y0153854D01*
X0081118Y0153703D01*
X0081057Y0153554D01*
X0080994Y0153406D01*
X0080926Y0153260D01*
X0080855Y0153116D01*
X0080781Y0152974D01*
X0080703Y0152833D01*
X0080621Y0152695D01*
X0080536Y0152558D01*
X0080448Y0152424D01*
X0080356Y0152292D01*
X0080261Y0152162D01*
X0080163Y0152034D01*
X0080062Y0151909D01*
X0079958Y0151787D01*
X0079851Y0151667D01*
X0079741Y0151550D01*
X0079628Y0151435D01*
X0079512Y0151324D01*
X0079393Y0151215D01*
X0079272Y0151110D01*
X0079148Y0151007D01*
X0079022Y0150907D01*
X0078894Y0150811D01*
X0078763Y0150718D01*
X0078629Y0150628D01*
X0078494Y0150541D01*
X0078356Y0150458D01*
X0078217Y0150378D01*
X0078075Y0150302D01*
X0077932Y0150229D01*
X0077787Y0150160D01*
X0077640Y0150094D01*
X0077492Y0150032D01*
X0077342Y0149974D01*
X0077191Y0149919D01*
X0077038Y0149868D01*
X0076884Y0149821D01*
X0076729Y0149778D01*
X0076573Y0149739D01*
X0076417Y0149703D01*
X0076259Y0149672D01*
X0076101Y0149644D01*
X0075942Y0149620D01*
X0075782Y0149600D01*
X0075622Y0149584D01*
X0075462Y0149572D01*
X0075301Y0149564D01*
X0075140Y0149560D01*
X0074980Y0149560D01*
X0074819Y0149564D01*
X0074658Y0149572D01*
X0074498Y0149584D01*
X0074338Y0149600D01*
X0074178Y0149620D01*
X0074019Y0149644D01*
X0073861Y0149672D01*
X0073703Y0149703D01*
X0073547Y0149739D01*
X0073391Y0149778D01*
X0073236Y0149821D01*
X0073082Y0149868D01*
X0072929Y0149919D01*
X0072778Y0149974D01*
X0072628Y0150032D01*
X0072480Y0150094D01*
X0072333Y0150160D01*
X0072188Y0150229D01*
X0072045Y0150302D01*
X0071903Y0150378D01*
X0071764Y0150458D01*
X0071626Y0150541D01*
X0071491Y0150628D01*
X0071357Y0150718D01*
X0071226Y0150811D01*
X0071098Y0150907D01*
X0070972Y0151007D01*
X0070848Y0151110D01*
X0070727Y0151215D01*
X0070608Y0151324D01*
X0070492Y0151435D01*
X0070379Y0151550D01*
X0070269Y0151667D01*
X0070162Y0151787D01*
X0070058Y0151909D01*
X0069957Y0152034D01*
X0069859Y0152162D01*
X0069764Y0152292D01*
X0069672Y0152424D01*
X0069584Y0152558D01*
X0069499Y0152695D01*
X0069417Y0152833D01*
X0069339Y0152974D01*
X0069265Y0153116D01*
X0069194Y0153260D01*
X0069126Y0153406D01*
X0069063Y0153554D01*
X0069002Y0153703D01*
X0068946Y0153854D01*
X0068893Y0154006D01*
X0068844Y0154159D01*
X0068799Y0154313D01*
X0068758Y0154468D01*
X0068720Y0154625D01*
X0068687Y0154782D01*
X0068657Y0154940D01*
X0068631Y0155099D01*
X0068610Y0155258D01*
X0068592Y0155418D01*
X0068578Y0155578D01*
X0068568Y0155739D01*
X0068562Y0155899D01*
X0068560Y0156060D01*
X0008560Y0156060D02*
X0008562Y0156221D01*
X0008568Y0156381D01*
X0008578Y0156542D01*
X0008592Y0156702D01*
X0008610Y0156862D01*
X0008631Y0157021D01*
X0008657Y0157180D01*
X0008687Y0157338D01*
X0008720Y0157495D01*
X0008758Y0157652D01*
X0008799Y0157807D01*
X0008844Y0157961D01*
X0008893Y0158114D01*
X0008946Y0158266D01*
X0009002Y0158417D01*
X0009063Y0158566D01*
X0009126Y0158714D01*
X0009194Y0158860D01*
X0009265Y0159004D01*
X0009339Y0159146D01*
X0009417Y0159287D01*
X0009499Y0159425D01*
X0009584Y0159562D01*
X0009672Y0159696D01*
X0009764Y0159828D01*
X0009859Y0159958D01*
X0009957Y0160086D01*
X0010058Y0160211D01*
X0010162Y0160333D01*
X0010269Y0160453D01*
X0010379Y0160570D01*
X0010492Y0160685D01*
X0010608Y0160796D01*
X0010727Y0160905D01*
X0010848Y0161010D01*
X0010972Y0161113D01*
X0011098Y0161213D01*
X0011226Y0161309D01*
X0011357Y0161402D01*
X0011491Y0161492D01*
X0011626Y0161579D01*
X0011764Y0161662D01*
X0011903Y0161742D01*
X0012045Y0161818D01*
X0012188Y0161891D01*
X0012333Y0161960D01*
X0012480Y0162026D01*
X0012628Y0162088D01*
X0012778Y0162146D01*
X0012929Y0162201D01*
X0013082Y0162252D01*
X0013236Y0162299D01*
X0013391Y0162342D01*
X0013547Y0162381D01*
X0013703Y0162417D01*
X0013861Y0162448D01*
X0014019Y0162476D01*
X0014178Y0162500D01*
X0014338Y0162520D01*
X0014498Y0162536D01*
X0014658Y0162548D01*
X0014819Y0162556D01*
X0014980Y0162560D01*
X0015140Y0162560D01*
X0015301Y0162556D01*
X0015462Y0162548D01*
X0015622Y0162536D01*
X0015782Y0162520D01*
X0015942Y0162500D01*
X0016101Y0162476D01*
X0016259Y0162448D01*
X0016417Y0162417D01*
X0016573Y0162381D01*
X0016729Y0162342D01*
X0016884Y0162299D01*
X0017038Y0162252D01*
X0017191Y0162201D01*
X0017342Y0162146D01*
X0017492Y0162088D01*
X0017640Y0162026D01*
X0017787Y0161960D01*
X0017932Y0161891D01*
X0018075Y0161818D01*
X0018217Y0161742D01*
X0018356Y0161662D01*
X0018494Y0161579D01*
X0018629Y0161492D01*
X0018763Y0161402D01*
X0018894Y0161309D01*
X0019022Y0161213D01*
X0019148Y0161113D01*
X0019272Y0161010D01*
X0019393Y0160905D01*
X0019512Y0160796D01*
X0019628Y0160685D01*
X0019741Y0160570D01*
X0019851Y0160453D01*
X0019958Y0160333D01*
X0020062Y0160211D01*
X0020163Y0160086D01*
X0020261Y0159958D01*
X0020356Y0159828D01*
X0020448Y0159696D01*
X0020536Y0159562D01*
X0020621Y0159425D01*
X0020703Y0159287D01*
X0020781Y0159146D01*
X0020855Y0159004D01*
X0020926Y0158860D01*
X0020994Y0158714D01*
X0021057Y0158566D01*
X0021118Y0158417D01*
X0021174Y0158266D01*
X0021227Y0158114D01*
X0021276Y0157961D01*
X0021321Y0157807D01*
X0021362Y0157652D01*
X0021400Y0157495D01*
X0021433Y0157338D01*
X0021463Y0157180D01*
X0021489Y0157021D01*
X0021510Y0156862D01*
X0021528Y0156702D01*
X0021542Y0156542D01*
X0021552Y0156381D01*
X0021558Y0156221D01*
X0021560Y0156060D01*
X0021558Y0155899D01*
X0021552Y0155739D01*
X0021542Y0155578D01*
X0021528Y0155418D01*
X0021510Y0155258D01*
X0021489Y0155099D01*
X0021463Y0154940D01*
X0021433Y0154782D01*
X0021400Y0154625D01*
X0021362Y0154468D01*
X0021321Y0154313D01*
X0021276Y0154159D01*
X0021227Y0154006D01*
X0021174Y0153854D01*
X0021118Y0153703D01*
X0021057Y0153554D01*
X0020994Y0153406D01*
X0020926Y0153260D01*
X0020855Y0153116D01*
X0020781Y0152974D01*
X0020703Y0152833D01*
X0020621Y0152695D01*
X0020536Y0152558D01*
X0020448Y0152424D01*
X0020356Y0152292D01*
X0020261Y0152162D01*
X0020163Y0152034D01*
X0020062Y0151909D01*
X0019958Y0151787D01*
X0019851Y0151667D01*
X0019741Y0151550D01*
X0019628Y0151435D01*
X0019512Y0151324D01*
X0019393Y0151215D01*
X0019272Y0151110D01*
X0019148Y0151007D01*
X0019022Y0150907D01*
X0018894Y0150811D01*
X0018763Y0150718D01*
X0018629Y0150628D01*
X0018494Y0150541D01*
X0018356Y0150458D01*
X0018217Y0150378D01*
X0018075Y0150302D01*
X0017932Y0150229D01*
X0017787Y0150160D01*
X0017640Y0150094D01*
X0017492Y0150032D01*
X0017342Y0149974D01*
X0017191Y0149919D01*
X0017038Y0149868D01*
X0016884Y0149821D01*
X0016729Y0149778D01*
X0016573Y0149739D01*
X0016417Y0149703D01*
X0016259Y0149672D01*
X0016101Y0149644D01*
X0015942Y0149620D01*
X0015782Y0149600D01*
X0015622Y0149584D01*
X0015462Y0149572D01*
X0015301Y0149564D01*
X0015140Y0149560D01*
X0014980Y0149560D01*
X0014819Y0149564D01*
X0014658Y0149572D01*
X0014498Y0149584D01*
X0014338Y0149600D01*
X0014178Y0149620D01*
X0014019Y0149644D01*
X0013861Y0149672D01*
X0013703Y0149703D01*
X0013547Y0149739D01*
X0013391Y0149778D01*
X0013236Y0149821D01*
X0013082Y0149868D01*
X0012929Y0149919D01*
X0012778Y0149974D01*
X0012628Y0150032D01*
X0012480Y0150094D01*
X0012333Y0150160D01*
X0012188Y0150229D01*
X0012045Y0150302D01*
X0011903Y0150378D01*
X0011764Y0150458D01*
X0011626Y0150541D01*
X0011491Y0150628D01*
X0011357Y0150718D01*
X0011226Y0150811D01*
X0011098Y0150907D01*
X0010972Y0151007D01*
X0010848Y0151110D01*
X0010727Y0151215D01*
X0010608Y0151324D01*
X0010492Y0151435D01*
X0010379Y0151550D01*
X0010269Y0151667D01*
X0010162Y0151787D01*
X0010058Y0151909D01*
X0009957Y0152034D01*
X0009859Y0152162D01*
X0009764Y0152292D01*
X0009672Y0152424D01*
X0009584Y0152558D01*
X0009499Y0152695D01*
X0009417Y0152833D01*
X0009339Y0152974D01*
X0009265Y0153116D01*
X0009194Y0153260D01*
X0009126Y0153406D01*
X0009063Y0153554D01*
X0009002Y0153703D01*
X0008946Y0153854D01*
X0008893Y0154006D01*
X0008844Y0154159D01*
X0008799Y0154313D01*
X0008758Y0154468D01*
X0008720Y0154625D01*
X0008687Y0154782D01*
X0008657Y0154940D01*
X0008631Y0155099D01*
X0008610Y0155258D01*
X0008592Y0155418D01*
X0008578Y0155578D01*
X0008568Y0155739D01*
X0008562Y0155899D01*
X0008560Y0156060D01*
X0008560Y0238060D02*
X0008562Y0238221D01*
X0008568Y0238381D01*
X0008578Y0238542D01*
X0008592Y0238702D01*
X0008610Y0238862D01*
X0008631Y0239021D01*
X0008657Y0239180D01*
X0008687Y0239338D01*
X0008720Y0239495D01*
X0008758Y0239652D01*
X0008799Y0239807D01*
X0008844Y0239961D01*
X0008893Y0240114D01*
X0008946Y0240266D01*
X0009002Y0240417D01*
X0009063Y0240566D01*
X0009126Y0240714D01*
X0009194Y0240860D01*
X0009265Y0241004D01*
X0009339Y0241146D01*
X0009417Y0241287D01*
X0009499Y0241425D01*
X0009584Y0241562D01*
X0009672Y0241696D01*
X0009764Y0241828D01*
X0009859Y0241958D01*
X0009957Y0242086D01*
X0010058Y0242211D01*
X0010162Y0242333D01*
X0010269Y0242453D01*
X0010379Y0242570D01*
X0010492Y0242685D01*
X0010608Y0242796D01*
X0010727Y0242905D01*
X0010848Y0243010D01*
X0010972Y0243113D01*
X0011098Y0243213D01*
X0011226Y0243309D01*
X0011357Y0243402D01*
X0011491Y0243492D01*
X0011626Y0243579D01*
X0011764Y0243662D01*
X0011903Y0243742D01*
X0012045Y0243818D01*
X0012188Y0243891D01*
X0012333Y0243960D01*
X0012480Y0244026D01*
X0012628Y0244088D01*
X0012778Y0244146D01*
X0012929Y0244201D01*
X0013082Y0244252D01*
X0013236Y0244299D01*
X0013391Y0244342D01*
X0013547Y0244381D01*
X0013703Y0244417D01*
X0013861Y0244448D01*
X0014019Y0244476D01*
X0014178Y0244500D01*
X0014338Y0244520D01*
X0014498Y0244536D01*
X0014658Y0244548D01*
X0014819Y0244556D01*
X0014980Y0244560D01*
X0015140Y0244560D01*
X0015301Y0244556D01*
X0015462Y0244548D01*
X0015622Y0244536D01*
X0015782Y0244520D01*
X0015942Y0244500D01*
X0016101Y0244476D01*
X0016259Y0244448D01*
X0016417Y0244417D01*
X0016573Y0244381D01*
X0016729Y0244342D01*
X0016884Y0244299D01*
X0017038Y0244252D01*
X0017191Y0244201D01*
X0017342Y0244146D01*
X0017492Y0244088D01*
X0017640Y0244026D01*
X0017787Y0243960D01*
X0017932Y0243891D01*
X0018075Y0243818D01*
X0018217Y0243742D01*
X0018356Y0243662D01*
X0018494Y0243579D01*
X0018629Y0243492D01*
X0018763Y0243402D01*
X0018894Y0243309D01*
X0019022Y0243213D01*
X0019148Y0243113D01*
X0019272Y0243010D01*
X0019393Y0242905D01*
X0019512Y0242796D01*
X0019628Y0242685D01*
X0019741Y0242570D01*
X0019851Y0242453D01*
X0019958Y0242333D01*
X0020062Y0242211D01*
X0020163Y0242086D01*
X0020261Y0241958D01*
X0020356Y0241828D01*
X0020448Y0241696D01*
X0020536Y0241562D01*
X0020621Y0241425D01*
X0020703Y0241287D01*
X0020781Y0241146D01*
X0020855Y0241004D01*
X0020926Y0240860D01*
X0020994Y0240714D01*
X0021057Y0240566D01*
X0021118Y0240417D01*
X0021174Y0240266D01*
X0021227Y0240114D01*
X0021276Y0239961D01*
X0021321Y0239807D01*
X0021362Y0239652D01*
X0021400Y0239495D01*
X0021433Y0239338D01*
X0021463Y0239180D01*
X0021489Y0239021D01*
X0021510Y0238862D01*
X0021528Y0238702D01*
X0021542Y0238542D01*
X0021552Y0238381D01*
X0021558Y0238221D01*
X0021560Y0238060D01*
X0021558Y0237899D01*
X0021552Y0237739D01*
X0021542Y0237578D01*
X0021528Y0237418D01*
X0021510Y0237258D01*
X0021489Y0237099D01*
X0021463Y0236940D01*
X0021433Y0236782D01*
X0021400Y0236625D01*
X0021362Y0236468D01*
X0021321Y0236313D01*
X0021276Y0236159D01*
X0021227Y0236006D01*
X0021174Y0235854D01*
X0021118Y0235703D01*
X0021057Y0235554D01*
X0020994Y0235406D01*
X0020926Y0235260D01*
X0020855Y0235116D01*
X0020781Y0234974D01*
X0020703Y0234833D01*
X0020621Y0234695D01*
X0020536Y0234558D01*
X0020448Y0234424D01*
X0020356Y0234292D01*
X0020261Y0234162D01*
X0020163Y0234034D01*
X0020062Y0233909D01*
X0019958Y0233787D01*
X0019851Y0233667D01*
X0019741Y0233550D01*
X0019628Y0233435D01*
X0019512Y0233324D01*
X0019393Y0233215D01*
X0019272Y0233110D01*
X0019148Y0233007D01*
X0019022Y0232907D01*
X0018894Y0232811D01*
X0018763Y0232718D01*
X0018629Y0232628D01*
X0018494Y0232541D01*
X0018356Y0232458D01*
X0018217Y0232378D01*
X0018075Y0232302D01*
X0017932Y0232229D01*
X0017787Y0232160D01*
X0017640Y0232094D01*
X0017492Y0232032D01*
X0017342Y0231974D01*
X0017191Y0231919D01*
X0017038Y0231868D01*
X0016884Y0231821D01*
X0016729Y0231778D01*
X0016573Y0231739D01*
X0016417Y0231703D01*
X0016259Y0231672D01*
X0016101Y0231644D01*
X0015942Y0231620D01*
X0015782Y0231600D01*
X0015622Y0231584D01*
X0015462Y0231572D01*
X0015301Y0231564D01*
X0015140Y0231560D01*
X0014980Y0231560D01*
X0014819Y0231564D01*
X0014658Y0231572D01*
X0014498Y0231584D01*
X0014338Y0231600D01*
X0014178Y0231620D01*
X0014019Y0231644D01*
X0013861Y0231672D01*
X0013703Y0231703D01*
X0013547Y0231739D01*
X0013391Y0231778D01*
X0013236Y0231821D01*
X0013082Y0231868D01*
X0012929Y0231919D01*
X0012778Y0231974D01*
X0012628Y0232032D01*
X0012480Y0232094D01*
X0012333Y0232160D01*
X0012188Y0232229D01*
X0012045Y0232302D01*
X0011903Y0232378D01*
X0011764Y0232458D01*
X0011626Y0232541D01*
X0011491Y0232628D01*
X0011357Y0232718D01*
X0011226Y0232811D01*
X0011098Y0232907D01*
X0010972Y0233007D01*
X0010848Y0233110D01*
X0010727Y0233215D01*
X0010608Y0233324D01*
X0010492Y0233435D01*
X0010379Y0233550D01*
X0010269Y0233667D01*
X0010162Y0233787D01*
X0010058Y0233909D01*
X0009957Y0234034D01*
X0009859Y0234162D01*
X0009764Y0234292D01*
X0009672Y0234424D01*
X0009584Y0234558D01*
X0009499Y0234695D01*
X0009417Y0234833D01*
X0009339Y0234974D01*
X0009265Y0235116D01*
X0009194Y0235260D01*
X0009126Y0235406D01*
X0009063Y0235554D01*
X0009002Y0235703D01*
X0008946Y0235854D01*
X0008893Y0236006D01*
X0008844Y0236159D01*
X0008799Y0236313D01*
X0008758Y0236468D01*
X0008720Y0236625D01*
X0008687Y0236782D01*
X0008657Y0236940D01*
X0008631Y0237099D01*
X0008610Y0237258D01*
X0008592Y0237418D01*
X0008578Y0237578D01*
X0008568Y0237739D01*
X0008562Y0237899D01*
X0008560Y0238060D01*
X0068560Y0238060D02*
X0068562Y0238221D01*
X0068568Y0238381D01*
X0068578Y0238542D01*
X0068592Y0238702D01*
X0068610Y0238862D01*
X0068631Y0239021D01*
X0068657Y0239180D01*
X0068687Y0239338D01*
X0068720Y0239495D01*
X0068758Y0239652D01*
X0068799Y0239807D01*
X0068844Y0239961D01*
X0068893Y0240114D01*
X0068946Y0240266D01*
X0069002Y0240417D01*
X0069063Y0240566D01*
X0069126Y0240714D01*
X0069194Y0240860D01*
X0069265Y0241004D01*
X0069339Y0241146D01*
X0069417Y0241287D01*
X0069499Y0241425D01*
X0069584Y0241562D01*
X0069672Y0241696D01*
X0069764Y0241828D01*
X0069859Y0241958D01*
X0069957Y0242086D01*
X0070058Y0242211D01*
X0070162Y0242333D01*
X0070269Y0242453D01*
X0070379Y0242570D01*
X0070492Y0242685D01*
X0070608Y0242796D01*
X0070727Y0242905D01*
X0070848Y0243010D01*
X0070972Y0243113D01*
X0071098Y0243213D01*
X0071226Y0243309D01*
X0071357Y0243402D01*
X0071491Y0243492D01*
X0071626Y0243579D01*
X0071764Y0243662D01*
X0071903Y0243742D01*
X0072045Y0243818D01*
X0072188Y0243891D01*
X0072333Y0243960D01*
X0072480Y0244026D01*
X0072628Y0244088D01*
X0072778Y0244146D01*
X0072929Y0244201D01*
X0073082Y0244252D01*
X0073236Y0244299D01*
X0073391Y0244342D01*
X0073547Y0244381D01*
X0073703Y0244417D01*
X0073861Y0244448D01*
X0074019Y0244476D01*
X0074178Y0244500D01*
X0074338Y0244520D01*
X0074498Y0244536D01*
X0074658Y0244548D01*
X0074819Y0244556D01*
X0074980Y0244560D01*
X0075140Y0244560D01*
X0075301Y0244556D01*
X0075462Y0244548D01*
X0075622Y0244536D01*
X0075782Y0244520D01*
X0075942Y0244500D01*
X0076101Y0244476D01*
X0076259Y0244448D01*
X0076417Y0244417D01*
X0076573Y0244381D01*
X0076729Y0244342D01*
X0076884Y0244299D01*
X0077038Y0244252D01*
X0077191Y0244201D01*
X0077342Y0244146D01*
X0077492Y0244088D01*
X0077640Y0244026D01*
X0077787Y0243960D01*
X0077932Y0243891D01*
X0078075Y0243818D01*
X0078217Y0243742D01*
X0078356Y0243662D01*
X0078494Y0243579D01*
X0078629Y0243492D01*
X0078763Y0243402D01*
X0078894Y0243309D01*
X0079022Y0243213D01*
X0079148Y0243113D01*
X0079272Y0243010D01*
X0079393Y0242905D01*
X0079512Y0242796D01*
X0079628Y0242685D01*
X0079741Y0242570D01*
X0079851Y0242453D01*
X0079958Y0242333D01*
X0080062Y0242211D01*
X0080163Y0242086D01*
X0080261Y0241958D01*
X0080356Y0241828D01*
X0080448Y0241696D01*
X0080536Y0241562D01*
X0080621Y0241425D01*
X0080703Y0241287D01*
X0080781Y0241146D01*
X0080855Y0241004D01*
X0080926Y0240860D01*
X0080994Y0240714D01*
X0081057Y0240566D01*
X0081118Y0240417D01*
X0081174Y0240266D01*
X0081227Y0240114D01*
X0081276Y0239961D01*
X0081321Y0239807D01*
X0081362Y0239652D01*
X0081400Y0239495D01*
X0081433Y0239338D01*
X0081463Y0239180D01*
X0081489Y0239021D01*
X0081510Y0238862D01*
X0081528Y0238702D01*
X0081542Y0238542D01*
X0081552Y0238381D01*
X0081558Y0238221D01*
X0081560Y0238060D01*
X0081558Y0237899D01*
X0081552Y0237739D01*
X0081542Y0237578D01*
X0081528Y0237418D01*
X0081510Y0237258D01*
X0081489Y0237099D01*
X0081463Y0236940D01*
X0081433Y0236782D01*
X0081400Y0236625D01*
X0081362Y0236468D01*
X0081321Y0236313D01*
X0081276Y0236159D01*
X0081227Y0236006D01*
X0081174Y0235854D01*
X0081118Y0235703D01*
X0081057Y0235554D01*
X0080994Y0235406D01*
X0080926Y0235260D01*
X0080855Y0235116D01*
X0080781Y0234974D01*
X0080703Y0234833D01*
X0080621Y0234695D01*
X0080536Y0234558D01*
X0080448Y0234424D01*
X0080356Y0234292D01*
X0080261Y0234162D01*
X0080163Y0234034D01*
X0080062Y0233909D01*
X0079958Y0233787D01*
X0079851Y0233667D01*
X0079741Y0233550D01*
X0079628Y0233435D01*
X0079512Y0233324D01*
X0079393Y0233215D01*
X0079272Y0233110D01*
X0079148Y0233007D01*
X0079022Y0232907D01*
X0078894Y0232811D01*
X0078763Y0232718D01*
X0078629Y0232628D01*
X0078494Y0232541D01*
X0078356Y0232458D01*
X0078217Y0232378D01*
X0078075Y0232302D01*
X0077932Y0232229D01*
X0077787Y0232160D01*
X0077640Y0232094D01*
X0077492Y0232032D01*
X0077342Y0231974D01*
X0077191Y0231919D01*
X0077038Y0231868D01*
X0076884Y0231821D01*
X0076729Y0231778D01*
X0076573Y0231739D01*
X0076417Y0231703D01*
X0076259Y0231672D01*
X0076101Y0231644D01*
X0075942Y0231620D01*
X0075782Y0231600D01*
X0075622Y0231584D01*
X0075462Y0231572D01*
X0075301Y0231564D01*
X0075140Y0231560D01*
X0074980Y0231560D01*
X0074819Y0231564D01*
X0074658Y0231572D01*
X0074498Y0231584D01*
X0074338Y0231600D01*
X0074178Y0231620D01*
X0074019Y0231644D01*
X0073861Y0231672D01*
X0073703Y0231703D01*
X0073547Y0231739D01*
X0073391Y0231778D01*
X0073236Y0231821D01*
X0073082Y0231868D01*
X0072929Y0231919D01*
X0072778Y0231974D01*
X0072628Y0232032D01*
X0072480Y0232094D01*
X0072333Y0232160D01*
X0072188Y0232229D01*
X0072045Y0232302D01*
X0071903Y0232378D01*
X0071764Y0232458D01*
X0071626Y0232541D01*
X0071491Y0232628D01*
X0071357Y0232718D01*
X0071226Y0232811D01*
X0071098Y0232907D01*
X0070972Y0233007D01*
X0070848Y0233110D01*
X0070727Y0233215D01*
X0070608Y0233324D01*
X0070492Y0233435D01*
X0070379Y0233550D01*
X0070269Y0233667D01*
X0070162Y0233787D01*
X0070058Y0233909D01*
X0069957Y0234034D01*
X0069859Y0234162D01*
X0069764Y0234292D01*
X0069672Y0234424D01*
X0069584Y0234558D01*
X0069499Y0234695D01*
X0069417Y0234833D01*
X0069339Y0234974D01*
X0069265Y0235116D01*
X0069194Y0235260D01*
X0069126Y0235406D01*
X0069063Y0235554D01*
X0069002Y0235703D01*
X0068946Y0235854D01*
X0068893Y0236006D01*
X0068844Y0236159D01*
X0068799Y0236313D01*
X0068758Y0236468D01*
X0068720Y0236625D01*
X0068687Y0236782D01*
X0068657Y0236940D01*
X0068631Y0237099D01*
X0068610Y0237258D01*
X0068592Y0237418D01*
X0068578Y0237578D01*
X0068568Y0237739D01*
X0068562Y0237899D01*
X0068560Y0238060D01*
X0090560Y0238060D02*
X0090562Y0238221D01*
X0090568Y0238381D01*
X0090578Y0238542D01*
X0090592Y0238702D01*
X0090610Y0238862D01*
X0090631Y0239021D01*
X0090657Y0239180D01*
X0090687Y0239338D01*
X0090720Y0239495D01*
X0090758Y0239652D01*
X0090799Y0239807D01*
X0090844Y0239961D01*
X0090893Y0240114D01*
X0090946Y0240266D01*
X0091002Y0240417D01*
X0091063Y0240566D01*
X0091126Y0240714D01*
X0091194Y0240860D01*
X0091265Y0241004D01*
X0091339Y0241146D01*
X0091417Y0241287D01*
X0091499Y0241425D01*
X0091584Y0241562D01*
X0091672Y0241696D01*
X0091764Y0241828D01*
X0091859Y0241958D01*
X0091957Y0242086D01*
X0092058Y0242211D01*
X0092162Y0242333D01*
X0092269Y0242453D01*
X0092379Y0242570D01*
X0092492Y0242685D01*
X0092608Y0242796D01*
X0092727Y0242905D01*
X0092848Y0243010D01*
X0092972Y0243113D01*
X0093098Y0243213D01*
X0093226Y0243309D01*
X0093357Y0243402D01*
X0093491Y0243492D01*
X0093626Y0243579D01*
X0093764Y0243662D01*
X0093903Y0243742D01*
X0094045Y0243818D01*
X0094188Y0243891D01*
X0094333Y0243960D01*
X0094480Y0244026D01*
X0094628Y0244088D01*
X0094778Y0244146D01*
X0094929Y0244201D01*
X0095082Y0244252D01*
X0095236Y0244299D01*
X0095391Y0244342D01*
X0095547Y0244381D01*
X0095703Y0244417D01*
X0095861Y0244448D01*
X0096019Y0244476D01*
X0096178Y0244500D01*
X0096338Y0244520D01*
X0096498Y0244536D01*
X0096658Y0244548D01*
X0096819Y0244556D01*
X0096980Y0244560D01*
X0097140Y0244560D01*
X0097301Y0244556D01*
X0097462Y0244548D01*
X0097622Y0244536D01*
X0097782Y0244520D01*
X0097942Y0244500D01*
X0098101Y0244476D01*
X0098259Y0244448D01*
X0098417Y0244417D01*
X0098573Y0244381D01*
X0098729Y0244342D01*
X0098884Y0244299D01*
X0099038Y0244252D01*
X0099191Y0244201D01*
X0099342Y0244146D01*
X0099492Y0244088D01*
X0099640Y0244026D01*
X0099787Y0243960D01*
X0099932Y0243891D01*
X0100075Y0243818D01*
X0100217Y0243742D01*
X0100356Y0243662D01*
X0100494Y0243579D01*
X0100629Y0243492D01*
X0100763Y0243402D01*
X0100894Y0243309D01*
X0101022Y0243213D01*
X0101148Y0243113D01*
X0101272Y0243010D01*
X0101393Y0242905D01*
X0101512Y0242796D01*
X0101628Y0242685D01*
X0101741Y0242570D01*
X0101851Y0242453D01*
X0101958Y0242333D01*
X0102062Y0242211D01*
X0102163Y0242086D01*
X0102261Y0241958D01*
X0102356Y0241828D01*
X0102448Y0241696D01*
X0102536Y0241562D01*
X0102621Y0241425D01*
X0102703Y0241287D01*
X0102781Y0241146D01*
X0102855Y0241004D01*
X0102926Y0240860D01*
X0102994Y0240714D01*
X0103057Y0240566D01*
X0103118Y0240417D01*
X0103174Y0240266D01*
X0103227Y0240114D01*
X0103276Y0239961D01*
X0103321Y0239807D01*
X0103362Y0239652D01*
X0103400Y0239495D01*
X0103433Y0239338D01*
X0103463Y0239180D01*
X0103489Y0239021D01*
X0103510Y0238862D01*
X0103528Y0238702D01*
X0103542Y0238542D01*
X0103552Y0238381D01*
X0103558Y0238221D01*
X0103560Y0238060D01*
X0103558Y0237899D01*
X0103552Y0237739D01*
X0103542Y0237578D01*
X0103528Y0237418D01*
X0103510Y0237258D01*
X0103489Y0237099D01*
X0103463Y0236940D01*
X0103433Y0236782D01*
X0103400Y0236625D01*
X0103362Y0236468D01*
X0103321Y0236313D01*
X0103276Y0236159D01*
X0103227Y0236006D01*
X0103174Y0235854D01*
X0103118Y0235703D01*
X0103057Y0235554D01*
X0102994Y0235406D01*
X0102926Y0235260D01*
X0102855Y0235116D01*
X0102781Y0234974D01*
X0102703Y0234833D01*
X0102621Y0234695D01*
X0102536Y0234558D01*
X0102448Y0234424D01*
X0102356Y0234292D01*
X0102261Y0234162D01*
X0102163Y0234034D01*
X0102062Y0233909D01*
X0101958Y0233787D01*
X0101851Y0233667D01*
X0101741Y0233550D01*
X0101628Y0233435D01*
X0101512Y0233324D01*
X0101393Y0233215D01*
X0101272Y0233110D01*
X0101148Y0233007D01*
X0101022Y0232907D01*
X0100894Y0232811D01*
X0100763Y0232718D01*
X0100629Y0232628D01*
X0100494Y0232541D01*
X0100356Y0232458D01*
X0100217Y0232378D01*
X0100075Y0232302D01*
X0099932Y0232229D01*
X0099787Y0232160D01*
X0099640Y0232094D01*
X0099492Y0232032D01*
X0099342Y0231974D01*
X0099191Y0231919D01*
X0099038Y0231868D01*
X0098884Y0231821D01*
X0098729Y0231778D01*
X0098573Y0231739D01*
X0098417Y0231703D01*
X0098259Y0231672D01*
X0098101Y0231644D01*
X0097942Y0231620D01*
X0097782Y0231600D01*
X0097622Y0231584D01*
X0097462Y0231572D01*
X0097301Y0231564D01*
X0097140Y0231560D01*
X0096980Y0231560D01*
X0096819Y0231564D01*
X0096658Y0231572D01*
X0096498Y0231584D01*
X0096338Y0231600D01*
X0096178Y0231620D01*
X0096019Y0231644D01*
X0095861Y0231672D01*
X0095703Y0231703D01*
X0095547Y0231739D01*
X0095391Y0231778D01*
X0095236Y0231821D01*
X0095082Y0231868D01*
X0094929Y0231919D01*
X0094778Y0231974D01*
X0094628Y0232032D01*
X0094480Y0232094D01*
X0094333Y0232160D01*
X0094188Y0232229D01*
X0094045Y0232302D01*
X0093903Y0232378D01*
X0093764Y0232458D01*
X0093626Y0232541D01*
X0093491Y0232628D01*
X0093357Y0232718D01*
X0093226Y0232811D01*
X0093098Y0232907D01*
X0092972Y0233007D01*
X0092848Y0233110D01*
X0092727Y0233215D01*
X0092608Y0233324D01*
X0092492Y0233435D01*
X0092379Y0233550D01*
X0092269Y0233667D01*
X0092162Y0233787D01*
X0092058Y0233909D01*
X0091957Y0234034D01*
X0091859Y0234162D01*
X0091764Y0234292D01*
X0091672Y0234424D01*
X0091584Y0234558D01*
X0091499Y0234695D01*
X0091417Y0234833D01*
X0091339Y0234974D01*
X0091265Y0235116D01*
X0091194Y0235260D01*
X0091126Y0235406D01*
X0091063Y0235554D01*
X0091002Y0235703D01*
X0090946Y0235854D01*
X0090893Y0236006D01*
X0090844Y0236159D01*
X0090799Y0236313D01*
X0090758Y0236468D01*
X0090720Y0236625D01*
X0090687Y0236782D01*
X0090657Y0236940D01*
X0090631Y0237099D01*
X0090610Y0237258D01*
X0090592Y0237418D01*
X0090578Y0237578D01*
X0090568Y0237739D01*
X0090562Y0237899D01*
X0090560Y0238060D01*
X0150560Y0238060D02*
X0150562Y0238221D01*
X0150568Y0238381D01*
X0150578Y0238542D01*
X0150592Y0238702D01*
X0150610Y0238862D01*
X0150631Y0239021D01*
X0150657Y0239180D01*
X0150687Y0239338D01*
X0150720Y0239495D01*
X0150758Y0239652D01*
X0150799Y0239807D01*
X0150844Y0239961D01*
X0150893Y0240114D01*
X0150946Y0240266D01*
X0151002Y0240417D01*
X0151063Y0240566D01*
X0151126Y0240714D01*
X0151194Y0240860D01*
X0151265Y0241004D01*
X0151339Y0241146D01*
X0151417Y0241287D01*
X0151499Y0241425D01*
X0151584Y0241562D01*
X0151672Y0241696D01*
X0151764Y0241828D01*
X0151859Y0241958D01*
X0151957Y0242086D01*
X0152058Y0242211D01*
X0152162Y0242333D01*
X0152269Y0242453D01*
X0152379Y0242570D01*
X0152492Y0242685D01*
X0152608Y0242796D01*
X0152727Y0242905D01*
X0152848Y0243010D01*
X0152972Y0243113D01*
X0153098Y0243213D01*
X0153226Y0243309D01*
X0153357Y0243402D01*
X0153491Y0243492D01*
X0153626Y0243579D01*
X0153764Y0243662D01*
X0153903Y0243742D01*
X0154045Y0243818D01*
X0154188Y0243891D01*
X0154333Y0243960D01*
X0154480Y0244026D01*
X0154628Y0244088D01*
X0154778Y0244146D01*
X0154929Y0244201D01*
X0155082Y0244252D01*
X0155236Y0244299D01*
X0155391Y0244342D01*
X0155547Y0244381D01*
X0155703Y0244417D01*
X0155861Y0244448D01*
X0156019Y0244476D01*
X0156178Y0244500D01*
X0156338Y0244520D01*
X0156498Y0244536D01*
X0156658Y0244548D01*
X0156819Y0244556D01*
X0156980Y0244560D01*
X0157140Y0244560D01*
X0157301Y0244556D01*
X0157462Y0244548D01*
X0157622Y0244536D01*
X0157782Y0244520D01*
X0157942Y0244500D01*
X0158101Y0244476D01*
X0158259Y0244448D01*
X0158417Y0244417D01*
X0158573Y0244381D01*
X0158729Y0244342D01*
X0158884Y0244299D01*
X0159038Y0244252D01*
X0159191Y0244201D01*
X0159342Y0244146D01*
X0159492Y0244088D01*
X0159640Y0244026D01*
X0159787Y0243960D01*
X0159932Y0243891D01*
X0160075Y0243818D01*
X0160217Y0243742D01*
X0160356Y0243662D01*
X0160494Y0243579D01*
X0160629Y0243492D01*
X0160763Y0243402D01*
X0160894Y0243309D01*
X0161022Y0243213D01*
X0161148Y0243113D01*
X0161272Y0243010D01*
X0161393Y0242905D01*
X0161512Y0242796D01*
X0161628Y0242685D01*
X0161741Y0242570D01*
X0161851Y0242453D01*
X0161958Y0242333D01*
X0162062Y0242211D01*
X0162163Y0242086D01*
X0162261Y0241958D01*
X0162356Y0241828D01*
X0162448Y0241696D01*
X0162536Y0241562D01*
X0162621Y0241425D01*
X0162703Y0241287D01*
X0162781Y0241146D01*
X0162855Y0241004D01*
X0162926Y0240860D01*
X0162994Y0240714D01*
X0163057Y0240566D01*
X0163118Y0240417D01*
X0163174Y0240266D01*
X0163227Y0240114D01*
X0163276Y0239961D01*
X0163321Y0239807D01*
X0163362Y0239652D01*
X0163400Y0239495D01*
X0163433Y0239338D01*
X0163463Y0239180D01*
X0163489Y0239021D01*
X0163510Y0238862D01*
X0163528Y0238702D01*
X0163542Y0238542D01*
X0163552Y0238381D01*
X0163558Y0238221D01*
X0163560Y0238060D01*
X0163558Y0237899D01*
X0163552Y0237739D01*
X0163542Y0237578D01*
X0163528Y0237418D01*
X0163510Y0237258D01*
X0163489Y0237099D01*
X0163463Y0236940D01*
X0163433Y0236782D01*
X0163400Y0236625D01*
X0163362Y0236468D01*
X0163321Y0236313D01*
X0163276Y0236159D01*
X0163227Y0236006D01*
X0163174Y0235854D01*
X0163118Y0235703D01*
X0163057Y0235554D01*
X0162994Y0235406D01*
X0162926Y0235260D01*
X0162855Y0235116D01*
X0162781Y0234974D01*
X0162703Y0234833D01*
X0162621Y0234695D01*
X0162536Y0234558D01*
X0162448Y0234424D01*
X0162356Y0234292D01*
X0162261Y0234162D01*
X0162163Y0234034D01*
X0162062Y0233909D01*
X0161958Y0233787D01*
X0161851Y0233667D01*
X0161741Y0233550D01*
X0161628Y0233435D01*
X0161512Y0233324D01*
X0161393Y0233215D01*
X0161272Y0233110D01*
X0161148Y0233007D01*
X0161022Y0232907D01*
X0160894Y0232811D01*
X0160763Y0232718D01*
X0160629Y0232628D01*
X0160494Y0232541D01*
X0160356Y0232458D01*
X0160217Y0232378D01*
X0160075Y0232302D01*
X0159932Y0232229D01*
X0159787Y0232160D01*
X0159640Y0232094D01*
X0159492Y0232032D01*
X0159342Y0231974D01*
X0159191Y0231919D01*
X0159038Y0231868D01*
X0158884Y0231821D01*
X0158729Y0231778D01*
X0158573Y0231739D01*
X0158417Y0231703D01*
X0158259Y0231672D01*
X0158101Y0231644D01*
X0157942Y0231620D01*
X0157782Y0231600D01*
X0157622Y0231584D01*
X0157462Y0231572D01*
X0157301Y0231564D01*
X0157140Y0231560D01*
X0156980Y0231560D01*
X0156819Y0231564D01*
X0156658Y0231572D01*
X0156498Y0231584D01*
X0156338Y0231600D01*
X0156178Y0231620D01*
X0156019Y0231644D01*
X0155861Y0231672D01*
X0155703Y0231703D01*
X0155547Y0231739D01*
X0155391Y0231778D01*
X0155236Y0231821D01*
X0155082Y0231868D01*
X0154929Y0231919D01*
X0154778Y0231974D01*
X0154628Y0232032D01*
X0154480Y0232094D01*
X0154333Y0232160D01*
X0154188Y0232229D01*
X0154045Y0232302D01*
X0153903Y0232378D01*
X0153764Y0232458D01*
X0153626Y0232541D01*
X0153491Y0232628D01*
X0153357Y0232718D01*
X0153226Y0232811D01*
X0153098Y0232907D01*
X0152972Y0233007D01*
X0152848Y0233110D01*
X0152727Y0233215D01*
X0152608Y0233324D01*
X0152492Y0233435D01*
X0152379Y0233550D01*
X0152269Y0233667D01*
X0152162Y0233787D01*
X0152058Y0233909D01*
X0151957Y0234034D01*
X0151859Y0234162D01*
X0151764Y0234292D01*
X0151672Y0234424D01*
X0151584Y0234558D01*
X0151499Y0234695D01*
X0151417Y0234833D01*
X0151339Y0234974D01*
X0151265Y0235116D01*
X0151194Y0235260D01*
X0151126Y0235406D01*
X0151063Y0235554D01*
X0151002Y0235703D01*
X0150946Y0235854D01*
X0150893Y0236006D01*
X0150844Y0236159D01*
X0150799Y0236313D01*
X0150758Y0236468D01*
X0150720Y0236625D01*
X0150687Y0236782D01*
X0150657Y0236940D01*
X0150631Y0237099D01*
X0150610Y0237258D01*
X0150592Y0237418D01*
X0150578Y0237578D01*
X0150568Y0237739D01*
X0150562Y0237899D01*
X0150560Y0238060D01*
X0172560Y0238060D02*
X0172562Y0238221D01*
X0172568Y0238381D01*
X0172578Y0238542D01*
X0172592Y0238702D01*
X0172610Y0238862D01*
X0172631Y0239021D01*
X0172657Y0239180D01*
X0172687Y0239338D01*
X0172720Y0239495D01*
X0172758Y0239652D01*
X0172799Y0239807D01*
X0172844Y0239961D01*
X0172893Y0240114D01*
X0172946Y0240266D01*
X0173002Y0240417D01*
X0173063Y0240566D01*
X0173126Y0240714D01*
X0173194Y0240860D01*
X0173265Y0241004D01*
X0173339Y0241146D01*
X0173417Y0241287D01*
X0173499Y0241425D01*
X0173584Y0241562D01*
X0173672Y0241696D01*
X0173764Y0241828D01*
X0173859Y0241958D01*
X0173957Y0242086D01*
X0174058Y0242211D01*
X0174162Y0242333D01*
X0174269Y0242453D01*
X0174379Y0242570D01*
X0174492Y0242685D01*
X0174608Y0242796D01*
X0174727Y0242905D01*
X0174848Y0243010D01*
X0174972Y0243113D01*
X0175098Y0243213D01*
X0175226Y0243309D01*
X0175357Y0243402D01*
X0175491Y0243492D01*
X0175626Y0243579D01*
X0175764Y0243662D01*
X0175903Y0243742D01*
X0176045Y0243818D01*
X0176188Y0243891D01*
X0176333Y0243960D01*
X0176480Y0244026D01*
X0176628Y0244088D01*
X0176778Y0244146D01*
X0176929Y0244201D01*
X0177082Y0244252D01*
X0177236Y0244299D01*
X0177391Y0244342D01*
X0177547Y0244381D01*
X0177703Y0244417D01*
X0177861Y0244448D01*
X0178019Y0244476D01*
X0178178Y0244500D01*
X0178338Y0244520D01*
X0178498Y0244536D01*
X0178658Y0244548D01*
X0178819Y0244556D01*
X0178980Y0244560D01*
X0179140Y0244560D01*
X0179301Y0244556D01*
X0179462Y0244548D01*
X0179622Y0244536D01*
X0179782Y0244520D01*
X0179942Y0244500D01*
X0180101Y0244476D01*
X0180259Y0244448D01*
X0180417Y0244417D01*
X0180573Y0244381D01*
X0180729Y0244342D01*
X0180884Y0244299D01*
X0181038Y0244252D01*
X0181191Y0244201D01*
X0181342Y0244146D01*
X0181492Y0244088D01*
X0181640Y0244026D01*
X0181787Y0243960D01*
X0181932Y0243891D01*
X0182075Y0243818D01*
X0182217Y0243742D01*
X0182356Y0243662D01*
X0182494Y0243579D01*
X0182629Y0243492D01*
X0182763Y0243402D01*
X0182894Y0243309D01*
X0183022Y0243213D01*
X0183148Y0243113D01*
X0183272Y0243010D01*
X0183393Y0242905D01*
X0183512Y0242796D01*
X0183628Y0242685D01*
X0183741Y0242570D01*
X0183851Y0242453D01*
X0183958Y0242333D01*
X0184062Y0242211D01*
X0184163Y0242086D01*
X0184261Y0241958D01*
X0184356Y0241828D01*
X0184448Y0241696D01*
X0184536Y0241562D01*
X0184621Y0241425D01*
X0184703Y0241287D01*
X0184781Y0241146D01*
X0184855Y0241004D01*
X0184926Y0240860D01*
X0184994Y0240714D01*
X0185057Y0240566D01*
X0185118Y0240417D01*
X0185174Y0240266D01*
X0185227Y0240114D01*
X0185276Y0239961D01*
X0185321Y0239807D01*
X0185362Y0239652D01*
X0185400Y0239495D01*
X0185433Y0239338D01*
X0185463Y0239180D01*
X0185489Y0239021D01*
X0185510Y0238862D01*
X0185528Y0238702D01*
X0185542Y0238542D01*
X0185552Y0238381D01*
X0185558Y0238221D01*
X0185560Y0238060D01*
X0185558Y0237899D01*
X0185552Y0237739D01*
X0185542Y0237578D01*
X0185528Y0237418D01*
X0185510Y0237258D01*
X0185489Y0237099D01*
X0185463Y0236940D01*
X0185433Y0236782D01*
X0185400Y0236625D01*
X0185362Y0236468D01*
X0185321Y0236313D01*
X0185276Y0236159D01*
X0185227Y0236006D01*
X0185174Y0235854D01*
X0185118Y0235703D01*
X0185057Y0235554D01*
X0184994Y0235406D01*
X0184926Y0235260D01*
X0184855Y0235116D01*
X0184781Y0234974D01*
X0184703Y0234833D01*
X0184621Y0234695D01*
X0184536Y0234558D01*
X0184448Y0234424D01*
X0184356Y0234292D01*
X0184261Y0234162D01*
X0184163Y0234034D01*
X0184062Y0233909D01*
X0183958Y0233787D01*
X0183851Y0233667D01*
X0183741Y0233550D01*
X0183628Y0233435D01*
X0183512Y0233324D01*
X0183393Y0233215D01*
X0183272Y0233110D01*
X0183148Y0233007D01*
X0183022Y0232907D01*
X0182894Y0232811D01*
X0182763Y0232718D01*
X0182629Y0232628D01*
X0182494Y0232541D01*
X0182356Y0232458D01*
X0182217Y0232378D01*
X0182075Y0232302D01*
X0181932Y0232229D01*
X0181787Y0232160D01*
X0181640Y0232094D01*
X0181492Y0232032D01*
X0181342Y0231974D01*
X0181191Y0231919D01*
X0181038Y0231868D01*
X0180884Y0231821D01*
X0180729Y0231778D01*
X0180573Y0231739D01*
X0180417Y0231703D01*
X0180259Y0231672D01*
X0180101Y0231644D01*
X0179942Y0231620D01*
X0179782Y0231600D01*
X0179622Y0231584D01*
X0179462Y0231572D01*
X0179301Y0231564D01*
X0179140Y0231560D01*
X0178980Y0231560D01*
X0178819Y0231564D01*
X0178658Y0231572D01*
X0178498Y0231584D01*
X0178338Y0231600D01*
X0178178Y0231620D01*
X0178019Y0231644D01*
X0177861Y0231672D01*
X0177703Y0231703D01*
X0177547Y0231739D01*
X0177391Y0231778D01*
X0177236Y0231821D01*
X0177082Y0231868D01*
X0176929Y0231919D01*
X0176778Y0231974D01*
X0176628Y0232032D01*
X0176480Y0232094D01*
X0176333Y0232160D01*
X0176188Y0232229D01*
X0176045Y0232302D01*
X0175903Y0232378D01*
X0175764Y0232458D01*
X0175626Y0232541D01*
X0175491Y0232628D01*
X0175357Y0232718D01*
X0175226Y0232811D01*
X0175098Y0232907D01*
X0174972Y0233007D01*
X0174848Y0233110D01*
X0174727Y0233215D01*
X0174608Y0233324D01*
X0174492Y0233435D01*
X0174379Y0233550D01*
X0174269Y0233667D01*
X0174162Y0233787D01*
X0174058Y0233909D01*
X0173957Y0234034D01*
X0173859Y0234162D01*
X0173764Y0234292D01*
X0173672Y0234424D01*
X0173584Y0234558D01*
X0173499Y0234695D01*
X0173417Y0234833D01*
X0173339Y0234974D01*
X0173265Y0235116D01*
X0173194Y0235260D01*
X0173126Y0235406D01*
X0173063Y0235554D01*
X0173002Y0235703D01*
X0172946Y0235854D01*
X0172893Y0236006D01*
X0172844Y0236159D01*
X0172799Y0236313D01*
X0172758Y0236468D01*
X0172720Y0236625D01*
X0172687Y0236782D01*
X0172657Y0236940D01*
X0172631Y0237099D01*
X0172610Y0237258D01*
X0172592Y0237418D01*
X0172578Y0237578D01*
X0172568Y0237739D01*
X0172562Y0237899D01*
X0172560Y0238060D01*
X0232560Y0238060D02*
X0232562Y0238221D01*
X0232568Y0238381D01*
X0232578Y0238542D01*
X0232592Y0238702D01*
X0232610Y0238862D01*
X0232631Y0239021D01*
X0232657Y0239180D01*
X0232687Y0239338D01*
X0232720Y0239495D01*
X0232758Y0239652D01*
X0232799Y0239807D01*
X0232844Y0239961D01*
X0232893Y0240114D01*
X0232946Y0240266D01*
X0233002Y0240417D01*
X0233063Y0240566D01*
X0233126Y0240714D01*
X0233194Y0240860D01*
X0233265Y0241004D01*
X0233339Y0241146D01*
X0233417Y0241287D01*
X0233499Y0241425D01*
X0233584Y0241562D01*
X0233672Y0241696D01*
X0233764Y0241828D01*
X0233859Y0241958D01*
X0233957Y0242086D01*
X0234058Y0242211D01*
X0234162Y0242333D01*
X0234269Y0242453D01*
X0234379Y0242570D01*
X0234492Y0242685D01*
X0234608Y0242796D01*
X0234727Y0242905D01*
X0234848Y0243010D01*
X0234972Y0243113D01*
X0235098Y0243213D01*
X0235226Y0243309D01*
X0235357Y0243402D01*
X0235491Y0243492D01*
X0235626Y0243579D01*
X0235764Y0243662D01*
X0235903Y0243742D01*
X0236045Y0243818D01*
X0236188Y0243891D01*
X0236333Y0243960D01*
X0236480Y0244026D01*
X0236628Y0244088D01*
X0236778Y0244146D01*
X0236929Y0244201D01*
X0237082Y0244252D01*
X0237236Y0244299D01*
X0237391Y0244342D01*
X0237547Y0244381D01*
X0237703Y0244417D01*
X0237861Y0244448D01*
X0238019Y0244476D01*
X0238178Y0244500D01*
X0238338Y0244520D01*
X0238498Y0244536D01*
X0238658Y0244548D01*
X0238819Y0244556D01*
X0238980Y0244560D01*
X0239140Y0244560D01*
X0239301Y0244556D01*
X0239462Y0244548D01*
X0239622Y0244536D01*
X0239782Y0244520D01*
X0239942Y0244500D01*
X0240101Y0244476D01*
X0240259Y0244448D01*
X0240417Y0244417D01*
X0240573Y0244381D01*
X0240729Y0244342D01*
X0240884Y0244299D01*
X0241038Y0244252D01*
X0241191Y0244201D01*
X0241342Y0244146D01*
X0241492Y0244088D01*
X0241640Y0244026D01*
X0241787Y0243960D01*
X0241932Y0243891D01*
X0242075Y0243818D01*
X0242217Y0243742D01*
X0242356Y0243662D01*
X0242494Y0243579D01*
X0242629Y0243492D01*
X0242763Y0243402D01*
X0242894Y0243309D01*
X0243022Y0243213D01*
X0243148Y0243113D01*
X0243272Y0243010D01*
X0243393Y0242905D01*
X0243512Y0242796D01*
X0243628Y0242685D01*
X0243741Y0242570D01*
X0243851Y0242453D01*
X0243958Y0242333D01*
X0244062Y0242211D01*
X0244163Y0242086D01*
X0244261Y0241958D01*
X0244356Y0241828D01*
X0244448Y0241696D01*
X0244536Y0241562D01*
X0244621Y0241425D01*
X0244703Y0241287D01*
X0244781Y0241146D01*
X0244855Y0241004D01*
X0244926Y0240860D01*
X0244994Y0240714D01*
X0245057Y0240566D01*
X0245118Y0240417D01*
X0245174Y0240266D01*
X0245227Y0240114D01*
X0245276Y0239961D01*
X0245321Y0239807D01*
X0245362Y0239652D01*
X0245400Y0239495D01*
X0245433Y0239338D01*
X0245463Y0239180D01*
X0245489Y0239021D01*
X0245510Y0238862D01*
X0245528Y0238702D01*
X0245542Y0238542D01*
X0245552Y0238381D01*
X0245558Y0238221D01*
X0245560Y0238060D01*
X0245558Y0237899D01*
X0245552Y0237739D01*
X0245542Y0237578D01*
X0245528Y0237418D01*
X0245510Y0237258D01*
X0245489Y0237099D01*
X0245463Y0236940D01*
X0245433Y0236782D01*
X0245400Y0236625D01*
X0245362Y0236468D01*
X0245321Y0236313D01*
X0245276Y0236159D01*
X0245227Y0236006D01*
X0245174Y0235854D01*
X0245118Y0235703D01*
X0245057Y0235554D01*
X0244994Y0235406D01*
X0244926Y0235260D01*
X0244855Y0235116D01*
X0244781Y0234974D01*
X0244703Y0234833D01*
X0244621Y0234695D01*
X0244536Y0234558D01*
X0244448Y0234424D01*
X0244356Y0234292D01*
X0244261Y0234162D01*
X0244163Y0234034D01*
X0244062Y0233909D01*
X0243958Y0233787D01*
X0243851Y0233667D01*
X0243741Y0233550D01*
X0243628Y0233435D01*
X0243512Y0233324D01*
X0243393Y0233215D01*
X0243272Y0233110D01*
X0243148Y0233007D01*
X0243022Y0232907D01*
X0242894Y0232811D01*
X0242763Y0232718D01*
X0242629Y0232628D01*
X0242494Y0232541D01*
X0242356Y0232458D01*
X0242217Y0232378D01*
X0242075Y0232302D01*
X0241932Y0232229D01*
X0241787Y0232160D01*
X0241640Y0232094D01*
X0241492Y0232032D01*
X0241342Y0231974D01*
X0241191Y0231919D01*
X0241038Y0231868D01*
X0240884Y0231821D01*
X0240729Y0231778D01*
X0240573Y0231739D01*
X0240417Y0231703D01*
X0240259Y0231672D01*
X0240101Y0231644D01*
X0239942Y0231620D01*
X0239782Y0231600D01*
X0239622Y0231584D01*
X0239462Y0231572D01*
X0239301Y0231564D01*
X0239140Y0231560D01*
X0238980Y0231560D01*
X0238819Y0231564D01*
X0238658Y0231572D01*
X0238498Y0231584D01*
X0238338Y0231600D01*
X0238178Y0231620D01*
X0238019Y0231644D01*
X0237861Y0231672D01*
X0237703Y0231703D01*
X0237547Y0231739D01*
X0237391Y0231778D01*
X0237236Y0231821D01*
X0237082Y0231868D01*
X0236929Y0231919D01*
X0236778Y0231974D01*
X0236628Y0232032D01*
X0236480Y0232094D01*
X0236333Y0232160D01*
X0236188Y0232229D01*
X0236045Y0232302D01*
X0235903Y0232378D01*
X0235764Y0232458D01*
X0235626Y0232541D01*
X0235491Y0232628D01*
X0235357Y0232718D01*
X0235226Y0232811D01*
X0235098Y0232907D01*
X0234972Y0233007D01*
X0234848Y0233110D01*
X0234727Y0233215D01*
X0234608Y0233324D01*
X0234492Y0233435D01*
X0234379Y0233550D01*
X0234269Y0233667D01*
X0234162Y0233787D01*
X0234058Y0233909D01*
X0233957Y0234034D01*
X0233859Y0234162D01*
X0233764Y0234292D01*
X0233672Y0234424D01*
X0233584Y0234558D01*
X0233499Y0234695D01*
X0233417Y0234833D01*
X0233339Y0234974D01*
X0233265Y0235116D01*
X0233194Y0235260D01*
X0233126Y0235406D01*
X0233063Y0235554D01*
X0233002Y0235703D01*
X0232946Y0235854D01*
X0232893Y0236006D01*
X0232844Y0236159D01*
X0232799Y0236313D01*
X0232758Y0236468D01*
X0232720Y0236625D01*
X0232687Y0236782D01*
X0232657Y0236940D01*
X0232631Y0237099D01*
X0232610Y0237258D01*
X0232592Y0237418D01*
X0232578Y0237578D01*
X0232568Y0237739D01*
X0232562Y0237899D01*
X0232560Y0238060D01*
X0232560Y0156060D02*
X0232562Y0156221D01*
X0232568Y0156381D01*
X0232578Y0156542D01*
X0232592Y0156702D01*
X0232610Y0156862D01*
X0232631Y0157021D01*
X0232657Y0157180D01*
X0232687Y0157338D01*
X0232720Y0157495D01*
X0232758Y0157652D01*
X0232799Y0157807D01*
X0232844Y0157961D01*
X0232893Y0158114D01*
X0232946Y0158266D01*
X0233002Y0158417D01*
X0233063Y0158566D01*
X0233126Y0158714D01*
X0233194Y0158860D01*
X0233265Y0159004D01*
X0233339Y0159146D01*
X0233417Y0159287D01*
X0233499Y0159425D01*
X0233584Y0159562D01*
X0233672Y0159696D01*
X0233764Y0159828D01*
X0233859Y0159958D01*
X0233957Y0160086D01*
X0234058Y0160211D01*
X0234162Y0160333D01*
X0234269Y0160453D01*
X0234379Y0160570D01*
X0234492Y0160685D01*
X0234608Y0160796D01*
X0234727Y0160905D01*
X0234848Y0161010D01*
X0234972Y0161113D01*
X0235098Y0161213D01*
X0235226Y0161309D01*
X0235357Y0161402D01*
X0235491Y0161492D01*
X0235626Y0161579D01*
X0235764Y0161662D01*
X0235903Y0161742D01*
X0236045Y0161818D01*
X0236188Y0161891D01*
X0236333Y0161960D01*
X0236480Y0162026D01*
X0236628Y0162088D01*
X0236778Y0162146D01*
X0236929Y0162201D01*
X0237082Y0162252D01*
X0237236Y0162299D01*
X0237391Y0162342D01*
X0237547Y0162381D01*
X0237703Y0162417D01*
X0237861Y0162448D01*
X0238019Y0162476D01*
X0238178Y0162500D01*
X0238338Y0162520D01*
X0238498Y0162536D01*
X0238658Y0162548D01*
X0238819Y0162556D01*
X0238980Y0162560D01*
X0239140Y0162560D01*
X0239301Y0162556D01*
X0239462Y0162548D01*
X0239622Y0162536D01*
X0239782Y0162520D01*
X0239942Y0162500D01*
X0240101Y0162476D01*
X0240259Y0162448D01*
X0240417Y0162417D01*
X0240573Y0162381D01*
X0240729Y0162342D01*
X0240884Y0162299D01*
X0241038Y0162252D01*
X0241191Y0162201D01*
X0241342Y0162146D01*
X0241492Y0162088D01*
X0241640Y0162026D01*
X0241787Y0161960D01*
X0241932Y0161891D01*
X0242075Y0161818D01*
X0242217Y0161742D01*
X0242356Y0161662D01*
X0242494Y0161579D01*
X0242629Y0161492D01*
X0242763Y0161402D01*
X0242894Y0161309D01*
X0243022Y0161213D01*
X0243148Y0161113D01*
X0243272Y0161010D01*
X0243393Y0160905D01*
X0243512Y0160796D01*
X0243628Y0160685D01*
X0243741Y0160570D01*
X0243851Y0160453D01*
X0243958Y0160333D01*
X0244062Y0160211D01*
X0244163Y0160086D01*
X0244261Y0159958D01*
X0244356Y0159828D01*
X0244448Y0159696D01*
X0244536Y0159562D01*
X0244621Y0159425D01*
X0244703Y0159287D01*
X0244781Y0159146D01*
X0244855Y0159004D01*
X0244926Y0158860D01*
X0244994Y0158714D01*
X0245057Y0158566D01*
X0245118Y0158417D01*
X0245174Y0158266D01*
X0245227Y0158114D01*
X0245276Y0157961D01*
X0245321Y0157807D01*
X0245362Y0157652D01*
X0245400Y0157495D01*
X0245433Y0157338D01*
X0245463Y0157180D01*
X0245489Y0157021D01*
X0245510Y0156862D01*
X0245528Y0156702D01*
X0245542Y0156542D01*
X0245552Y0156381D01*
X0245558Y0156221D01*
X0245560Y0156060D01*
X0245558Y0155899D01*
X0245552Y0155739D01*
X0245542Y0155578D01*
X0245528Y0155418D01*
X0245510Y0155258D01*
X0245489Y0155099D01*
X0245463Y0154940D01*
X0245433Y0154782D01*
X0245400Y0154625D01*
X0245362Y0154468D01*
X0245321Y0154313D01*
X0245276Y0154159D01*
X0245227Y0154006D01*
X0245174Y0153854D01*
X0245118Y0153703D01*
X0245057Y0153554D01*
X0244994Y0153406D01*
X0244926Y0153260D01*
X0244855Y0153116D01*
X0244781Y0152974D01*
X0244703Y0152833D01*
X0244621Y0152695D01*
X0244536Y0152558D01*
X0244448Y0152424D01*
X0244356Y0152292D01*
X0244261Y0152162D01*
X0244163Y0152034D01*
X0244062Y0151909D01*
X0243958Y0151787D01*
X0243851Y0151667D01*
X0243741Y0151550D01*
X0243628Y0151435D01*
X0243512Y0151324D01*
X0243393Y0151215D01*
X0243272Y0151110D01*
X0243148Y0151007D01*
X0243022Y0150907D01*
X0242894Y0150811D01*
X0242763Y0150718D01*
X0242629Y0150628D01*
X0242494Y0150541D01*
X0242356Y0150458D01*
X0242217Y0150378D01*
X0242075Y0150302D01*
X0241932Y0150229D01*
X0241787Y0150160D01*
X0241640Y0150094D01*
X0241492Y0150032D01*
X0241342Y0149974D01*
X0241191Y0149919D01*
X0241038Y0149868D01*
X0240884Y0149821D01*
X0240729Y0149778D01*
X0240573Y0149739D01*
X0240417Y0149703D01*
X0240259Y0149672D01*
X0240101Y0149644D01*
X0239942Y0149620D01*
X0239782Y0149600D01*
X0239622Y0149584D01*
X0239462Y0149572D01*
X0239301Y0149564D01*
X0239140Y0149560D01*
X0238980Y0149560D01*
X0238819Y0149564D01*
X0238658Y0149572D01*
X0238498Y0149584D01*
X0238338Y0149600D01*
X0238178Y0149620D01*
X0238019Y0149644D01*
X0237861Y0149672D01*
X0237703Y0149703D01*
X0237547Y0149739D01*
X0237391Y0149778D01*
X0237236Y0149821D01*
X0237082Y0149868D01*
X0236929Y0149919D01*
X0236778Y0149974D01*
X0236628Y0150032D01*
X0236480Y0150094D01*
X0236333Y0150160D01*
X0236188Y0150229D01*
X0236045Y0150302D01*
X0235903Y0150378D01*
X0235764Y0150458D01*
X0235626Y0150541D01*
X0235491Y0150628D01*
X0235357Y0150718D01*
X0235226Y0150811D01*
X0235098Y0150907D01*
X0234972Y0151007D01*
X0234848Y0151110D01*
X0234727Y0151215D01*
X0234608Y0151324D01*
X0234492Y0151435D01*
X0234379Y0151550D01*
X0234269Y0151667D01*
X0234162Y0151787D01*
X0234058Y0151909D01*
X0233957Y0152034D01*
X0233859Y0152162D01*
X0233764Y0152292D01*
X0233672Y0152424D01*
X0233584Y0152558D01*
X0233499Y0152695D01*
X0233417Y0152833D01*
X0233339Y0152974D01*
X0233265Y0153116D01*
X0233194Y0153260D01*
X0233126Y0153406D01*
X0233063Y0153554D01*
X0233002Y0153703D01*
X0232946Y0153854D01*
X0232893Y0154006D01*
X0232844Y0154159D01*
X0232799Y0154313D01*
X0232758Y0154468D01*
X0232720Y0154625D01*
X0232687Y0154782D01*
X0232657Y0154940D01*
X0232631Y0155099D01*
X0232610Y0155258D01*
X0232592Y0155418D01*
X0232578Y0155578D01*
X0232568Y0155739D01*
X0232562Y0155899D01*
X0232560Y0156060D01*
X0232560Y0074060D02*
X0232562Y0074221D01*
X0232568Y0074381D01*
X0232578Y0074542D01*
X0232592Y0074702D01*
X0232610Y0074862D01*
X0232631Y0075021D01*
X0232657Y0075180D01*
X0232687Y0075338D01*
X0232720Y0075495D01*
X0232758Y0075652D01*
X0232799Y0075807D01*
X0232844Y0075961D01*
X0232893Y0076114D01*
X0232946Y0076266D01*
X0233002Y0076417D01*
X0233063Y0076566D01*
X0233126Y0076714D01*
X0233194Y0076860D01*
X0233265Y0077004D01*
X0233339Y0077146D01*
X0233417Y0077287D01*
X0233499Y0077425D01*
X0233584Y0077562D01*
X0233672Y0077696D01*
X0233764Y0077828D01*
X0233859Y0077958D01*
X0233957Y0078086D01*
X0234058Y0078211D01*
X0234162Y0078333D01*
X0234269Y0078453D01*
X0234379Y0078570D01*
X0234492Y0078685D01*
X0234608Y0078796D01*
X0234727Y0078905D01*
X0234848Y0079010D01*
X0234972Y0079113D01*
X0235098Y0079213D01*
X0235226Y0079309D01*
X0235357Y0079402D01*
X0235491Y0079492D01*
X0235626Y0079579D01*
X0235764Y0079662D01*
X0235903Y0079742D01*
X0236045Y0079818D01*
X0236188Y0079891D01*
X0236333Y0079960D01*
X0236480Y0080026D01*
X0236628Y0080088D01*
X0236778Y0080146D01*
X0236929Y0080201D01*
X0237082Y0080252D01*
X0237236Y0080299D01*
X0237391Y0080342D01*
X0237547Y0080381D01*
X0237703Y0080417D01*
X0237861Y0080448D01*
X0238019Y0080476D01*
X0238178Y0080500D01*
X0238338Y0080520D01*
X0238498Y0080536D01*
X0238658Y0080548D01*
X0238819Y0080556D01*
X0238980Y0080560D01*
X0239140Y0080560D01*
X0239301Y0080556D01*
X0239462Y0080548D01*
X0239622Y0080536D01*
X0239782Y0080520D01*
X0239942Y0080500D01*
X0240101Y0080476D01*
X0240259Y0080448D01*
X0240417Y0080417D01*
X0240573Y0080381D01*
X0240729Y0080342D01*
X0240884Y0080299D01*
X0241038Y0080252D01*
X0241191Y0080201D01*
X0241342Y0080146D01*
X0241492Y0080088D01*
X0241640Y0080026D01*
X0241787Y0079960D01*
X0241932Y0079891D01*
X0242075Y0079818D01*
X0242217Y0079742D01*
X0242356Y0079662D01*
X0242494Y0079579D01*
X0242629Y0079492D01*
X0242763Y0079402D01*
X0242894Y0079309D01*
X0243022Y0079213D01*
X0243148Y0079113D01*
X0243272Y0079010D01*
X0243393Y0078905D01*
X0243512Y0078796D01*
X0243628Y0078685D01*
X0243741Y0078570D01*
X0243851Y0078453D01*
X0243958Y0078333D01*
X0244062Y0078211D01*
X0244163Y0078086D01*
X0244261Y0077958D01*
X0244356Y0077828D01*
X0244448Y0077696D01*
X0244536Y0077562D01*
X0244621Y0077425D01*
X0244703Y0077287D01*
X0244781Y0077146D01*
X0244855Y0077004D01*
X0244926Y0076860D01*
X0244994Y0076714D01*
X0245057Y0076566D01*
X0245118Y0076417D01*
X0245174Y0076266D01*
X0245227Y0076114D01*
X0245276Y0075961D01*
X0245321Y0075807D01*
X0245362Y0075652D01*
X0245400Y0075495D01*
X0245433Y0075338D01*
X0245463Y0075180D01*
X0245489Y0075021D01*
X0245510Y0074862D01*
X0245528Y0074702D01*
X0245542Y0074542D01*
X0245552Y0074381D01*
X0245558Y0074221D01*
X0245560Y0074060D01*
X0245558Y0073899D01*
X0245552Y0073739D01*
X0245542Y0073578D01*
X0245528Y0073418D01*
X0245510Y0073258D01*
X0245489Y0073099D01*
X0245463Y0072940D01*
X0245433Y0072782D01*
X0245400Y0072625D01*
X0245362Y0072468D01*
X0245321Y0072313D01*
X0245276Y0072159D01*
X0245227Y0072006D01*
X0245174Y0071854D01*
X0245118Y0071703D01*
X0245057Y0071554D01*
X0244994Y0071406D01*
X0244926Y0071260D01*
X0244855Y0071116D01*
X0244781Y0070974D01*
X0244703Y0070833D01*
X0244621Y0070695D01*
X0244536Y0070558D01*
X0244448Y0070424D01*
X0244356Y0070292D01*
X0244261Y0070162D01*
X0244163Y0070034D01*
X0244062Y0069909D01*
X0243958Y0069787D01*
X0243851Y0069667D01*
X0243741Y0069550D01*
X0243628Y0069435D01*
X0243512Y0069324D01*
X0243393Y0069215D01*
X0243272Y0069110D01*
X0243148Y0069007D01*
X0243022Y0068907D01*
X0242894Y0068811D01*
X0242763Y0068718D01*
X0242629Y0068628D01*
X0242494Y0068541D01*
X0242356Y0068458D01*
X0242217Y0068378D01*
X0242075Y0068302D01*
X0241932Y0068229D01*
X0241787Y0068160D01*
X0241640Y0068094D01*
X0241492Y0068032D01*
X0241342Y0067974D01*
X0241191Y0067919D01*
X0241038Y0067868D01*
X0240884Y0067821D01*
X0240729Y0067778D01*
X0240573Y0067739D01*
X0240417Y0067703D01*
X0240259Y0067672D01*
X0240101Y0067644D01*
X0239942Y0067620D01*
X0239782Y0067600D01*
X0239622Y0067584D01*
X0239462Y0067572D01*
X0239301Y0067564D01*
X0239140Y0067560D01*
X0238980Y0067560D01*
X0238819Y0067564D01*
X0238658Y0067572D01*
X0238498Y0067584D01*
X0238338Y0067600D01*
X0238178Y0067620D01*
X0238019Y0067644D01*
X0237861Y0067672D01*
X0237703Y0067703D01*
X0237547Y0067739D01*
X0237391Y0067778D01*
X0237236Y0067821D01*
X0237082Y0067868D01*
X0236929Y0067919D01*
X0236778Y0067974D01*
X0236628Y0068032D01*
X0236480Y0068094D01*
X0236333Y0068160D01*
X0236188Y0068229D01*
X0236045Y0068302D01*
X0235903Y0068378D01*
X0235764Y0068458D01*
X0235626Y0068541D01*
X0235491Y0068628D01*
X0235357Y0068718D01*
X0235226Y0068811D01*
X0235098Y0068907D01*
X0234972Y0069007D01*
X0234848Y0069110D01*
X0234727Y0069215D01*
X0234608Y0069324D01*
X0234492Y0069435D01*
X0234379Y0069550D01*
X0234269Y0069667D01*
X0234162Y0069787D01*
X0234058Y0069909D01*
X0233957Y0070034D01*
X0233859Y0070162D01*
X0233764Y0070292D01*
X0233672Y0070424D01*
X0233584Y0070558D01*
X0233499Y0070695D01*
X0233417Y0070833D01*
X0233339Y0070974D01*
X0233265Y0071116D01*
X0233194Y0071260D01*
X0233126Y0071406D01*
X0233063Y0071554D01*
X0233002Y0071703D01*
X0232946Y0071854D01*
X0232893Y0072006D01*
X0232844Y0072159D01*
X0232799Y0072313D01*
X0232758Y0072468D01*
X0232720Y0072625D01*
X0232687Y0072782D01*
X0232657Y0072940D01*
X0232631Y0073099D01*
X0232610Y0073258D01*
X0232592Y0073418D01*
X0232578Y0073578D01*
X0232568Y0073739D01*
X0232562Y0073899D01*
X0232560Y0074060D01*
X0172560Y0074060D02*
X0172562Y0074221D01*
X0172568Y0074381D01*
X0172578Y0074542D01*
X0172592Y0074702D01*
X0172610Y0074862D01*
X0172631Y0075021D01*
X0172657Y0075180D01*
X0172687Y0075338D01*
X0172720Y0075495D01*
X0172758Y0075652D01*
X0172799Y0075807D01*
X0172844Y0075961D01*
X0172893Y0076114D01*
X0172946Y0076266D01*
X0173002Y0076417D01*
X0173063Y0076566D01*
X0173126Y0076714D01*
X0173194Y0076860D01*
X0173265Y0077004D01*
X0173339Y0077146D01*
X0173417Y0077287D01*
X0173499Y0077425D01*
X0173584Y0077562D01*
X0173672Y0077696D01*
X0173764Y0077828D01*
X0173859Y0077958D01*
X0173957Y0078086D01*
X0174058Y0078211D01*
X0174162Y0078333D01*
X0174269Y0078453D01*
X0174379Y0078570D01*
X0174492Y0078685D01*
X0174608Y0078796D01*
X0174727Y0078905D01*
X0174848Y0079010D01*
X0174972Y0079113D01*
X0175098Y0079213D01*
X0175226Y0079309D01*
X0175357Y0079402D01*
X0175491Y0079492D01*
X0175626Y0079579D01*
X0175764Y0079662D01*
X0175903Y0079742D01*
X0176045Y0079818D01*
X0176188Y0079891D01*
X0176333Y0079960D01*
X0176480Y0080026D01*
X0176628Y0080088D01*
X0176778Y0080146D01*
X0176929Y0080201D01*
X0177082Y0080252D01*
X0177236Y0080299D01*
X0177391Y0080342D01*
X0177547Y0080381D01*
X0177703Y0080417D01*
X0177861Y0080448D01*
X0178019Y0080476D01*
X0178178Y0080500D01*
X0178338Y0080520D01*
X0178498Y0080536D01*
X0178658Y0080548D01*
X0178819Y0080556D01*
X0178980Y0080560D01*
X0179140Y0080560D01*
X0179301Y0080556D01*
X0179462Y0080548D01*
X0179622Y0080536D01*
X0179782Y0080520D01*
X0179942Y0080500D01*
X0180101Y0080476D01*
X0180259Y0080448D01*
X0180417Y0080417D01*
X0180573Y0080381D01*
X0180729Y0080342D01*
X0180884Y0080299D01*
X0181038Y0080252D01*
X0181191Y0080201D01*
X0181342Y0080146D01*
X0181492Y0080088D01*
X0181640Y0080026D01*
X0181787Y0079960D01*
X0181932Y0079891D01*
X0182075Y0079818D01*
X0182217Y0079742D01*
X0182356Y0079662D01*
X0182494Y0079579D01*
X0182629Y0079492D01*
X0182763Y0079402D01*
X0182894Y0079309D01*
X0183022Y0079213D01*
X0183148Y0079113D01*
X0183272Y0079010D01*
X0183393Y0078905D01*
X0183512Y0078796D01*
X0183628Y0078685D01*
X0183741Y0078570D01*
X0183851Y0078453D01*
X0183958Y0078333D01*
X0184062Y0078211D01*
X0184163Y0078086D01*
X0184261Y0077958D01*
X0184356Y0077828D01*
X0184448Y0077696D01*
X0184536Y0077562D01*
X0184621Y0077425D01*
X0184703Y0077287D01*
X0184781Y0077146D01*
X0184855Y0077004D01*
X0184926Y0076860D01*
X0184994Y0076714D01*
X0185057Y0076566D01*
X0185118Y0076417D01*
X0185174Y0076266D01*
X0185227Y0076114D01*
X0185276Y0075961D01*
X0185321Y0075807D01*
X0185362Y0075652D01*
X0185400Y0075495D01*
X0185433Y0075338D01*
X0185463Y0075180D01*
X0185489Y0075021D01*
X0185510Y0074862D01*
X0185528Y0074702D01*
X0185542Y0074542D01*
X0185552Y0074381D01*
X0185558Y0074221D01*
X0185560Y0074060D01*
X0185558Y0073899D01*
X0185552Y0073739D01*
X0185542Y0073578D01*
X0185528Y0073418D01*
X0185510Y0073258D01*
X0185489Y0073099D01*
X0185463Y0072940D01*
X0185433Y0072782D01*
X0185400Y0072625D01*
X0185362Y0072468D01*
X0185321Y0072313D01*
X0185276Y0072159D01*
X0185227Y0072006D01*
X0185174Y0071854D01*
X0185118Y0071703D01*
X0185057Y0071554D01*
X0184994Y0071406D01*
X0184926Y0071260D01*
X0184855Y0071116D01*
X0184781Y0070974D01*
X0184703Y0070833D01*
X0184621Y0070695D01*
X0184536Y0070558D01*
X0184448Y0070424D01*
X0184356Y0070292D01*
X0184261Y0070162D01*
X0184163Y0070034D01*
X0184062Y0069909D01*
X0183958Y0069787D01*
X0183851Y0069667D01*
X0183741Y0069550D01*
X0183628Y0069435D01*
X0183512Y0069324D01*
X0183393Y0069215D01*
X0183272Y0069110D01*
X0183148Y0069007D01*
X0183022Y0068907D01*
X0182894Y0068811D01*
X0182763Y0068718D01*
X0182629Y0068628D01*
X0182494Y0068541D01*
X0182356Y0068458D01*
X0182217Y0068378D01*
X0182075Y0068302D01*
X0181932Y0068229D01*
X0181787Y0068160D01*
X0181640Y0068094D01*
X0181492Y0068032D01*
X0181342Y0067974D01*
X0181191Y0067919D01*
X0181038Y0067868D01*
X0180884Y0067821D01*
X0180729Y0067778D01*
X0180573Y0067739D01*
X0180417Y0067703D01*
X0180259Y0067672D01*
X0180101Y0067644D01*
X0179942Y0067620D01*
X0179782Y0067600D01*
X0179622Y0067584D01*
X0179462Y0067572D01*
X0179301Y0067564D01*
X0179140Y0067560D01*
X0178980Y0067560D01*
X0178819Y0067564D01*
X0178658Y0067572D01*
X0178498Y0067584D01*
X0178338Y0067600D01*
X0178178Y0067620D01*
X0178019Y0067644D01*
X0177861Y0067672D01*
X0177703Y0067703D01*
X0177547Y0067739D01*
X0177391Y0067778D01*
X0177236Y0067821D01*
X0177082Y0067868D01*
X0176929Y0067919D01*
X0176778Y0067974D01*
X0176628Y0068032D01*
X0176480Y0068094D01*
X0176333Y0068160D01*
X0176188Y0068229D01*
X0176045Y0068302D01*
X0175903Y0068378D01*
X0175764Y0068458D01*
X0175626Y0068541D01*
X0175491Y0068628D01*
X0175357Y0068718D01*
X0175226Y0068811D01*
X0175098Y0068907D01*
X0174972Y0069007D01*
X0174848Y0069110D01*
X0174727Y0069215D01*
X0174608Y0069324D01*
X0174492Y0069435D01*
X0174379Y0069550D01*
X0174269Y0069667D01*
X0174162Y0069787D01*
X0174058Y0069909D01*
X0173957Y0070034D01*
X0173859Y0070162D01*
X0173764Y0070292D01*
X0173672Y0070424D01*
X0173584Y0070558D01*
X0173499Y0070695D01*
X0173417Y0070833D01*
X0173339Y0070974D01*
X0173265Y0071116D01*
X0173194Y0071260D01*
X0173126Y0071406D01*
X0173063Y0071554D01*
X0173002Y0071703D01*
X0172946Y0071854D01*
X0172893Y0072006D01*
X0172844Y0072159D01*
X0172799Y0072313D01*
X0172758Y0072468D01*
X0172720Y0072625D01*
X0172687Y0072782D01*
X0172657Y0072940D01*
X0172631Y0073099D01*
X0172610Y0073258D01*
X0172592Y0073418D01*
X0172578Y0073578D01*
X0172568Y0073739D01*
X0172562Y0073899D01*
X0172560Y0074060D01*
X0150560Y0074060D02*
X0150562Y0074221D01*
X0150568Y0074381D01*
X0150578Y0074542D01*
X0150592Y0074702D01*
X0150610Y0074862D01*
X0150631Y0075021D01*
X0150657Y0075180D01*
X0150687Y0075338D01*
X0150720Y0075495D01*
X0150758Y0075652D01*
X0150799Y0075807D01*
X0150844Y0075961D01*
X0150893Y0076114D01*
X0150946Y0076266D01*
X0151002Y0076417D01*
X0151063Y0076566D01*
X0151126Y0076714D01*
X0151194Y0076860D01*
X0151265Y0077004D01*
X0151339Y0077146D01*
X0151417Y0077287D01*
X0151499Y0077425D01*
X0151584Y0077562D01*
X0151672Y0077696D01*
X0151764Y0077828D01*
X0151859Y0077958D01*
X0151957Y0078086D01*
X0152058Y0078211D01*
X0152162Y0078333D01*
X0152269Y0078453D01*
X0152379Y0078570D01*
X0152492Y0078685D01*
X0152608Y0078796D01*
X0152727Y0078905D01*
X0152848Y0079010D01*
X0152972Y0079113D01*
X0153098Y0079213D01*
X0153226Y0079309D01*
X0153357Y0079402D01*
X0153491Y0079492D01*
X0153626Y0079579D01*
X0153764Y0079662D01*
X0153903Y0079742D01*
X0154045Y0079818D01*
X0154188Y0079891D01*
X0154333Y0079960D01*
X0154480Y0080026D01*
X0154628Y0080088D01*
X0154778Y0080146D01*
X0154929Y0080201D01*
X0155082Y0080252D01*
X0155236Y0080299D01*
X0155391Y0080342D01*
X0155547Y0080381D01*
X0155703Y0080417D01*
X0155861Y0080448D01*
X0156019Y0080476D01*
X0156178Y0080500D01*
X0156338Y0080520D01*
X0156498Y0080536D01*
X0156658Y0080548D01*
X0156819Y0080556D01*
X0156980Y0080560D01*
X0157140Y0080560D01*
X0157301Y0080556D01*
X0157462Y0080548D01*
X0157622Y0080536D01*
X0157782Y0080520D01*
X0157942Y0080500D01*
X0158101Y0080476D01*
X0158259Y0080448D01*
X0158417Y0080417D01*
X0158573Y0080381D01*
X0158729Y0080342D01*
X0158884Y0080299D01*
X0159038Y0080252D01*
X0159191Y0080201D01*
X0159342Y0080146D01*
X0159492Y0080088D01*
X0159640Y0080026D01*
X0159787Y0079960D01*
X0159932Y0079891D01*
X0160075Y0079818D01*
X0160217Y0079742D01*
X0160356Y0079662D01*
X0160494Y0079579D01*
X0160629Y0079492D01*
X0160763Y0079402D01*
X0160894Y0079309D01*
X0161022Y0079213D01*
X0161148Y0079113D01*
X0161272Y0079010D01*
X0161393Y0078905D01*
X0161512Y0078796D01*
X0161628Y0078685D01*
X0161741Y0078570D01*
X0161851Y0078453D01*
X0161958Y0078333D01*
X0162062Y0078211D01*
X0162163Y0078086D01*
X0162261Y0077958D01*
X0162356Y0077828D01*
X0162448Y0077696D01*
X0162536Y0077562D01*
X0162621Y0077425D01*
X0162703Y0077287D01*
X0162781Y0077146D01*
X0162855Y0077004D01*
X0162926Y0076860D01*
X0162994Y0076714D01*
X0163057Y0076566D01*
X0163118Y0076417D01*
X0163174Y0076266D01*
X0163227Y0076114D01*
X0163276Y0075961D01*
X0163321Y0075807D01*
X0163362Y0075652D01*
X0163400Y0075495D01*
X0163433Y0075338D01*
X0163463Y0075180D01*
X0163489Y0075021D01*
X0163510Y0074862D01*
X0163528Y0074702D01*
X0163542Y0074542D01*
X0163552Y0074381D01*
X0163558Y0074221D01*
X0163560Y0074060D01*
X0163558Y0073899D01*
X0163552Y0073739D01*
X0163542Y0073578D01*
X0163528Y0073418D01*
X0163510Y0073258D01*
X0163489Y0073099D01*
X0163463Y0072940D01*
X0163433Y0072782D01*
X0163400Y0072625D01*
X0163362Y0072468D01*
X0163321Y0072313D01*
X0163276Y0072159D01*
X0163227Y0072006D01*
X0163174Y0071854D01*
X0163118Y0071703D01*
X0163057Y0071554D01*
X0162994Y0071406D01*
X0162926Y0071260D01*
X0162855Y0071116D01*
X0162781Y0070974D01*
X0162703Y0070833D01*
X0162621Y0070695D01*
X0162536Y0070558D01*
X0162448Y0070424D01*
X0162356Y0070292D01*
X0162261Y0070162D01*
X0162163Y0070034D01*
X0162062Y0069909D01*
X0161958Y0069787D01*
X0161851Y0069667D01*
X0161741Y0069550D01*
X0161628Y0069435D01*
X0161512Y0069324D01*
X0161393Y0069215D01*
X0161272Y0069110D01*
X0161148Y0069007D01*
X0161022Y0068907D01*
X0160894Y0068811D01*
X0160763Y0068718D01*
X0160629Y0068628D01*
X0160494Y0068541D01*
X0160356Y0068458D01*
X0160217Y0068378D01*
X0160075Y0068302D01*
X0159932Y0068229D01*
X0159787Y0068160D01*
X0159640Y0068094D01*
X0159492Y0068032D01*
X0159342Y0067974D01*
X0159191Y0067919D01*
X0159038Y0067868D01*
X0158884Y0067821D01*
X0158729Y0067778D01*
X0158573Y0067739D01*
X0158417Y0067703D01*
X0158259Y0067672D01*
X0158101Y0067644D01*
X0157942Y0067620D01*
X0157782Y0067600D01*
X0157622Y0067584D01*
X0157462Y0067572D01*
X0157301Y0067564D01*
X0157140Y0067560D01*
X0156980Y0067560D01*
X0156819Y0067564D01*
X0156658Y0067572D01*
X0156498Y0067584D01*
X0156338Y0067600D01*
X0156178Y0067620D01*
X0156019Y0067644D01*
X0155861Y0067672D01*
X0155703Y0067703D01*
X0155547Y0067739D01*
X0155391Y0067778D01*
X0155236Y0067821D01*
X0155082Y0067868D01*
X0154929Y0067919D01*
X0154778Y0067974D01*
X0154628Y0068032D01*
X0154480Y0068094D01*
X0154333Y0068160D01*
X0154188Y0068229D01*
X0154045Y0068302D01*
X0153903Y0068378D01*
X0153764Y0068458D01*
X0153626Y0068541D01*
X0153491Y0068628D01*
X0153357Y0068718D01*
X0153226Y0068811D01*
X0153098Y0068907D01*
X0152972Y0069007D01*
X0152848Y0069110D01*
X0152727Y0069215D01*
X0152608Y0069324D01*
X0152492Y0069435D01*
X0152379Y0069550D01*
X0152269Y0069667D01*
X0152162Y0069787D01*
X0152058Y0069909D01*
X0151957Y0070034D01*
X0151859Y0070162D01*
X0151764Y0070292D01*
X0151672Y0070424D01*
X0151584Y0070558D01*
X0151499Y0070695D01*
X0151417Y0070833D01*
X0151339Y0070974D01*
X0151265Y0071116D01*
X0151194Y0071260D01*
X0151126Y0071406D01*
X0151063Y0071554D01*
X0151002Y0071703D01*
X0150946Y0071854D01*
X0150893Y0072006D01*
X0150844Y0072159D01*
X0150799Y0072313D01*
X0150758Y0072468D01*
X0150720Y0072625D01*
X0150687Y0072782D01*
X0150657Y0072940D01*
X0150631Y0073099D01*
X0150610Y0073258D01*
X0150592Y0073418D01*
X0150578Y0073578D01*
X0150568Y0073739D01*
X0150562Y0073899D01*
X0150560Y0074060D01*
X0090560Y0074060D02*
X0090562Y0074221D01*
X0090568Y0074381D01*
X0090578Y0074542D01*
X0090592Y0074702D01*
X0090610Y0074862D01*
X0090631Y0075021D01*
X0090657Y0075180D01*
X0090687Y0075338D01*
X0090720Y0075495D01*
X0090758Y0075652D01*
X0090799Y0075807D01*
X0090844Y0075961D01*
X0090893Y0076114D01*
X0090946Y0076266D01*
X0091002Y0076417D01*
X0091063Y0076566D01*
X0091126Y0076714D01*
X0091194Y0076860D01*
X0091265Y0077004D01*
X0091339Y0077146D01*
X0091417Y0077287D01*
X0091499Y0077425D01*
X0091584Y0077562D01*
X0091672Y0077696D01*
X0091764Y0077828D01*
X0091859Y0077958D01*
X0091957Y0078086D01*
X0092058Y0078211D01*
X0092162Y0078333D01*
X0092269Y0078453D01*
X0092379Y0078570D01*
X0092492Y0078685D01*
X0092608Y0078796D01*
X0092727Y0078905D01*
X0092848Y0079010D01*
X0092972Y0079113D01*
X0093098Y0079213D01*
X0093226Y0079309D01*
X0093357Y0079402D01*
X0093491Y0079492D01*
X0093626Y0079579D01*
X0093764Y0079662D01*
X0093903Y0079742D01*
X0094045Y0079818D01*
X0094188Y0079891D01*
X0094333Y0079960D01*
X0094480Y0080026D01*
X0094628Y0080088D01*
X0094778Y0080146D01*
X0094929Y0080201D01*
X0095082Y0080252D01*
X0095236Y0080299D01*
X0095391Y0080342D01*
X0095547Y0080381D01*
X0095703Y0080417D01*
X0095861Y0080448D01*
X0096019Y0080476D01*
X0096178Y0080500D01*
X0096338Y0080520D01*
X0096498Y0080536D01*
X0096658Y0080548D01*
X0096819Y0080556D01*
X0096980Y0080560D01*
X0097140Y0080560D01*
X0097301Y0080556D01*
X0097462Y0080548D01*
X0097622Y0080536D01*
X0097782Y0080520D01*
X0097942Y0080500D01*
X0098101Y0080476D01*
X0098259Y0080448D01*
X0098417Y0080417D01*
X0098573Y0080381D01*
X0098729Y0080342D01*
X0098884Y0080299D01*
X0099038Y0080252D01*
X0099191Y0080201D01*
X0099342Y0080146D01*
X0099492Y0080088D01*
X0099640Y0080026D01*
X0099787Y0079960D01*
X0099932Y0079891D01*
X0100075Y0079818D01*
X0100217Y0079742D01*
X0100356Y0079662D01*
X0100494Y0079579D01*
X0100629Y0079492D01*
X0100763Y0079402D01*
X0100894Y0079309D01*
X0101022Y0079213D01*
X0101148Y0079113D01*
X0101272Y0079010D01*
X0101393Y0078905D01*
X0101512Y0078796D01*
X0101628Y0078685D01*
X0101741Y0078570D01*
X0101851Y0078453D01*
X0101958Y0078333D01*
X0102062Y0078211D01*
X0102163Y0078086D01*
X0102261Y0077958D01*
X0102356Y0077828D01*
X0102448Y0077696D01*
X0102536Y0077562D01*
X0102621Y0077425D01*
X0102703Y0077287D01*
X0102781Y0077146D01*
X0102855Y0077004D01*
X0102926Y0076860D01*
X0102994Y0076714D01*
X0103057Y0076566D01*
X0103118Y0076417D01*
X0103174Y0076266D01*
X0103227Y0076114D01*
X0103276Y0075961D01*
X0103321Y0075807D01*
X0103362Y0075652D01*
X0103400Y0075495D01*
X0103433Y0075338D01*
X0103463Y0075180D01*
X0103489Y0075021D01*
X0103510Y0074862D01*
X0103528Y0074702D01*
X0103542Y0074542D01*
X0103552Y0074381D01*
X0103558Y0074221D01*
X0103560Y0074060D01*
X0103558Y0073899D01*
X0103552Y0073739D01*
X0103542Y0073578D01*
X0103528Y0073418D01*
X0103510Y0073258D01*
X0103489Y0073099D01*
X0103463Y0072940D01*
X0103433Y0072782D01*
X0103400Y0072625D01*
X0103362Y0072468D01*
X0103321Y0072313D01*
X0103276Y0072159D01*
X0103227Y0072006D01*
X0103174Y0071854D01*
X0103118Y0071703D01*
X0103057Y0071554D01*
X0102994Y0071406D01*
X0102926Y0071260D01*
X0102855Y0071116D01*
X0102781Y0070974D01*
X0102703Y0070833D01*
X0102621Y0070695D01*
X0102536Y0070558D01*
X0102448Y0070424D01*
X0102356Y0070292D01*
X0102261Y0070162D01*
X0102163Y0070034D01*
X0102062Y0069909D01*
X0101958Y0069787D01*
X0101851Y0069667D01*
X0101741Y0069550D01*
X0101628Y0069435D01*
X0101512Y0069324D01*
X0101393Y0069215D01*
X0101272Y0069110D01*
X0101148Y0069007D01*
X0101022Y0068907D01*
X0100894Y0068811D01*
X0100763Y0068718D01*
X0100629Y0068628D01*
X0100494Y0068541D01*
X0100356Y0068458D01*
X0100217Y0068378D01*
X0100075Y0068302D01*
X0099932Y0068229D01*
X0099787Y0068160D01*
X0099640Y0068094D01*
X0099492Y0068032D01*
X0099342Y0067974D01*
X0099191Y0067919D01*
X0099038Y0067868D01*
X0098884Y0067821D01*
X0098729Y0067778D01*
X0098573Y0067739D01*
X0098417Y0067703D01*
X0098259Y0067672D01*
X0098101Y0067644D01*
X0097942Y0067620D01*
X0097782Y0067600D01*
X0097622Y0067584D01*
X0097462Y0067572D01*
X0097301Y0067564D01*
X0097140Y0067560D01*
X0096980Y0067560D01*
X0096819Y0067564D01*
X0096658Y0067572D01*
X0096498Y0067584D01*
X0096338Y0067600D01*
X0096178Y0067620D01*
X0096019Y0067644D01*
X0095861Y0067672D01*
X0095703Y0067703D01*
X0095547Y0067739D01*
X0095391Y0067778D01*
X0095236Y0067821D01*
X0095082Y0067868D01*
X0094929Y0067919D01*
X0094778Y0067974D01*
X0094628Y0068032D01*
X0094480Y0068094D01*
X0094333Y0068160D01*
X0094188Y0068229D01*
X0094045Y0068302D01*
X0093903Y0068378D01*
X0093764Y0068458D01*
X0093626Y0068541D01*
X0093491Y0068628D01*
X0093357Y0068718D01*
X0093226Y0068811D01*
X0093098Y0068907D01*
X0092972Y0069007D01*
X0092848Y0069110D01*
X0092727Y0069215D01*
X0092608Y0069324D01*
X0092492Y0069435D01*
X0092379Y0069550D01*
X0092269Y0069667D01*
X0092162Y0069787D01*
X0092058Y0069909D01*
X0091957Y0070034D01*
X0091859Y0070162D01*
X0091764Y0070292D01*
X0091672Y0070424D01*
X0091584Y0070558D01*
X0091499Y0070695D01*
X0091417Y0070833D01*
X0091339Y0070974D01*
X0091265Y0071116D01*
X0091194Y0071260D01*
X0091126Y0071406D01*
X0091063Y0071554D01*
X0091002Y0071703D01*
X0090946Y0071854D01*
X0090893Y0072006D01*
X0090844Y0072159D01*
X0090799Y0072313D01*
X0090758Y0072468D01*
X0090720Y0072625D01*
X0090687Y0072782D01*
X0090657Y0072940D01*
X0090631Y0073099D01*
X0090610Y0073258D01*
X0090592Y0073418D01*
X0090578Y0073578D01*
X0090568Y0073739D01*
X0090562Y0073899D01*
X0090560Y0074060D01*
X0068560Y0074060D02*
X0068562Y0074221D01*
X0068568Y0074381D01*
X0068578Y0074542D01*
X0068592Y0074702D01*
X0068610Y0074862D01*
X0068631Y0075021D01*
X0068657Y0075180D01*
X0068687Y0075338D01*
X0068720Y0075495D01*
X0068758Y0075652D01*
X0068799Y0075807D01*
X0068844Y0075961D01*
X0068893Y0076114D01*
X0068946Y0076266D01*
X0069002Y0076417D01*
X0069063Y0076566D01*
X0069126Y0076714D01*
X0069194Y0076860D01*
X0069265Y0077004D01*
X0069339Y0077146D01*
X0069417Y0077287D01*
X0069499Y0077425D01*
X0069584Y0077562D01*
X0069672Y0077696D01*
X0069764Y0077828D01*
X0069859Y0077958D01*
X0069957Y0078086D01*
X0070058Y0078211D01*
X0070162Y0078333D01*
X0070269Y0078453D01*
X0070379Y0078570D01*
X0070492Y0078685D01*
X0070608Y0078796D01*
X0070727Y0078905D01*
X0070848Y0079010D01*
X0070972Y0079113D01*
X0071098Y0079213D01*
X0071226Y0079309D01*
X0071357Y0079402D01*
X0071491Y0079492D01*
X0071626Y0079579D01*
X0071764Y0079662D01*
X0071903Y0079742D01*
X0072045Y0079818D01*
X0072188Y0079891D01*
X0072333Y0079960D01*
X0072480Y0080026D01*
X0072628Y0080088D01*
X0072778Y0080146D01*
X0072929Y0080201D01*
X0073082Y0080252D01*
X0073236Y0080299D01*
X0073391Y0080342D01*
X0073547Y0080381D01*
X0073703Y0080417D01*
X0073861Y0080448D01*
X0074019Y0080476D01*
X0074178Y0080500D01*
X0074338Y0080520D01*
X0074498Y0080536D01*
X0074658Y0080548D01*
X0074819Y0080556D01*
X0074980Y0080560D01*
X0075140Y0080560D01*
X0075301Y0080556D01*
X0075462Y0080548D01*
X0075622Y0080536D01*
X0075782Y0080520D01*
X0075942Y0080500D01*
X0076101Y0080476D01*
X0076259Y0080448D01*
X0076417Y0080417D01*
X0076573Y0080381D01*
X0076729Y0080342D01*
X0076884Y0080299D01*
X0077038Y0080252D01*
X0077191Y0080201D01*
X0077342Y0080146D01*
X0077492Y0080088D01*
X0077640Y0080026D01*
X0077787Y0079960D01*
X0077932Y0079891D01*
X0078075Y0079818D01*
X0078217Y0079742D01*
X0078356Y0079662D01*
X0078494Y0079579D01*
X0078629Y0079492D01*
X0078763Y0079402D01*
X0078894Y0079309D01*
X0079022Y0079213D01*
X0079148Y0079113D01*
X0079272Y0079010D01*
X0079393Y0078905D01*
X0079512Y0078796D01*
X0079628Y0078685D01*
X0079741Y0078570D01*
X0079851Y0078453D01*
X0079958Y0078333D01*
X0080062Y0078211D01*
X0080163Y0078086D01*
X0080261Y0077958D01*
X0080356Y0077828D01*
X0080448Y0077696D01*
X0080536Y0077562D01*
X0080621Y0077425D01*
X0080703Y0077287D01*
X0080781Y0077146D01*
X0080855Y0077004D01*
X0080926Y0076860D01*
X0080994Y0076714D01*
X0081057Y0076566D01*
X0081118Y0076417D01*
X0081174Y0076266D01*
X0081227Y0076114D01*
X0081276Y0075961D01*
X0081321Y0075807D01*
X0081362Y0075652D01*
X0081400Y0075495D01*
X0081433Y0075338D01*
X0081463Y0075180D01*
X0081489Y0075021D01*
X0081510Y0074862D01*
X0081528Y0074702D01*
X0081542Y0074542D01*
X0081552Y0074381D01*
X0081558Y0074221D01*
X0081560Y0074060D01*
X0081558Y0073899D01*
X0081552Y0073739D01*
X0081542Y0073578D01*
X0081528Y0073418D01*
X0081510Y0073258D01*
X0081489Y0073099D01*
X0081463Y0072940D01*
X0081433Y0072782D01*
X0081400Y0072625D01*
X0081362Y0072468D01*
X0081321Y0072313D01*
X0081276Y0072159D01*
X0081227Y0072006D01*
X0081174Y0071854D01*
X0081118Y0071703D01*
X0081057Y0071554D01*
X0080994Y0071406D01*
X0080926Y0071260D01*
X0080855Y0071116D01*
X0080781Y0070974D01*
X0080703Y0070833D01*
X0080621Y0070695D01*
X0080536Y0070558D01*
X0080448Y0070424D01*
X0080356Y0070292D01*
X0080261Y0070162D01*
X0080163Y0070034D01*
X0080062Y0069909D01*
X0079958Y0069787D01*
X0079851Y0069667D01*
X0079741Y0069550D01*
X0079628Y0069435D01*
X0079512Y0069324D01*
X0079393Y0069215D01*
X0079272Y0069110D01*
X0079148Y0069007D01*
X0079022Y0068907D01*
X0078894Y0068811D01*
X0078763Y0068718D01*
X0078629Y0068628D01*
X0078494Y0068541D01*
X0078356Y0068458D01*
X0078217Y0068378D01*
X0078075Y0068302D01*
X0077932Y0068229D01*
X0077787Y0068160D01*
X0077640Y0068094D01*
X0077492Y0068032D01*
X0077342Y0067974D01*
X0077191Y0067919D01*
X0077038Y0067868D01*
X0076884Y0067821D01*
X0076729Y0067778D01*
X0076573Y0067739D01*
X0076417Y0067703D01*
X0076259Y0067672D01*
X0076101Y0067644D01*
X0075942Y0067620D01*
X0075782Y0067600D01*
X0075622Y0067584D01*
X0075462Y0067572D01*
X0075301Y0067564D01*
X0075140Y0067560D01*
X0074980Y0067560D01*
X0074819Y0067564D01*
X0074658Y0067572D01*
X0074498Y0067584D01*
X0074338Y0067600D01*
X0074178Y0067620D01*
X0074019Y0067644D01*
X0073861Y0067672D01*
X0073703Y0067703D01*
X0073547Y0067739D01*
X0073391Y0067778D01*
X0073236Y0067821D01*
X0073082Y0067868D01*
X0072929Y0067919D01*
X0072778Y0067974D01*
X0072628Y0068032D01*
X0072480Y0068094D01*
X0072333Y0068160D01*
X0072188Y0068229D01*
X0072045Y0068302D01*
X0071903Y0068378D01*
X0071764Y0068458D01*
X0071626Y0068541D01*
X0071491Y0068628D01*
X0071357Y0068718D01*
X0071226Y0068811D01*
X0071098Y0068907D01*
X0070972Y0069007D01*
X0070848Y0069110D01*
X0070727Y0069215D01*
X0070608Y0069324D01*
X0070492Y0069435D01*
X0070379Y0069550D01*
X0070269Y0069667D01*
X0070162Y0069787D01*
X0070058Y0069909D01*
X0069957Y0070034D01*
X0069859Y0070162D01*
X0069764Y0070292D01*
X0069672Y0070424D01*
X0069584Y0070558D01*
X0069499Y0070695D01*
X0069417Y0070833D01*
X0069339Y0070974D01*
X0069265Y0071116D01*
X0069194Y0071260D01*
X0069126Y0071406D01*
X0069063Y0071554D01*
X0069002Y0071703D01*
X0068946Y0071854D01*
X0068893Y0072006D01*
X0068844Y0072159D01*
X0068799Y0072313D01*
X0068758Y0072468D01*
X0068720Y0072625D01*
X0068687Y0072782D01*
X0068657Y0072940D01*
X0068631Y0073099D01*
X0068610Y0073258D01*
X0068592Y0073418D01*
X0068578Y0073578D01*
X0068568Y0073739D01*
X0068562Y0073899D01*
X0068560Y0074060D01*
X0008560Y0074060D02*
X0008562Y0074221D01*
X0008568Y0074381D01*
X0008578Y0074542D01*
X0008592Y0074702D01*
X0008610Y0074862D01*
X0008631Y0075021D01*
X0008657Y0075180D01*
X0008687Y0075338D01*
X0008720Y0075495D01*
X0008758Y0075652D01*
X0008799Y0075807D01*
X0008844Y0075961D01*
X0008893Y0076114D01*
X0008946Y0076266D01*
X0009002Y0076417D01*
X0009063Y0076566D01*
X0009126Y0076714D01*
X0009194Y0076860D01*
X0009265Y0077004D01*
X0009339Y0077146D01*
X0009417Y0077287D01*
X0009499Y0077425D01*
X0009584Y0077562D01*
X0009672Y0077696D01*
X0009764Y0077828D01*
X0009859Y0077958D01*
X0009957Y0078086D01*
X0010058Y0078211D01*
X0010162Y0078333D01*
X0010269Y0078453D01*
X0010379Y0078570D01*
X0010492Y0078685D01*
X0010608Y0078796D01*
X0010727Y0078905D01*
X0010848Y0079010D01*
X0010972Y0079113D01*
X0011098Y0079213D01*
X0011226Y0079309D01*
X0011357Y0079402D01*
X0011491Y0079492D01*
X0011626Y0079579D01*
X0011764Y0079662D01*
X0011903Y0079742D01*
X0012045Y0079818D01*
X0012188Y0079891D01*
X0012333Y0079960D01*
X0012480Y0080026D01*
X0012628Y0080088D01*
X0012778Y0080146D01*
X0012929Y0080201D01*
X0013082Y0080252D01*
X0013236Y0080299D01*
X0013391Y0080342D01*
X0013547Y0080381D01*
X0013703Y0080417D01*
X0013861Y0080448D01*
X0014019Y0080476D01*
X0014178Y0080500D01*
X0014338Y0080520D01*
X0014498Y0080536D01*
X0014658Y0080548D01*
X0014819Y0080556D01*
X0014980Y0080560D01*
X0015140Y0080560D01*
X0015301Y0080556D01*
X0015462Y0080548D01*
X0015622Y0080536D01*
X0015782Y0080520D01*
X0015942Y0080500D01*
X0016101Y0080476D01*
X0016259Y0080448D01*
X0016417Y0080417D01*
X0016573Y0080381D01*
X0016729Y0080342D01*
X0016884Y0080299D01*
X0017038Y0080252D01*
X0017191Y0080201D01*
X0017342Y0080146D01*
X0017492Y0080088D01*
X0017640Y0080026D01*
X0017787Y0079960D01*
X0017932Y0079891D01*
X0018075Y0079818D01*
X0018217Y0079742D01*
X0018356Y0079662D01*
X0018494Y0079579D01*
X0018629Y0079492D01*
X0018763Y0079402D01*
X0018894Y0079309D01*
X0019022Y0079213D01*
X0019148Y0079113D01*
X0019272Y0079010D01*
X0019393Y0078905D01*
X0019512Y0078796D01*
X0019628Y0078685D01*
X0019741Y0078570D01*
X0019851Y0078453D01*
X0019958Y0078333D01*
X0020062Y0078211D01*
X0020163Y0078086D01*
X0020261Y0077958D01*
X0020356Y0077828D01*
X0020448Y0077696D01*
X0020536Y0077562D01*
X0020621Y0077425D01*
X0020703Y0077287D01*
X0020781Y0077146D01*
X0020855Y0077004D01*
X0020926Y0076860D01*
X0020994Y0076714D01*
X0021057Y0076566D01*
X0021118Y0076417D01*
X0021174Y0076266D01*
X0021227Y0076114D01*
X0021276Y0075961D01*
X0021321Y0075807D01*
X0021362Y0075652D01*
X0021400Y0075495D01*
X0021433Y0075338D01*
X0021463Y0075180D01*
X0021489Y0075021D01*
X0021510Y0074862D01*
X0021528Y0074702D01*
X0021542Y0074542D01*
X0021552Y0074381D01*
X0021558Y0074221D01*
X0021560Y0074060D01*
X0021558Y0073899D01*
X0021552Y0073739D01*
X0021542Y0073578D01*
X0021528Y0073418D01*
X0021510Y0073258D01*
X0021489Y0073099D01*
X0021463Y0072940D01*
X0021433Y0072782D01*
X0021400Y0072625D01*
X0021362Y0072468D01*
X0021321Y0072313D01*
X0021276Y0072159D01*
X0021227Y0072006D01*
X0021174Y0071854D01*
X0021118Y0071703D01*
X0021057Y0071554D01*
X0020994Y0071406D01*
X0020926Y0071260D01*
X0020855Y0071116D01*
X0020781Y0070974D01*
X0020703Y0070833D01*
X0020621Y0070695D01*
X0020536Y0070558D01*
X0020448Y0070424D01*
X0020356Y0070292D01*
X0020261Y0070162D01*
X0020163Y0070034D01*
X0020062Y0069909D01*
X0019958Y0069787D01*
X0019851Y0069667D01*
X0019741Y0069550D01*
X0019628Y0069435D01*
X0019512Y0069324D01*
X0019393Y0069215D01*
X0019272Y0069110D01*
X0019148Y0069007D01*
X0019022Y0068907D01*
X0018894Y0068811D01*
X0018763Y0068718D01*
X0018629Y0068628D01*
X0018494Y0068541D01*
X0018356Y0068458D01*
X0018217Y0068378D01*
X0018075Y0068302D01*
X0017932Y0068229D01*
X0017787Y0068160D01*
X0017640Y0068094D01*
X0017492Y0068032D01*
X0017342Y0067974D01*
X0017191Y0067919D01*
X0017038Y0067868D01*
X0016884Y0067821D01*
X0016729Y0067778D01*
X0016573Y0067739D01*
X0016417Y0067703D01*
X0016259Y0067672D01*
X0016101Y0067644D01*
X0015942Y0067620D01*
X0015782Y0067600D01*
X0015622Y0067584D01*
X0015462Y0067572D01*
X0015301Y0067564D01*
X0015140Y0067560D01*
X0014980Y0067560D01*
X0014819Y0067564D01*
X0014658Y0067572D01*
X0014498Y0067584D01*
X0014338Y0067600D01*
X0014178Y0067620D01*
X0014019Y0067644D01*
X0013861Y0067672D01*
X0013703Y0067703D01*
X0013547Y0067739D01*
X0013391Y0067778D01*
X0013236Y0067821D01*
X0013082Y0067868D01*
X0012929Y0067919D01*
X0012778Y0067974D01*
X0012628Y0068032D01*
X0012480Y0068094D01*
X0012333Y0068160D01*
X0012188Y0068229D01*
X0012045Y0068302D01*
X0011903Y0068378D01*
X0011764Y0068458D01*
X0011626Y0068541D01*
X0011491Y0068628D01*
X0011357Y0068718D01*
X0011226Y0068811D01*
X0011098Y0068907D01*
X0010972Y0069007D01*
X0010848Y0069110D01*
X0010727Y0069215D01*
X0010608Y0069324D01*
X0010492Y0069435D01*
X0010379Y0069550D01*
X0010269Y0069667D01*
X0010162Y0069787D01*
X0010058Y0069909D01*
X0009957Y0070034D01*
X0009859Y0070162D01*
X0009764Y0070292D01*
X0009672Y0070424D01*
X0009584Y0070558D01*
X0009499Y0070695D01*
X0009417Y0070833D01*
X0009339Y0070974D01*
X0009265Y0071116D01*
X0009194Y0071260D01*
X0009126Y0071406D01*
X0009063Y0071554D01*
X0009002Y0071703D01*
X0008946Y0071854D01*
X0008893Y0072006D01*
X0008844Y0072159D01*
X0008799Y0072313D01*
X0008758Y0072468D01*
X0008720Y0072625D01*
X0008687Y0072782D01*
X0008657Y0072940D01*
X0008631Y0073099D01*
X0008610Y0073258D01*
X0008592Y0073418D01*
X0008578Y0073578D01*
X0008568Y0073739D01*
X0008562Y0073899D01*
X0008560Y0074060D01*
M02*
