G75*
%MOIN*%
%OFA0B0*%
%FSLAX25Y25*%
%IPPOS*%
%LPD*%
%AMOC8*
5,1,8,0,0,1.08239X$1,22.5*
%
%ADD10C,0.01486*%
%ADD11R,0.05131X0.04737*%
%ADD12C,0.13800*%
%ADD13C,0.08200*%
%ADD14C,0.03900*%
D10*
X0037793Y0040844D02*
X0040453Y0040844D01*
X0037793Y0040844D02*
X0037793Y0041338D01*
X0040453Y0041338D01*
X0040453Y0040844D01*
X0040453Y0042813D02*
X0037793Y0042813D01*
X0037793Y0043307D01*
X0040453Y0043307D01*
X0040453Y0042813D01*
X0040453Y0044781D02*
X0037793Y0044781D01*
X0037793Y0045275D01*
X0040453Y0045275D01*
X0040453Y0044781D01*
X0040453Y0046750D02*
X0037793Y0046750D01*
X0037793Y0047244D01*
X0040453Y0047244D01*
X0040453Y0046750D01*
X0042370Y0048628D02*
X0042370Y0051288D01*
X0042370Y0048628D02*
X0041876Y0048628D01*
X0041876Y0051288D01*
X0042370Y0051288D01*
X0042370Y0050113D02*
X0041876Y0050113D01*
X0044338Y0051288D02*
X0044338Y0048628D01*
X0043844Y0048628D01*
X0043844Y0051288D01*
X0044338Y0051288D01*
X0044338Y0050113D02*
X0043844Y0050113D01*
X0046307Y0051288D02*
X0046307Y0048628D01*
X0045813Y0048628D01*
X0045813Y0051288D01*
X0046307Y0051288D01*
X0046307Y0050113D02*
X0045813Y0050113D01*
X0048275Y0051288D02*
X0048275Y0048628D01*
X0047781Y0048628D01*
X0047781Y0051288D01*
X0048275Y0051288D01*
X0048275Y0050113D02*
X0047781Y0050113D01*
X0049620Y0047205D02*
X0052280Y0047205D01*
X0052280Y0046711D01*
X0049620Y0046711D01*
X0049620Y0047205D01*
X0049620Y0045236D02*
X0052280Y0045236D01*
X0052280Y0044742D01*
X0049620Y0044742D01*
X0049620Y0045236D01*
X0049620Y0043268D02*
X0052280Y0043268D01*
X0052280Y0042774D01*
X0049620Y0042774D01*
X0049620Y0043268D01*
X0049620Y0041299D02*
X0052280Y0041299D01*
X0052280Y0040805D01*
X0049620Y0040805D01*
X0049620Y0041299D01*
X0047781Y0039461D02*
X0047781Y0036801D01*
X0047781Y0039461D02*
X0048275Y0039461D01*
X0048275Y0036801D01*
X0047781Y0036801D01*
X0047781Y0038286D02*
X0048275Y0038286D01*
X0045813Y0039461D02*
X0045813Y0036801D01*
X0045813Y0039461D02*
X0046307Y0039461D01*
X0046307Y0036801D01*
X0045813Y0036801D01*
X0045813Y0038286D02*
X0046307Y0038286D01*
X0043844Y0039461D02*
X0043844Y0036801D01*
X0043844Y0039461D02*
X0044338Y0039461D01*
X0044338Y0036801D01*
X0043844Y0036801D01*
X0043844Y0038286D02*
X0044338Y0038286D01*
X0041876Y0039461D02*
X0041876Y0036801D01*
X0041876Y0039461D02*
X0042370Y0039461D01*
X0042370Y0036801D01*
X0041876Y0036801D01*
X0041876Y0038286D02*
X0042370Y0038286D01*
X0119793Y0040844D02*
X0122453Y0040844D01*
X0119793Y0040844D02*
X0119793Y0041338D01*
X0122453Y0041338D01*
X0122453Y0040844D01*
X0122453Y0042813D02*
X0119793Y0042813D01*
X0119793Y0043307D01*
X0122453Y0043307D01*
X0122453Y0042813D01*
X0122453Y0044781D02*
X0119793Y0044781D01*
X0119793Y0045275D01*
X0122453Y0045275D01*
X0122453Y0044781D01*
X0122453Y0046750D02*
X0119793Y0046750D01*
X0119793Y0047244D01*
X0122453Y0047244D01*
X0122453Y0046750D01*
X0124370Y0048628D02*
X0124370Y0051288D01*
X0124370Y0048628D02*
X0123876Y0048628D01*
X0123876Y0051288D01*
X0124370Y0051288D01*
X0124370Y0050113D02*
X0123876Y0050113D01*
X0126338Y0051288D02*
X0126338Y0048628D01*
X0125844Y0048628D01*
X0125844Y0051288D01*
X0126338Y0051288D01*
X0126338Y0050113D02*
X0125844Y0050113D01*
X0128307Y0051288D02*
X0128307Y0048628D01*
X0127813Y0048628D01*
X0127813Y0051288D01*
X0128307Y0051288D01*
X0128307Y0050113D02*
X0127813Y0050113D01*
X0130275Y0051288D02*
X0130275Y0048628D01*
X0129781Y0048628D01*
X0129781Y0051288D01*
X0130275Y0051288D01*
X0130275Y0050113D02*
X0129781Y0050113D01*
X0131620Y0047205D02*
X0134280Y0047205D01*
X0134280Y0046711D01*
X0131620Y0046711D01*
X0131620Y0047205D01*
X0131620Y0045236D02*
X0134280Y0045236D01*
X0134280Y0044742D01*
X0131620Y0044742D01*
X0131620Y0045236D01*
X0131620Y0043268D02*
X0134280Y0043268D01*
X0134280Y0042774D01*
X0131620Y0042774D01*
X0131620Y0043268D01*
X0131620Y0041299D02*
X0134280Y0041299D01*
X0134280Y0040805D01*
X0131620Y0040805D01*
X0131620Y0041299D01*
X0129781Y0039461D02*
X0129781Y0036801D01*
X0129781Y0039461D02*
X0130275Y0039461D01*
X0130275Y0036801D01*
X0129781Y0036801D01*
X0129781Y0038286D02*
X0130275Y0038286D01*
X0127813Y0039461D02*
X0127813Y0036801D01*
X0127813Y0039461D02*
X0128307Y0039461D01*
X0128307Y0036801D01*
X0127813Y0036801D01*
X0127813Y0038286D02*
X0128307Y0038286D01*
X0125844Y0039461D02*
X0125844Y0036801D01*
X0125844Y0039461D02*
X0126338Y0039461D01*
X0126338Y0036801D01*
X0125844Y0036801D01*
X0125844Y0038286D02*
X0126338Y0038286D01*
X0123876Y0039461D02*
X0123876Y0036801D01*
X0123876Y0039461D02*
X0124370Y0039461D01*
X0124370Y0036801D01*
X0123876Y0036801D01*
X0123876Y0038286D02*
X0124370Y0038286D01*
X0201793Y0040844D02*
X0204453Y0040844D01*
X0201793Y0040844D02*
X0201793Y0041338D01*
X0204453Y0041338D01*
X0204453Y0040844D01*
X0204453Y0042813D02*
X0201793Y0042813D01*
X0201793Y0043307D01*
X0204453Y0043307D01*
X0204453Y0042813D01*
X0204453Y0044781D02*
X0201793Y0044781D01*
X0201793Y0045275D01*
X0204453Y0045275D01*
X0204453Y0044781D01*
X0204453Y0046750D02*
X0201793Y0046750D01*
X0201793Y0047244D01*
X0204453Y0047244D01*
X0204453Y0046750D01*
X0206370Y0048628D02*
X0206370Y0051288D01*
X0206370Y0048628D02*
X0205876Y0048628D01*
X0205876Y0051288D01*
X0206370Y0051288D01*
X0206370Y0050113D02*
X0205876Y0050113D01*
X0208338Y0051288D02*
X0208338Y0048628D01*
X0207844Y0048628D01*
X0207844Y0051288D01*
X0208338Y0051288D01*
X0208338Y0050113D02*
X0207844Y0050113D01*
X0210307Y0051288D02*
X0210307Y0048628D01*
X0209813Y0048628D01*
X0209813Y0051288D01*
X0210307Y0051288D01*
X0210307Y0050113D02*
X0209813Y0050113D01*
X0212275Y0051288D02*
X0212275Y0048628D01*
X0211781Y0048628D01*
X0211781Y0051288D01*
X0212275Y0051288D01*
X0212275Y0050113D02*
X0211781Y0050113D01*
X0213620Y0047205D02*
X0216280Y0047205D01*
X0216280Y0046711D01*
X0213620Y0046711D01*
X0213620Y0047205D01*
X0213620Y0045236D02*
X0216280Y0045236D01*
X0216280Y0044742D01*
X0213620Y0044742D01*
X0213620Y0045236D01*
X0213620Y0043268D02*
X0216280Y0043268D01*
X0216280Y0042774D01*
X0213620Y0042774D01*
X0213620Y0043268D01*
X0213620Y0041299D02*
X0216280Y0041299D01*
X0216280Y0040805D01*
X0213620Y0040805D01*
X0213620Y0041299D01*
X0211781Y0039461D02*
X0211781Y0036801D01*
X0211781Y0039461D02*
X0212275Y0039461D01*
X0212275Y0036801D01*
X0211781Y0036801D01*
X0211781Y0038286D02*
X0212275Y0038286D01*
X0209813Y0039461D02*
X0209813Y0036801D01*
X0209813Y0039461D02*
X0210307Y0039461D01*
X0210307Y0036801D01*
X0209813Y0036801D01*
X0209813Y0038286D02*
X0210307Y0038286D01*
X0207844Y0039461D02*
X0207844Y0036801D01*
X0207844Y0039461D02*
X0208338Y0039461D01*
X0208338Y0036801D01*
X0207844Y0036801D01*
X0207844Y0038286D02*
X0208338Y0038286D01*
X0205876Y0039461D02*
X0205876Y0036801D01*
X0205876Y0039461D02*
X0206370Y0039461D01*
X0206370Y0036801D01*
X0205876Y0036801D01*
X0205876Y0038286D02*
X0206370Y0038286D01*
X0205876Y0118801D02*
X0205876Y0121461D01*
X0206370Y0121461D01*
X0206370Y0118801D01*
X0205876Y0118801D01*
X0205876Y0120286D02*
X0206370Y0120286D01*
X0207844Y0121461D02*
X0207844Y0118801D01*
X0207844Y0121461D02*
X0208338Y0121461D01*
X0208338Y0118801D01*
X0207844Y0118801D01*
X0207844Y0120286D02*
X0208338Y0120286D01*
X0209813Y0121461D02*
X0209813Y0118801D01*
X0209813Y0121461D02*
X0210307Y0121461D01*
X0210307Y0118801D01*
X0209813Y0118801D01*
X0209813Y0120286D02*
X0210307Y0120286D01*
X0211781Y0121461D02*
X0211781Y0118801D01*
X0211781Y0121461D02*
X0212275Y0121461D01*
X0212275Y0118801D01*
X0211781Y0118801D01*
X0211781Y0120286D02*
X0212275Y0120286D01*
X0213620Y0123299D02*
X0216280Y0123299D01*
X0216280Y0122805D01*
X0213620Y0122805D01*
X0213620Y0123299D01*
X0213620Y0125268D02*
X0216280Y0125268D01*
X0216280Y0124774D01*
X0213620Y0124774D01*
X0213620Y0125268D01*
X0213620Y0127236D02*
X0216280Y0127236D01*
X0216280Y0126742D01*
X0213620Y0126742D01*
X0213620Y0127236D01*
X0213620Y0129205D02*
X0216280Y0129205D01*
X0216280Y0128711D01*
X0213620Y0128711D01*
X0213620Y0129205D01*
X0212275Y0130628D02*
X0212275Y0133288D01*
X0212275Y0130628D02*
X0211781Y0130628D01*
X0211781Y0133288D01*
X0212275Y0133288D01*
X0212275Y0132113D02*
X0211781Y0132113D01*
X0210307Y0133288D02*
X0210307Y0130628D01*
X0209813Y0130628D01*
X0209813Y0133288D01*
X0210307Y0133288D01*
X0210307Y0132113D02*
X0209813Y0132113D01*
X0208338Y0133288D02*
X0208338Y0130628D01*
X0207844Y0130628D01*
X0207844Y0133288D01*
X0208338Y0133288D01*
X0208338Y0132113D02*
X0207844Y0132113D01*
X0206370Y0133288D02*
X0206370Y0130628D01*
X0205876Y0130628D01*
X0205876Y0133288D01*
X0206370Y0133288D01*
X0206370Y0132113D02*
X0205876Y0132113D01*
X0204453Y0128750D02*
X0201793Y0128750D01*
X0201793Y0129244D01*
X0204453Y0129244D01*
X0204453Y0128750D01*
X0204453Y0126781D02*
X0201793Y0126781D01*
X0201793Y0127275D01*
X0204453Y0127275D01*
X0204453Y0126781D01*
X0204453Y0124813D02*
X0201793Y0124813D01*
X0201793Y0125307D01*
X0204453Y0125307D01*
X0204453Y0124813D01*
X0204453Y0122844D02*
X0201793Y0122844D01*
X0201793Y0123338D01*
X0204453Y0123338D01*
X0204453Y0122844D01*
X0134280Y0123299D02*
X0131620Y0123299D01*
X0134280Y0123299D02*
X0134280Y0122805D01*
X0131620Y0122805D01*
X0131620Y0123299D01*
X0131620Y0125268D02*
X0134280Y0125268D01*
X0134280Y0124774D01*
X0131620Y0124774D01*
X0131620Y0125268D01*
X0131620Y0127236D02*
X0134280Y0127236D01*
X0134280Y0126742D01*
X0131620Y0126742D01*
X0131620Y0127236D01*
X0131620Y0129205D02*
X0134280Y0129205D01*
X0134280Y0128711D01*
X0131620Y0128711D01*
X0131620Y0129205D01*
X0130275Y0130628D02*
X0130275Y0133288D01*
X0130275Y0130628D02*
X0129781Y0130628D01*
X0129781Y0133288D01*
X0130275Y0133288D01*
X0130275Y0132113D02*
X0129781Y0132113D01*
X0128307Y0133288D02*
X0128307Y0130628D01*
X0127813Y0130628D01*
X0127813Y0133288D01*
X0128307Y0133288D01*
X0128307Y0132113D02*
X0127813Y0132113D01*
X0126338Y0133288D02*
X0126338Y0130628D01*
X0125844Y0130628D01*
X0125844Y0133288D01*
X0126338Y0133288D01*
X0126338Y0132113D02*
X0125844Y0132113D01*
X0124370Y0133288D02*
X0124370Y0130628D01*
X0123876Y0130628D01*
X0123876Y0133288D01*
X0124370Y0133288D01*
X0124370Y0132113D02*
X0123876Y0132113D01*
X0122453Y0128750D02*
X0119793Y0128750D01*
X0119793Y0129244D01*
X0122453Y0129244D01*
X0122453Y0128750D01*
X0122453Y0126781D02*
X0119793Y0126781D01*
X0119793Y0127275D01*
X0122453Y0127275D01*
X0122453Y0126781D01*
X0122453Y0124813D02*
X0119793Y0124813D01*
X0119793Y0125307D01*
X0122453Y0125307D01*
X0122453Y0124813D01*
X0122453Y0122844D02*
X0119793Y0122844D01*
X0119793Y0123338D01*
X0122453Y0123338D01*
X0122453Y0122844D01*
X0123876Y0121461D02*
X0123876Y0118801D01*
X0123876Y0121461D02*
X0124370Y0121461D01*
X0124370Y0118801D01*
X0123876Y0118801D01*
X0123876Y0120286D02*
X0124370Y0120286D01*
X0125844Y0121461D02*
X0125844Y0118801D01*
X0125844Y0121461D02*
X0126338Y0121461D01*
X0126338Y0118801D01*
X0125844Y0118801D01*
X0125844Y0120286D02*
X0126338Y0120286D01*
X0127813Y0121461D02*
X0127813Y0118801D01*
X0127813Y0121461D02*
X0128307Y0121461D01*
X0128307Y0118801D01*
X0127813Y0118801D01*
X0127813Y0120286D02*
X0128307Y0120286D01*
X0129781Y0121461D02*
X0129781Y0118801D01*
X0129781Y0121461D02*
X0130275Y0121461D01*
X0130275Y0118801D01*
X0129781Y0118801D01*
X0129781Y0120286D02*
X0130275Y0120286D01*
X0052280Y0123299D02*
X0049620Y0123299D01*
X0052280Y0123299D02*
X0052280Y0122805D01*
X0049620Y0122805D01*
X0049620Y0123299D01*
X0049620Y0125268D02*
X0052280Y0125268D01*
X0052280Y0124774D01*
X0049620Y0124774D01*
X0049620Y0125268D01*
X0049620Y0127236D02*
X0052280Y0127236D01*
X0052280Y0126742D01*
X0049620Y0126742D01*
X0049620Y0127236D01*
X0049620Y0129205D02*
X0052280Y0129205D01*
X0052280Y0128711D01*
X0049620Y0128711D01*
X0049620Y0129205D01*
X0048275Y0130628D02*
X0048275Y0133288D01*
X0048275Y0130628D02*
X0047781Y0130628D01*
X0047781Y0133288D01*
X0048275Y0133288D01*
X0048275Y0132113D02*
X0047781Y0132113D01*
X0046307Y0133288D02*
X0046307Y0130628D01*
X0045813Y0130628D01*
X0045813Y0133288D01*
X0046307Y0133288D01*
X0046307Y0132113D02*
X0045813Y0132113D01*
X0044338Y0133288D02*
X0044338Y0130628D01*
X0043844Y0130628D01*
X0043844Y0133288D01*
X0044338Y0133288D01*
X0044338Y0132113D02*
X0043844Y0132113D01*
X0042370Y0133288D02*
X0042370Y0130628D01*
X0041876Y0130628D01*
X0041876Y0133288D01*
X0042370Y0133288D01*
X0042370Y0132113D02*
X0041876Y0132113D01*
X0040453Y0128750D02*
X0037793Y0128750D01*
X0037793Y0129244D01*
X0040453Y0129244D01*
X0040453Y0128750D01*
X0040453Y0126781D02*
X0037793Y0126781D01*
X0037793Y0127275D01*
X0040453Y0127275D01*
X0040453Y0126781D01*
X0040453Y0124813D02*
X0037793Y0124813D01*
X0037793Y0125307D01*
X0040453Y0125307D01*
X0040453Y0124813D01*
X0040453Y0122844D02*
X0037793Y0122844D01*
X0037793Y0123338D01*
X0040453Y0123338D01*
X0040453Y0122844D01*
X0041876Y0121461D02*
X0041876Y0118801D01*
X0041876Y0121461D02*
X0042370Y0121461D01*
X0042370Y0118801D01*
X0041876Y0118801D01*
X0041876Y0120286D02*
X0042370Y0120286D01*
X0043844Y0121461D02*
X0043844Y0118801D01*
X0043844Y0121461D02*
X0044338Y0121461D01*
X0044338Y0118801D01*
X0043844Y0118801D01*
X0043844Y0120286D02*
X0044338Y0120286D01*
X0045813Y0121461D02*
X0045813Y0118801D01*
X0045813Y0121461D02*
X0046307Y0121461D01*
X0046307Y0118801D01*
X0045813Y0118801D01*
X0045813Y0120286D02*
X0046307Y0120286D01*
X0047781Y0121461D02*
X0047781Y0118801D01*
X0047781Y0121461D02*
X0048275Y0121461D01*
X0048275Y0118801D01*
X0047781Y0118801D01*
X0047781Y0120286D02*
X0048275Y0120286D01*
X0047781Y0200801D02*
X0047781Y0203461D01*
X0048275Y0203461D01*
X0048275Y0200801D01*
X0047781Y0200801D01*
X0047781Y0202286D02*
X0048275Y0202286D01*
X0045813Y0203461D02*
X0045813Y0200801D01*
X0045813Y0203461D02*
X0046307Y0203461D01*
X0046307Y0200801D01*
X0045813Y0200801D01*
X0045813Y0202286D02*
X0046307Y0202286D01*
X0043844Y0203461D02*
X0043844Y0200801D01*
X0043844Y0203461D02*
X0044338Y0203461D01*
X0044338Y0200801D01*
X0043844Y0200801D01*
X0043844Y0202286D02*
X0044338Y0202286D01*
X0041876Y0203461D02*
X0041876Y0200801D01*
X0041876Y0203461D02*
X0042370Y0203461D01*
X0042370Y0200801D01*
X0041876Y0200801D01*
X0041876Y0202286D02*
X0042370Y0202286D01*
X0040453Y0204844D02*
X0037793Y0204844D01*
X0037793Y0205338D01*
X0040453Y0205338D01*
X0040453Y0204844D01*
X0040453Y0206813D02*
X0037793Y0206813D01*
X0037793Y0207307D01*
X0040453Y0207307D01*
X0040453Y0206813D01*
X0040453Y0208781D02*
X0037793Y0208781D01*
X0037793Y0209275D01*
X0040453Y0209275D01*
X0040453Y0208781D01*
X0040453Y0210750D02*
X0037793Y0210750D01*
X0037793Y0211244D01*
X0040453Y0211244D01*
X0040453Y0210750D01*
X0042370Y0212628D02*
X0042370Y0215288D01*
X0042370Y0212628D02*
X0041876Y0212628D01*
X0041876Y0215288D01*
X0042370Y0215288D01*
X0042370Y0214113D02*
X0041876Y0214113D01*
X0044338Y0215288D02*
X0044338Y0212628D01*
X0043844Y0212628D01*
X0043844Y0215288D01*
X0044338Y0215288D01*
X0044338Y0214113D02*
X0043844Y0214113D01*
X0046307Y0215288D02*
X0046307Y0212628D01*
X0045813Y0212628D01*
X0045813Y0215288D01*
X0046307Y0215288D01*
X0046307Y0214113D02*
X0045813Y0214113D01*
X0048275Y0215288D02*
X0048275Y0212628D01*
X0047781Y0212628D01*
X0047781Y0215288D01*
X0048275Y0215288D01*
X0048275Y0214113D02*
X0047781Y0214113D01*
X0049620Y0211205D02*
X0052280Y0211205D01*
X0052280Y0210711D01*
X0049620Y0210711D01*
X0049620Y0211205D01*
X0049620Y0209236D02*
X0052280Y0209236D01*
X0052280Y0208742D01*
X0049620Y0208742D01*
X0049620Y0209236D01*
X0049620Y0207268D02*
X0052280Y0207268D01*
X0052280Y0206774D01*
X0049620Y0206774D01*
X0049620Y0207268D01*
X0049620Y0205299D02*
X0052280Y0205299D01*
X0052280Y0204805D01*
X0049620Y0204805D01*
X0049620Y0205299D01*
X0119793Y0204844D02*
X0122453Y0204844D01*
X0119793Y0204844D02*
X0119793Y0205338D01*
X0122453Y0205338D01*
X0122453Y0204844D01*
X0122453Y0206813D02*
X0119793Y0206813D01*
X0119793Y0207307D01*
X0122453Y0207307D01*
X0122453Y0206813D01*
X0122453Y0208781D02*
X0119793Y0208781D01*
X0119793Y0209275D01*
X0122453Y0209275D01*
X0122453Y0208781D01*
X0122453Y0210750D02*
X0119793Y0210750D01*
X0119793Y0211244D01*
X0122453Y0211244D01*
X0122453Y0210750D01*
X0124370Y0212628D02*
X0124370Y0215288D01*
X0124370Y0212628D02*
X0123876Y0212628D01*
X0123876Y0215288D01*
X0124370Y0215288D01*
X0124370Y0214113D02*
X0123876Y0214113D01*
X0126338Y0215288D02*
X0126338Y0212628D01*
X0125844Y0212628D01*
X0125844Y0215288D01*
X0126338Y0215288D01*
X0126338Y0214113D02*
X0125844Y0214113D01*
X0128307Y0215288D02*
X0128307Y0212628D01*
X0127813Y0212628D01*
X0127813Y0215288D01*
X0128307Y0215288D01*
X0128307Y0214113D02*
X0127813Y0214113D01*
X0130275Y0215288D02*
X0130275Y0212628D01*
X0129781Y0212628D01*
X0129781Y0215288D01*
X0130275Y0215288D01*
X0130275Y0214113D02*
X0129781Y0214113D01*
X0131620Y0211205D02*
X0134280Y0211205D01*
X0134280Y0210711D01*
X0131620Y0210711D01*
X0131620Y0211205D01*
X0131620Y0209236D02*
X0134280Y0209236D01*
X0134280Y0208742D01*
X0131620Y0208742D01*
X0131620Y0209236D01*
X0131620Y0207268D02*
X0134280Y0207268D01*
X0134280Y0206774D01*
X0131620Y0206774D01*
X0131620Y0207268D01*
X0131620Y0205299D02*
X0134280Y0205299D01*
X0134280Y0204805D01*
X0131620Y0204805D01*
X0131620Y0205299D01*
X0129781Y0203461D02*
X0129781Y0200801D01*
X0129781Y0203461D02*
X0130275Y0203461D01*
X0130275Y0200801D01*
X0129781Y0200801D01*
X0129781Y0202286D02*
X0130275Y0202286D01*
X0127813Y0203461D02*
X0127813Y0200801D01*
X0127813Y0203461D02*
X0128307Y0203461D01*
X0128307Y0200801D01*
X0127813Y0200801D01*
X0127813Y0202286D02*
X0128307Y0202286D01*
X0125844Y0203461D02*
X0125844Y0200801D01*
X0125844Y0203461D02*
X0126338Y0203461D01*
X0126338Y0200801D01*
X0125844Y0200801D01*
X0125844Y0202286D02*
X0126338Y0202286D01*
X0123876Y0203461D02*
X0123876Y0200801D01*
X0123876Y0203461D02*
X0124370Y0203461D01*
X0124370Y0200801D01*
X0123876Y0200801D01*
X0123876Y0202286D02*
X0124370Y0202286D01*
X0201793Y0204844D02*
X0204453Y0204844D01*
X0201793Y0204844D02*
X0201793Y0205338D01*
X0204453Y0205338D01*
X0204453Y0204844D01*
X0204453Y0206813D02*
X0201793Y0206813D01*
X0201793Y0207307D01*
X0204453Y0207307D01*
X0204453Y0206813D01*
X0204453Y0208781D02*
X0201793Y0208781D01*
X0201793Y0209275D01*
X0204453Y0209275D01*
X0204453Y0208781D01*
X0204453Y0210750D02*
X0201793Y0210750D01*
X0201793Y0211244D01*
X0204453Y0211244D01*
X0204453Y0210750D01*
X0206370Y0212628D02*
X0206370Y0215288D01*
X0206370Y0212628D02*
X0205876Y0212628D01*
X0205876Y0215288D01*
X0206370Y0215288D01*
X0206370Y0214113D02*
X0205876Y0214113D01*
X0208338Y0215288D02*
X0208338Y0212628D01*
X0207844Y0212628D01*
X0207844Y0215288D01*
X0208338Y0215288D01*
X0208338Y0214113D02*
X0207844Y0214113D01*
X0210307Y0215288D02*
X0210307Y0212628D01*
X0209813Y0212628D01*
X0209813Y0215288D01*
X0210307Y0215288D01*
X0210307Y0214113D02*
X0209813Y0214113D01*
X0212275Y0215288D02*
X0212275Y0212628D01*
X0211781Y0212628D01*
X0211781Y0215288D01*
X0212275Y0215288D01*
X0212275Y0214113D02*
X0211781Y0214113D01*
X0213620Y0211205D02*
X0216280Y0211205D01*
X0216280Y0210711D01*
X0213620Y0210711D01*
X0213620Y0211205D01*
X0213620Y0209236D02*
X0216280Y0209236D01*
X0216280Y0208742D01*
X0213620Y0208742D01*
X0213620Y0209236D01*
X0213620Y0207268D02*
X0216280Y0207268D01*
X0216280Y0206774D01*
X0213620Y0206774D01*
X0213620Y0207268D01*
X0213620Y0205299D02*
X0216280Y0205299D01*
X0216280Y0204805D01*
X0213620Y0204805D01*
X0213620Y0205299D01*
X0211781Y0203461D02*
X0211781Y0200801D01*
X0211781Y0203461D02*
X0212275Y0203461D01*
X0212275Y0200801D01*
X0211781Y0200801D01*
X0211781Y0202286D02*
X0212275Y0202286D01*
X0209813Y0203461D02*
X0209813Y0200801D01*
X0209813Y0203461D02*
X0210307Y0203461D01*
X0210307Y0200801D01*
X0209813Y0200801D01*
X0209813Y0202286D02*
X0210307Y0202286D01*
X0207844Y0203461D02*
X0207844Y0200801D01*
X0207844Y0203461D02*
X0208338Y0203461D01*
X0208338Y0200801D01*
X0207844Y0200801D01*
X0207844Y0202286D02*
X0208338Y0202286D01*
X0205876Y0203461D02*
X0205876Y0200801D01*
X0205876Y0203461D02*
X0206370Y0203461D01*
X0206370Y0200801D01*
X0205876Y0200801D01*
X0205876Y0202286D02*
X0206370Y0202286D01*
D11*
X0202406Y0188060D03*
X0195714Y0188060D03*
X0215714Y0188060D03*
X0222406Y0188060D03*
X0222406Y0223060D03*
X0215714Y0223060D03*
X0202406Y0223060D03*
X0195714Y0223060D03*
X0140406Y0223060D03*
X0133714Y0223060D03*
X0120406Y0223060D03*
X0113714Y0223060D03*
X0113714Y0188060D03*
X0120406Y0188060D03*
X0133714Y0188060D03*
X0140406Y0188060D03*
X0140406Y0141060D03*
X0133714Y0141060D03*
X0120406Y0141060D03*
X0113714Y0141060D03*
X0113714Y0106060D03*
X0120406Y0106060D03*
X0133714Y0106060D03*
X0140406Y0106060D03*
X0140406Y0059060D03*
X0133714Y0059060D03*
X0120406Y0059060D03*
X0113714Y0059060D03*
X0113714Y0024060D03*
X0120406Y0024060D03*
X0133714Y0024060D03*
X0140406Y0024060D03*
X0195714Y0024060D03*
X0202406Y0024060D03*
X0215714Y0024060D03*
X0222406Y0024060D03*
X0222406Y0059060D03*
X0215714Y0059060D03*
X0202406Y0059060D03*
X0195714Y0059060D03*
X0195714Y0106060D03*
X0202406Y0106060D03*
X0215714Y0106060D03*
X0222406Y0106060D03*
X0222406Y0141060D03*
X0215714Y0141060D03*
X0202406Y0141060D03*
X0195714Y0141060D03*
X0058406Y0141060D03*
X0051714Y0141060D03*
X0038406Y0141060D03*
X0031714Y0141060D03*
X0031714Y0106060D03*
X0038406Y0106060D03*
X0051714Y0106060D03*
X0058406Y0106060D03*
X0058406Y0059060D03*
X0051714Y0059060D03*
X0038406Y0059060D03*
X0031714Y0059060D03*
X0031714Y0024060D03*
X0038406Y0024060D03*
X0051714Y0024060D03*
X0058406Y0024060D03*
X0058406Y0188060D03*
X0051714Y0188060D03*
X0038406Y0188060D03*
X0031714Y0188060D03*
X0031714Y0223060D03*
X0038406Y0223060D03*
X0051714Y0223060D03*
X0058406Y0223060D03*
D12*
X0075060Y0238060D03*
X0097060Y0238060D03*
X0157060Y0238060D03*
X0179060Y0238060D03*
X0239060Y0238060D03*
X0239060Y0156060D03*
X0179060Y0156060D03*
X0157060Y0156060D03*
X0097060Y0156060D03*
X0075060Y0156060D03*
X0015060Y0156060D03*
X0015060Y0238060D03*
X0015060Y0074060D03*
X0075060Y0074060D03*
X0097060Y0074060D03*
X0157060Y0074060D03*
X0179060Y0074060D03*
X0239060Y0074060D03*
D13*
X0010060Y0009060D03*
X0010060Y0019060D03*
X0010060Y0029060D03*
X0010060Y0039060D03*
X0010060Y0049060D03*
X0010060Y0059060D03*
X0010060Y0091060D03*
X0010060Y0101060D03*
X0010060Y0111060D03*
X0010060Y0121060D03*
X0010060Y0131060D03*
X0010060Y0141060D03*
X0010060Y0173060D03*
X0010060Y0183060D03*
X0010060Y0193060D03*
X0010060Y0203060D03*
X0010060Y0213060D03*
X0010060Y0223060D03*
X0080060Y0223060D03*
X0080060Y0213060D03*
X0080060Y0203060D03*
X0080060Y0193060D03*
X0080060Y0183060D03*
X0080060Y0173060D03*
X0092060Y0173060D03*
X0092060Y0183060D03*
X0092060Y0193060D03*
X0092060Y0203060D03*
X0092060Y0213060D03*
X0092060Y0223060D03*
X0162060Y0223060D03*
X0162060Y0213060D03*
X0162060Y0203060D03*
X0162060Y0193060D03*
X0162060Y0183060D03*
X0162060Y0173060D03*
X0174060Y0173060D03*
X0174060Y0183060D03*
X0174060Y0193060D03*
X0174060Y0203060D03*
X0174060Y0213060D03*
X0174060Y0223060D03*
X0244060Y0223060D03*
X0244060Y0213060D03*
X0244060Y0203060D03*
X0244060Y0193060D03*
X0244060Y0183060D03*
X0244060Y0173060D03*
X0244060Y0141060D03*
X0244060Y0131060D03*
X0244060Y0121060D03*
X0244060Y0111060D03*
X0244060Y0101060D03*
X0244060Y0091060D03*
X0244060Y0059060D03*
X0244060Y0049060D03*
X0244060Y0039060D03*
X0244060Y0029060D03*
X0244060Y0019060D03*
X0244060Y0009060D03*
X0174060Y0009060D03*
X0174060Y0019060D03*
X0174060Y0029060D03*
X0174060Y0039060D03*
X0174060Y0049060D03*
X0174060Y0059060D03*
X0162060Y0059060D03*
X0162060Y0049060D03*
X0162060Y0039060D03*
X0162060Y0029060D03*
X0162060Y0019060D03*
X0162060Y0009060D03*
X0092060Y0009060D03*
X0092060Y0019060D03*
X0092060Y0029060D03*
X0092060Y0039060D03*
X0092060Y0049060D03*
X0092060Y0059060D03*
X0080060Y0059060D03*
X0080060Y0049060D03*
X0080060Y0039060D03*
X0080060Y0029060D03*
X0080060Y0019060D03*
X0080060Y0009060D03*
X0080060Y0091060D03*
X0080060Y0101060D03*
X0080060Y0111060D03*
X0080060Y0121060D03*
X0080060Y0131060D03*
X0080060Y0141060D03*
X0092060Y0141060D03*
X0092060Y0131060D03*
X0092060Y0121060D03*
X0092060Y0111060D03*
X0092060Y0101060D03*
X0092060Y0091060D03*
X0162060Y0091060D03*
X0162060Y0101060D03*
X0162060Y0111060D03*
X0162060Y0121060D03*
X0162060Y0131060D03*
X0162060Y0141060D03*
X0174060Y0141060D03*
X0174060Y0131060D03*
X0174060Y0121060D03*
X0174060Y0111060D03*
X0174060Y0101060D03*
X0174060Y0091060D03*
D14*
X0189060Y0096060D03*
X0194060Y0101060D03*
X0209060Y0101060D03*
X0214060Y0101060D03*
X0209060Y0096060D03*
X0219060Y0118060D03*
X0224060Y0126060D03*
X0209060Y0126060D03*
X0209060Y0137060D03*
X0219060Y0146060D03*
X0224060Y0146060D03*
X0199060Y0146060D03*
X0189060Y0136060D03*
X0196560Y0131060D03*
X0194060Y0123560D03*
X0234060Y0106060D03*
X0224060Y0064060D03*
X0219060Y0064060D03*
X0209060Y0055060D03*
X0209060Y0044060D03*
X0219060Y0036060D03*
X0224060Y0044060D03*
X0234060Y0024060D03*
X0214060Y0019060D03*
X0209060Y0019060D03*
X0209060Y0014060D03*
X0194060Y0019060D03*
X0189060Y0014060D03*
X0194060Y0041560D03*
X0196560Y0049060D03*
X0189060Y0054060D03*
X0199060Y0064060D03*
X0152060Y0024060D03*
X0137060Y0036060D03*
X0142060Y0044060D03*
X0127060Y0044060D03*
X0127060Y0055060D03*
X0137060Y0064060D03*
X0142060Y0064060D03*
X0117060Y0064060D03*
X0107060Y0054060D03*
X0114560Y0049060D03*
X0112060Y0041560D03*
X0112060Y0019060D03*
X0107060Y0014060D03*
X0127060Y0014060D03*
X0127060Y0019060D03*
X0132060Y0019060D03*
X0070060Y0024060D03*
X0055060Y0036060D03*
X0060060Y0044060D03*
X0045060Y0044060D03*
X0045060Y0055060D03*
X0055060Y0064060D03*
X0060060Y0064060D03*
X0035060Y0064060D03*
X0025060Y0054060D03*
X0032560Y0049060D03*
X0030060Y0041560D03*
X0030060Y0019060D03*
X0025060Y0014060D03*
X0045060Y0014060D03*
X0045060Y0019060D03*
X0050060Y0019060D03*
X0045060Y0096060D03*
X0045060Y0101060D03*
X0050060Y0101060D03*
X0055060Y0118060D03*
X0060060Y0126060D03*
X0045060Y0126060D03*
X0045060Y0137060D03*
X0055060Y0146060D03*
X0060060Y0146060D03*
X0035060Y0146060D03*
X0025060Y0136060D03*
X0032560Y0131060D03*
X0030060Y0123560D03*
X0030060Y0101060D03*
X0025060Y0096060D03*
X0070060Y0106060D03*
X0107060Y0096060D03*
X0112060Y0101060D03*
X0127060Y0101060D03*
X0132060Y0101060D03*
X0127060Y0096060D03*
X0137060Y0118060D03*
X0142060Y0126060D03*
X0127060Y0126060D03*
X0127060Y0137060D03*
X0137060Y0146060D03*
X0142060Y0146060D03*
X0117060Y0146060D03*
X0107060Y0136060D03*
X0114560Y0131060D03*
X0112060Y0123560D03*
X0152060Y0106060D03*
X0127060Y0178060D03*
X0127060Y0183060D03*
X0132060Y0183060D03*
X0137060Y0200060D03*
X0142060Y0208060D03*
X0127060Y0208060D03*
X0127060Y0219060D03*
X0137060Y0228060D03*
X0142060Y0228060D03*
X0117060Y0228060D03*
X0107060Y0218060D03*
X0114560Y0213060D03*
X0112060Y0205560D03*
X0112060Y0183060D03*
X0107060Y0178060D03*
X0070060Y0188060D03*
X0055060Y0200060D03*
X0060060Y0208060D03*
X0045060Y0208060D03*
X0045060Y0219060D03*
X0055060Y0228060D03*
X0060060Y0228060D03*
X0035060Y0228060D03*
X0025060Y0218060D03*
X0032560Y0213060D03*
X0030060Y0205560D03*
X0030060Y0183060D03*
X0025060Y0178060D03*
X0045060Y0178060D03*
X0045060Y0183060D03*
X0050060Y0183060D03*
X0152060Y0188060D03*
X0189060Y0178060D03*
X0194060Y0183060D03*
X0209060Y0183060D03*
X0214060Y0183060D03*
X0209060Y0178060D03*
X0219060Y0200060D03*
X0224060Y0208060D03*
X0209060Y0208060D03*
X0209060Y0219060D03*
X0219060Y0228060D03*
X0224060Y0228060D03*
X0199060Y0228060D03*
X0189060Y0218060D03*
X0196560Y0213060D03*
X0194060Y0205560D03*
X0234060Y0188060D03*
M02*
