%
M48
M72
T01C0.0150
T02C0.0400
T03C0.1300
%
T01
X2506Y1406
X3006Y1906
X4506Y1906
X5006Y1906
X4506Y1406
X5506Y3606
X6006Y4406
X4506Y4406
X4506Y5506
X5506Y6406
X6006Y6406
X3506Y6406
X2506Y5406
X3256Y4906
X3006Y4156
X7006Y2406
X10706Y1406
X11206Y1906
X12706Y1906
X13206Y1906
X12706Y1406
X13706Y3606
X14206Y4406
X12706Y4406
X12706Y5506
X13706Y6406
X14206Y6406
X11706Y6406
X10706Y5406
X11456Y4906
X11206Y4156
X15206Y2406
X18906Y1406
X19406Y1906
X20906Y1906
X21406Y1906
X20906Y1406
X21906Y3606
X22406Y4406
X20906Y4406
X20906Y5506
X21906Y6406
X22406Y6406
X19906Y6406
X18906Y5406
X19656Y4906
X19406Y4156
X23406Y2406
X20906Y9606
X20906Y10106
X21406Y10106
X21906Y11806
X22406Y12606
X20906Y12606
X20906Y13706
X21906Y14606
X22406Y14606
X19906Y14606
X18906Y13606
X19656Y13106
X19406Y12356
X19406Y10106
X18906Y9606
X15206Y10606
X13706Y11806
X14206Y12606
X12706Y12606
X12706Y13706
X13706Y14606
X14206Y14606
X11706Y14606
X10706Y13606
X11456Y13106
X11206Y12356
X11206Y10106
X10706Y9606
X12706Y9606
X12706Y10106
X13206Y10106
X7006Y10606
X5506Y11806
X6006Y12606
X4506Y12606
X4506Y13706
X5506Y14606
X6006Y14606
X3506Y14606
X2506Y13606
X3256Y13106
X3006Y12356
X3006Y10106
X2506Y9606
X4506Y9606
X4506Y10106
X5006Y10106
X4506Y17806
X4506Y18306
X5006Y18306
X5506Y20006
X6006Y20806
X4506Y20806
X4506Y21906
X5506Y22806
X6006Y22806
X3506Y22806
X2506Y21806
X3256Y21306
X3006Y20556
X3006Y18306
X2506Y17806
X7006Y18806
X10706Y17806
X11206Y18306
X12706Y18306
X13206Y18306
X12706Y17806
X13706Y20006
X14206Y20806
X12706Y20806
X12706Y21906
X13706Y22806
X14206Y22806
X11706Y22806
X10706Y21806
X11456Y21306
X11206Y20556
X15206Y18806
X18906Y17806
X19406Y18306
X20906Y18306
X21406Y18306
X20906Y17806
X21906Y20006
X22406Y20806
X20906Y20806
X20906Y21906
X21906Y22806
X22406Y22806
X19906Y22806
X18906Y21806
X19656Y21306
X19406Y20556
X23406Y18806
X23406Y10606
T02
X1006Y906
X1006Y1906
X1006Y2906
X1006Y3906
X1006Y4906
X1006Y5906
X1006Y9106
X1006Y10106
X1006Y11106
X1006Y12106
X1006Y13106
X1006Y14106
X1006Y17306
X1006Y18306
X1006Y19306
X1006Y20306
X1006Y21306
X1006Y22306
X8006Y22306
X8006Y21306
X8006Y20306
X8006Y19306
X8006Y18306
X8006Y17306
X9206Y17306
X9206Y18306
X9206Y19306
X9206Y20306
X9206Y21306
X9206Y22306
X16206Y22306
X16206Y21306
X16206Y20306
X16206Y19306
X16206Y18306
X16206Y17306
X17406Y17306
X17406Y18306
X17406Y19306
X17406Y20306
X17406Y21306
X17406Y22306
X24406Y22306
X24406Y21306
X24406Y20306
X24406Y19306
X24406Y18306
X24406Y17306
X24406Y14106
X24406Y13106
X24406Y12106
X24406Y11106
X24406Y10106
X24406Y9106
X24406Y5906
X24406Y4906
X24406Y3906
X24406Y2906
X24406Y1906
X24406Y906
X17406Y906
X17406Y1906
X17406Y2906
X17406Y3906
X17406Y4906
X17406Y5906
X16206Y5906
X16206Y4906
X16206Y3906
X16206Y2906
X16206Y1906
X16206Y906
X9206Y906
X9206Y1906
X9206Y2906
X9206Y3906
X9206Y4906
X9206Y5906
X8006Y5906
X8006Y4906
X8006Y3906
X8006Y2906
X8006Y1906
X8006Y906
X8006Y9106
X8006Y10106
X8006Y11106
X8006Y12106
X8006Y13106
X8006Y14106
X9206Y14106
X9206Y13106
X9206Y12106
X9206Y11106
X9206Y10106
X9206Y9106
X16206Y9106
X16206Y10106
X16206Y11106
X16206Y12106
X16206Y13106
X16206Y14106
X17406Y14106
X17406Y13106
X17406Y12106
X17406Y11106
X17406Y10106
X17406Y9106
T03
X17906Y7406
X15706Y7406
X9706Y7406
X7506Y7406
X1506Y7406
X1506Y15606
X7506Y15606
X9706Y15606
X15706Y15606
X17906Y15606
X23906Y15606
X23906Y23806
X17906Y23806
X15706Y23806
X9706Y23806
X7506Y23806
X1506Y23806
X23906Y7406
M30
